G04 EAGLE Gerber RS-274X export*
G75*
%MOMM*%
%FSLAX34Y34*%
%LPD*%
%IN*%
%IPPOS*%
%AMOC8*
5,1,8,0,0,1.08239X$1,22.5*%
G01*
%ADD10C,0.254000*%


D10*
X0Y0D02*
X819150Y0D01*
X819150Y390525D01*
X0Y390525D01*
X0Y0D01*
X487450Y304939D02*
X487374Y303871D01*
X487221Y302810D01*
X486993Y301763D01*
X486691Y300735D01*
X486317Y299731D01*
X485872Y298756D01*
X485358Y297816D01*
X484779Y296915D01*
X484137Y296057D01*
X483435Y295247D01*
X482678Y294490D01*
X481868Y293788D01*
X481010Y293146D01*
X480109Y292567D01*
X479169Y292053D01*
X478194Y291608D01*
X477190Y291234D01*
X476162Y290932D01*
X475115Y290704D01*
X474054Y290551D01*
X472986Y290475D01*
X471914Y290475D01*
X470846Y290551D01*
X469785Y290704D01*
X468738Y290932D01*
X467710Y291234D01*
X466706Y291608D01*
X465731Y292053D01*
X464791Y292567D01*
X463890Y293146D01*
X463032Y293788D01*
X462222Y294490D01*
X461465Y295247D01*
X460763Y296057D01*
X460121Y296915D01*
X459542Y297816D01*
X459028Y298756D01*
X458583Y299731D01*
X458209Y300735D01*
X457907Y301763D01*
X457679Y302810D01*
X457526Y303871D01*
X457450Y304939D01*
X457450Y306011D01*
X457526Y307079D01*
X457679Y308140D01*
X457907Y309187D01*
X458209Y310215D01*
X458583Y311219D01*
X459028Y312194D01*
X459542Y313134D01*
X460121Y314035D01*
X460763Y314893D01*
X461465Y315703D01*
X462222Y316460D01*
X463032Y317162D01*
X463890Y317804D01*
X464791Y318383D01*
X465731Y318897D01*
X466706Y319342D01*
X467710Y319716D01*
X468738Y320018D01*
X469785Y320246D01*
X470846Y320399D01*
X471914Y320475D01*
X472986Y320475D01*
X474054Y320399D01*
X475115Y320246D01*
X476162Y320018D01*
X477190Y319716D01*
X478194Y319342D01*
X479169Y318897D01*
X480109Y318383D01*
X481010Y317804D01*
X481868Y317162D01*
X482678Y316460D01*
X483435Y315703D01*
X484137Y314893D01*
X484779Y314035D01*
X485358Y313134D01*
X485872Y312194D01*
X486317Y311219D01*
X486691Y310215D01*
X486993Y309187D01*
X487221Y308140D01*
X487374Y307079D01*
X487450Y306011D01*
X487450Y304939D01*
X393450Y304939D02*
X393374Y303871D01*
X393221Y302810D01*
X392993Y301763D01*
X392691Y300735D01*
X392317Y299731D01*
X391872Y298756D01*
X391358Y297816D01*
X390779Y296915D01*
X390137Y296057D01*
X389435Y295247D01*
X388678Y294490D01*
X387868Y293788D01*
X387010Y293146D01*
X386109Y292567D01*
X385169Y292053D01*
X384194Y291608D01*
X383190Y291234D01*
X382162Y290932D01*
X381115Y290704D01*
X380054Y290551D01*
X378986Y290475D01*
X377914Y290475D01*
X376846Y290551D01*
X375785Y290704D01*
X374738Y290932D01*
X373710Y291234D01*
X372706Y291608D01*
X371731Y292053D01*
X370791Y292567D01*
X369890Y293146D01*
X369032Y293788D01*
X368222Y294490D01*
X367465Y295247D01*
X366763Y296057D01*
X366121Y296915D01*
X365542Y297816D01*
X365028Y298756D01*
X364583Y299731D01*
X364209Y300735D01*
X363907Y301763D01*
X363679Y302810D01*
X363526Y303871D01*
X363450Y304939D01*
X363450Y306011D01*
X363526Y307079D01*
X363679Y308140D01*
X363907Y309187D01*
X364209Y310215D01*
X364583Y311219D01*
X365028Y312194D01*
X365542Y313134D01*
X366121Y314035D01*
X366763Y314893D01*
X367465Y315703D01*
X368222Y316460D01*
X369032Y317162D01*
X369890Y317804D01*
X370791Y318383D01*
X371731Y318897D01*
X372706Y319342D01*
X373710Y319716D01*
X374738Y320018D01*
X375785Y320246D01*
X376846Y320399D01*
X377914Y320475D01*
X378986Y320475D01*
X380054Y320399D01*
X381115Y320246D01*
X382162Y320018D01*
X383190Y319716D01*
X384194Y319342D01*
X385169Y318897D01*
X386109Y318383D01*
X387010Y317804D01*
X387868Y317162D01*
X388678Y316460D01*
X389435Y315703D01*
X390137Y314893D01*
X390779Y314035D01*
X391358Y313134D01*
X391872Y312194D01*
X392317Y311219D01*
X392691Y310215D01*
X392993Y309187D01*
X393221Y308140D01*
X393374Y307079D01*
X393450Y306011D01*
X393450Y304939D01*
X758964Y38150D02*
X757896Y38226D01*
X756835Y38379D01*
X755788Y38607D01*
X754760Y38909D01*
X753756Y39283D01*
X752781Y39728D01*
X751841Y40242D01*
X750940Y40821D01*
X750082Y41463D01*
X749272Y42165D01*
X748515Y42922D01*
X747813Y43732D01*
X747171Y44590D01*
X746592Y45491D01*
X746078Y46431D01*
X745633Y47406D01*
X745259Y48410D01*
X744957Y49438D01*
X744729Y50485D01*
X744576Y51546D01*
X744500Y52614D01*
X744500Y53686D01*
X744576Y54754D01*
X744729Y55815D01*
X744957Y56862D01*
X745259Y57890D01*
X745633Y58894D01*
X746078Y59869D01*
X746592Y60809D01*
X747171Y61710D01*
X747813Y62568D01*
X748515Y63378D01*
X749272Y64135D01*
X750082Y64837D01*
X750940Y65479D01*
X751841Y66058D01*
X752781Y66572D01*
X753756Y67017D01*
X754760Y67391D01*
X755788Y67693D01*
X756835Y67921D01*
X757896Y68074D01*
X758964Y68150D01*
X760036Y68150D01*
X761104Y68074D01*
X762165Y67921D01*
X763212Y67693D01*
X764240Y67391D01*
X765244Y67017D01*
X766219Y66572D01*
X767159Y66058D01*
X768060Y65479D01*
X768918Y64837D01*
X769728Y64135D01*
X770485Y63378D01*
X771187Y62568D01*
X771829Y61710D01*
X772408Y60809D01*
X772922Y59869D01*
X773367Y58894D01*
X773741Y57890D01*
X774043Y56862D01*
X774271Y55815D01*
X774424Y54754D01*
X774500Y53686D01*
X774500Y52614D01*
X774424Y51546D01*
X774271Y50485D01*
X774043Y49438D01*
X773741Y48410D01*
X773367Y47406D01*
X772922Y46431D01*
X772408Y45491D01*
X771829Y44590D01*
X771187Y43732D01*
X770485Y42922D01*
X769728Y42165D01*
X768918Y41463D01*
X768060Y40821D01*
X767159Y40242D01*
X766219Y39728D01*
X765244Y39283D01*
X764240Y38909D01*
X763212Y38607D01*
X762165Y38379D01*
X761104Y38226D01*
X760036Y38150D01*
X758964Y38150D01*
X758964Y300150D02*
X757896Y300226D01*
X756835Y300379D01*
X755788Y300607D01*
X754760Y300909D01*
X753756Y301283D01*
X752781Y301728D01*
X751841Y302242D01*
X750940Y302821D01*
X750082Y303463D01*
X749272Y304165D01*
X748515Y304922D01*
X747813Y305732D01*
X747171Y306590D01*
X746592Y307491D01*
X746078Y308431D01*
X745633Y309406D01*
X745259Y310410D01*
X744957Y311438D01*
X744729Y312485D01*
X744576Y313546D01*
X744500Y314614D01*
X744500Y315686D01*
X744576Y316754D01*
X744729Y317815D01*
X744957Y318862D01*
X745259Y319890D01*
X745633Y320894D01*
X746078Y321869D01*
X746592Y322809D01*
X747171Y323710D01*
X747813Y324568D01*
X748515Y325378D01*
X749272Y326135D01*
X750082Y326837D01*
X750940Y327479D01*
X751841Y328058D01*
X752781Y328572D01*
X753756Y329017D01*
X754760Y329391D01*
X755788Y329693D01*
X756835Y329921D01*
X757896Y330074D01*
X758964Y330150D01*
X760036Y330150D01*
X761104Y330074D01*
X762165Y329921D01*
X763212Y329693D01*
X764240Y329391D01*
X765244Y329017D01*
X766219Y328572D01*
X767159Y328058D01*
X768060Y327479D01*
X768918Y326837D01*
X769728Y326135D01*
X770485Y325378D01*
X771187Y324568D01*
X771829Y323710D01*
X772408Y322809D01*
X772922Y321869D01*
X773367Y320894D01*
X773741Y319890D01*
X774043Y318862D01*
X774271Y317815D01*
X774424Y316754D01*
X774500Y315686D01*
X774500Y314614D01*
X774424Y313546D01*
X774271Y312485D01*
X774043Y311438D01*
X773741Y310410D01*
X773367Y309406D01*
X772922Y308431D01*
X772408Y307491D01*
X771829Y306590D01*
X771187Y305732D01*
X770485Y304922D01*
X769728Y304165D01*
X768918Y303463D01*
X768060Y302821D01*
X767159Y302242D01*
X766219Y301728D01*
X765244Y301283D01*
X764240Y300909D01*
X763212Y300607D01*
X762165Y300379D01*
X761104Y300226D01*
X760036Y300150D01*
X758964Y300150D01*
M02*
