G04 EAGLE Gerber RS-274X export*
G75*
%MOMM*%
%FSLAX34Y34*%
%LPD*%
%INSolderpaste Top*%
%IPPOS*%
%AMOC8*
5,1,8,0,0,1.08239X$1,22.5*%
G01*
%ADD10R,1.100000X1.000000*%
%ADD11R,1.000000X1.100000*%
%ADD12R,0.830000X0.630000*%
%ADD13C,0.300000*%
%ADD14R,2.000000X0.900000*%
%ADD15R,0.900000X2.000000*%
%ADD16R,5.000000X5.000000*%
%ADD17R,1.150000X0.400000*%
%ADD18R,0.900000X3.000000*%
%ADD19R,0.300000X0.660000*%
%ADD20R,1.800000X1.800000*%
%ADD21R,0.900000X1.000000*%
%ADD22R,1.500000X1.300000*%
%ADD23R,1.200000X0.550000*%
%ADD24R,1.350000X0.650000*%
%ADD25R,0.650000X1.350000*%

G36*
X76740Y138602D02*
X76740Y138602D01*
X76806Y138604D01*
X76849Y138622D01*
X76896Y138630D01*
X76953Y138664D01*
X77013Y138689D01*
X77048Y138720D01*
X77089Y138745D01*
X77131Y138796D01*
X77179Y138840D01*
X77201Y138882D01*
X77230Y138919D01*
X77251Y138981D01*
X77282Y139040D01*
X77290Y139094D01*
X77302Y139131D01*
X77301Y139171D01*
X77309Y139225D01*
X77309Y146725D01*
X77298Y146790D01*
X77296Y146856D01*
X77278Y146899D01*
X77270Y146946D01*
X77236Y147003D01*
X77211Y147063D01*
X77180Y147098D01*
X77155Y147139D01*
X77104Y147181D01*
X77060Y147229D01*
X77018Y147251D01*
X76981Y147280D01*
X76919Y147301D01*
X76860Y147332D01*
X76806Y147340D01*
X76769Y147352D01*
X76729Y147351D01*
X76675Y147359D01*
X69175Y147359D01*
X69110Y147348D01*
X69044Y147346D01*
X69001Y147328D01*
X68954Y147320D01*
X68897Y147286D01*
X68837Y147261D01*
X68802Y147230D01*
X68761Y147205D01*
X68720Y147154D01*
X68671Y147110D01*
X68649Y147068D01*
X68620Y147031D01*
X68599Y146969D01*
X68568Y146910D01*
X68560Y146856D01*
X68548Y146819D01*
X68549Y146779D01*
X68541Y146725D01*
X68541Y139225D01*
X68552Y139160D01*
X68554Y139094D01*
X68572Y139051D01*
X68580Y139004D01*
X68614Y138947D01*
X68639Y138887D01*
X68670Y138852D01*
X68695Y138811D01*
X68746Y138770D01*
X68790Y138721D01*
X68832Y138699D01*
X68869Y138670D01*
X68931Y138649D01*
X68990Y138618D01*
X69044Y138610D01*
X69081Y138598D01*
X69121Y138599D01*
X69175Y138591D01*
X76675Y138591D01*
X76740Y138602D01*
G37*
G36*
X64240Y138602D02*
X64240Y138602D01*
X64306Y138604D01*
X64349Y138622D01*
X64396Y138630D01*
X64453Y138664D01*
X64513Y138689D01*
X64548Y138720D01*
X64589Y138745D01*
X64631Y138796D01*
X64679Y138840D01*
X64701Y138882D01*
X64730Y138919D01*
X64751Y138981D01*
X64782Y139040D01*
X64790Y139094D01*
X64802Y139131D01*
X64801Y139171D01*
X64809Y139225D01*
X64809Y146725D01*
X64798Y146790D01*
X64796Y146856D01*
X64778Y146899D01*
X64770Y146946D01*
X64736Y147003D01*
X64711Y147063D01*
X64680Y147098D01*
X64655Y147139D01*
X64604Y147181D01*
X64560Y147229D01*
X64518Y147251D01*
X64481Y147280D01*
X64419Y147301D01*
X64360Y147332D01*
X64306Y147340D01*
X64269Y147352D01*
X64229Y147351D01*
X64175Y147359D01*
X56675Y147359D01*
X56610Y147348D01*
X56544Y147346D01*
X56501Y147328D01*
X56454Y147320D01*
X56397Y147286D01*
X56337Y147261D01*
X56302Y147230D01*
X56261Y147205D01*
X56220Y147154D01*
X56171Y147110D01*
X56149Y147068D01*
X56120Y147031D01*
X56099Y146969D01*
X56068Y146910D01*
X56060Y146856D01*
X56048Y146819D01*
X56049Y146779D01*
X56041Y146725D01*
X56041Y139225D01*
X56052Y139160D01*
X56054Y139094D01*
X56072Y139051D01*
X56080Y139004D01*
X56114Y138947D01*
X56139Y138887D01*
X56170Y138852D01*
X56195Y138811D01*
X56246Y138770D01*
X56290Y138721D01*
X56332Y138699D01*
X56369Y138670D01*
X56431Y138649D01*
X56490Y138618D01*
X56544Y138610D01*
X56581Y138598D01*
X56621Y138599D01*
X56675Y138591D01*
X64175Y138591D01*
X64240Y138602D01*
G37*
G36*
X64240Y151102D02*
X64240Y151102D01*
X64306Y151104D01*
X64349Y151122D01*
X64396Y151130D01*
X64453Y151164D01*
X64513Y151189D01*
X64548Y151220D01*
X64589Y151245D01*
X64631Y151296D01*
X64679Y151340D01*
X64701Y151382D01*
X64730Y151419D01*
X64751Y151481D01*
X64782Y151540D01*
X64790Y151594D01*
X64802Y151631D01*
X64801Y151671D01*
X64809Y151725D01*
X64809Y159225D01*
X64798Y159290D01*
X64796Y159356D01*
X64778Y159399D01*
X64770Y159446D01*
X64736Y159503D01*
X64711Y159563D01*
X64680Y159598D01*
X64655Y159639D01*
X64604Y159681D01*
X64560Y159729D01*
X64518Y159751D01*
X64481Y159780D01*
X64419Y159801D01*
X64360Y159832D01*
X64306Y159840D01*
X64269Y159852D01*
X64229Y159851D01*
X64175Y159859D01*
X56675Y159859D01*
X56610Y159848D01*
X56544Y159846D01*
X56501Y159828D01*
X56454Y159820D01*
X56397Y159786D01*
X56337Y159761D01*
X56302Y159730D01*
X56261Y159705D01*
X56220Y159654D01*
X56171Y159610D01*
X56149Y159568D01*
X56120Y159531D01*
X56099Y159469D01*
X56068Y159410D01*
X56060Y159356D01*
X56048Y159319D01*
X56049Y159279D01*
X56041Y159225D01*
X56041Y151725D01*
X56052Y151660D01*
X56054Y151594D01*
X56072Y151551D01*
X56080Y151504D01*
X56114Y151447D01*
X56139Y151387D01*
X56170Y151352D01*
X56195Y151311D01*
X56246Y151270D01*
X56290Y151221D01*
X56332Y151199D01*
X56369Y151170D01*
X56431Y151149D01*
X56490Y151118D01*
X56544Y151110D01*
X56581Y151098D01*
X56621Y151099D01*
X56675Y151091D01*
X64175Y151091D01*
X64240Y151102D01*
G37*
G36*
X76740Y151102D02*
X76740Y151102D01*
X76806Y151104D01*
X76849Y151122D01*
X76896Y151130D01*
X76953Y151164D01*
X77013Y151189D01*
X77048Y151220D01*
X77089Y151245D01*
X77131Y151296D01*
X77179Y151340D01*
X77201Y151382D01*
X77230Y151419D01*
X77251Y151481D01*
X77282Y151540D01*
X77290Y151594D01*
X77302Y151631D01*
X77301Y151671D01*
X77309Y151725D01*
X77309Y159225D01*
X77298Y159290D01*
X77296Y159356D01*
X77278Y159399D01*
X77270Y159446D01*
X77236Y159503D01*
X77211Y159563D01*
X77180Y159598D01*
X77155Y159639D01*
X77104Y159681D01*
X77060Y159729D01*
X77018Y159751D01*
X76981Y159780D01*
X76919Y159801D01*
X76860Y159832D01*
X76806Y159840D01*
X76769Y159852D01*
X76729Y159851D01*
X76675Y159859D01*
X69175Y159859D01*
X69110Y159848D01*
X69044Y159846D01*
X69001Y159828D01*
X68954Y159820D01*
X68897Y159786D01*
X68837Y159761D01*
X68802Y159730D01*
X68761Y159705D01*
X68720Y159654D01*
X68671Y159610D01*
X68649Y159568D01*
X68620Y159531D01*
X68599Y159469D01*
X68568Y159410D01*
X68560Y159356D01*
X68548Y159319D01*
X68549Y159279D01*
X68541Y159225D01*
X68541Y151725D01*
X68552Y151660D01*
X68554Y151594D01*
X68572Y151551D01*
X68580Y151504D01*
X68614Y151447D01*
X68639Y151387D01*
X68670Y151352D01*
X68695Y151311D01*
X68746Y151270D01*
X68790Y151221D01*
X68832Y151199D01*
X68869Y151170D01*
X68931Y151149D01*
X68990Y151118D01*
X69044Y151110D01*
X69081Y151098D01*
X69121Y151099D01*
X69175Y151091D01*
X76675Y151091D01*
X76740Y151102D01*
G37*
G36*
X55422Y165812D02*
X55422Y165812D01*
X55417Y165819D01*
X55424Y165825D01*
X55424Y173625D01*
X55388Y173672D01*
X55381Y173667D01*
X55375Y173674D01*
X52975Y173674D01*
X52928Y173638D01*
X52933Y173631D01*
X52926Y173625D01*
X52926Y165825D01*
X52962Y165778D01*
X52969Y165783D01*
X52975Y165776D01*
X55375Y165776D01*
X55422Y165812D01*
G37*
G36*
X65422Y165812D02*
X65422Y165812D01*
X65417Y165819D01*
X65424Y165825D01*
X65424Y173625D01*
X65388Y173672D01*
X65381Y173667D01*
X65375Y173674D01*
X62975Y173674D01*
X62928Y173638D01*
X62933Y173631D01*
X62926Y173625D01*
X62926Y165825D01*
X62962Y165778D01*
X62969Y165783D01*
X62975Y165776D01*
X65375Y165776D01*
X65422Y165812D01*
G37*
G36*
X91122Y160512D02*
X91122Y160512D01*
X91117Y160519D01*
X91124Y160525D01*
X91124Y162925D01*
X91088Y162972D01*
X91081Y162967D01*
X91075Y162974D01*
X83275Y162974D01*
X83228Y162938D01*
X83233Y162931D01*
X83226Y162925D01*
X83226Y160525D01*
X83262Y160478D01*
X83269Y160483D01*
X83275Y160476D01*
X91075Y160476D01*
X91122Y160512D01*
G37*
G36*
X50122Y160512D02*
X50122Y160512D01*
X50117Y160519D01*
X50124Y160525D01*
X50124Y162925D01*
X50088Y162972D01*
X50081Y162967D01*
X50075Y162974D01*
X42275Y162974D01*
X42228Y162938D01*
X42233Y162931D01*
X42226Y162925D01*
X42226Y160525D01*
X42262Y160478D01*
X42269Y160483D01*
X42275Y160476D01*
X50075Y160476D01*
X50122Y160512D01*
G37*
G36*
X80422Y165812D02*
X80422Y165812D01*
X80417Y165819D01*
X80424Y165825D01*
X80424Y173625D01*
X80388Y173672D01*
X80381Y173667D01*
X80375Y173674D01*
X77975Y173674D01*
X77928Y173638D01*
X77933Y173631D01*
X77926Y173625D01*
X77926Y165825D01*
X77962Y165778D01*
X77969Y165783D01*
X77975Y165776D01*
X80375Y165776D01*
X80422Y165812D01*
G37*
G36*
X70422Y165812D02*
X70422Y165812D01*
X70417Y165819D01*
X70424Y165825D01*
X70424Y173625D01*
X70388Y173672D01*
X70381Y173667D01*
X70375Y173674D01*
X67975Y173674D01*
X67928Y173638D01*
X67933Y173631D01*
X67926Y173625D01*
X67926Y165825D01*
X67962Y165778D01*
X67969Y165783D01*
X67975Y165776D01*
X70375Y165776D01*
X70422Y165812D01*
G37*
G36*
X91122Y155512D02*
X91122Y155512D01*
X91117Y155519D01*
X91124Y155525D01*
X91124Y157925D01*
X91088Y157972D01*
X91081Y157967D01*
X91075Y157974D01*
X83275Y157974D01*
X83228Y157938D01*
X83233Y157931D01*
X83226Y157925D01*
X83226Y155525D01*
X83262Y155478D01*
X83269Y155483D01*
X83275Y155476D01*
X91075Y155476D01*
X91122Y155512D01*
G37*
G36*
X50122Y155512D02*
X50122Y155512D01*
X50117Y155519D01*
X50124Y155525D01*
X50124Y157925D01*
X50088Y157972D01*
X50081Y157967D01*
X50075Y157974D01*
X42275Y157974D01*
X42228Y157938D01*
X42233Y157931D01*
X42226Y157925D01*
X42226Y155525D01*
X42262Y155478D01*
X42269Y155483D01*
X42275Y155476D01*
X50075Y155476D01*
X50122Y155512D01*
G37*
G36*
X91122Y150512D02*
X91122Y150512D01*
X91117Y150519D01*
X91124Y150525D01*
X91124Y152925D01*
X91088Y152972D01*
X91081Y152967D01*
X91075Y152974D01*
X83275Y152974D01*
X83228Y152938D01*
X83233Y152931D01*
X83226Y152925D01*
X83226Y150525D01*
X83262Y150478D01*
X83269Y150483D01*
X83275Y150476D01*
X91075Y150476D01*
X91122Y150512D01*
G37*
G36*
X50122Y150512D02*
X50122Y150512D01*
X50117Y150519D01*
X50124Y150525D01*
X50124Y152925D01*
X50088Y152972D01*
X50081Y152967D01*
X50075Y152974D01*
X42275Y152974D01*
X42228Y152938D01*
X42233Y152931D01*
X42226Y152925D01*
X42226Y150525D01*
X42262Y150478D01*
X42269Y150483D01*
X42275Y150476D01*
X50075Y150476D01*
X50122Y150512D01*
G37*
G36*
X91122Y145512D02*
X91122Y145512D01*
X91117Y145519D01*
X91124Y145525D01*
X91124Y147925D01*
X91088Y147972D01*
X91081Y147967D01*
X91075Y147974D01*
X83275Y147974D01*
X83228Y147938D01*
X83233Y147931D01*
X83226Y147925D01*
X83226Y145525D01*
X83262Y145478D01*
X83269Y145483D01*
X83275Y145476D01*
X91075Y145476D01*
X91122Y145512D01*
G37*
G36*
X50122Y145512D02*
X50122Y145512D01*
X50117Y145519D01*
X50124Y145525D01*
X50124Y147925D01*
X50088Y147972D01*
X50081Y147967D01*
X50075Y147974D01*
X42275Y147974D01*
X42228Y147938D01*
X42233Y147931D01*
X42226Y147925D01*
X42226Y145525D01*
X42262Y145478D01*
X42269Y145483D01*
X42275Y145476D01*
X50075Y145476D01*
X50122Y145512D01*
G37*
G36*
X75422Y165812D02*
X75422Y165812D01*
X75417Y165819D01*
X75424Y165825D01*
X75424Y173625D01*
X75388Y173672D01*
X75381Y173667D01*
X75375Y173674D01*
X72975Y173674D01*
X72928Y173638D01*
X72933Y173631D01*
X72926Y173625D01*
X72926Y165825D01*
X72962Y165778D01*
X72969Y165783D01*
X72975Y165776D01*
X75375Y165776D01*
X75422Y165812D01*
G37*
G36*
X60422Y165812D02*
X60422Y165812D01*
X60417Y165819D01*
X60424Y165825D01*
X60424Y173625D01*
X60388Y173672D01*
X60381Y173667D01*
X60375Y173674D01*
X57975Y173674D01*
X57928Y173638D01*
X57933Y173631D01*
X57926Y173625D01*
X57926Y165825D01*
X57962Y165778D01*
X57969Y165783D01*
X57975Y165776D01*
X60375Y165776D01*
X60422Y165812D01*
G37*
G36*
X91122Y140512D02*
X91122Y140512D01*
X91117Y140519D01*
X91124Y140525D01*
X91124Y142925D01*
X91088Y142972D01*
X91081Y142967D01*
X91075Y142974D01*
X83275Y142974D01*
X83228Y142938D01*
X83233Y142931D01*
X83226Y142925D01*
X83226Y140525D01*
X83262Y140478D01*
X83269Y140483D01*
X83275Y140476D01*
X91075Y140476D01*
X91122Y140512D01*
G37*
G36*
X50122Y140512D02*
X50122Y140512D01*
X50117Y140519D01*
X50124Y140525D01*
X50124Y142925D01*
X50088Y142972D01*
X50081Y142967D01*
X50075Y142974D01*
X42275Y142974D01*
X42228Y142938D01*
X42233Y142931D01*
X42226Y142925D01*
X42226Y140525D01*
X42262Y140478D01*
X42269Y140483D01*
X42275Y140476D01*
X50075Y140476D01*
X50122Y140512D01*
G37*
G36*
X50122Y135512D02*
X50122Y135512D01*
X50117Y135519D01*
X50124Y135525D01*
X50124Y137925D01*
X50088Y137972D01*
X50081Y137967D01*
X50075Y137974D01*
X42275Y137974D01*
X42228Y137938D01*
X42233Y137931D01*
X42226Y137925D01*
X42226Y135525D01*
X42262Y135478D01*
X42269Y135483D01*
X42275Y135476D01*
X50075Y135476D01*
X50122Y135512D01*
G37*
G36*
X91122Y135512D02*
X91122Y135512D01*
X91117Y135519D01*
X91124Y135525D01*
X91124Y137925D01*
X91088Y137972D01*
X91081Y137967D01*
X91075Y137974D01*
X83275Y137974D01*
X83228Y137938D01*
X83233Y137931D01*
X83226Y137925D01*
X83226Y135525D01*
X83262Y135478D01*
X83269Y135483D01*
X83275Y135476D01*
X91075Y135476D01*
X91122Y135512D01*
G37*
G36*
X70422Y124812D02*
X70422Y124812D01*
X70417Y124819D01*
X70424Y124825D01*
X70424Y132625D01*
X70388Y132672D01*
X70381Y132667D01*
X70375Y132674D01*
X67975Y132674D01*
X67928Y132638D01*
X67933Y132631D01*
X67926Y132625D01*
X67926Y124825D01*
X67962Y124778D01*
X67969Y124783D01*
X67975Y124776D01*
X70375Y124776D01*
X70422Y124812D01*
G37*
G36*
X75422Y124812D02*
X75422Y124812D01*
X75417Y124819D01*
X75424Y124825D01*
X75424Y132625D01*
X75388Y132672D01*
X75381Y132667D01*
X75375Y132674D01*
X72975Y132674D01*
X72928Y132638D01*
X72933Y132631D01*
X72926Y132625D01*
X72926Y124825D01*
X72962Y124778D01*
X72969Y124783D01*
X72975Y124776D01*
X75375Y124776D01*
X75422Y124812D01*
G37*
G36*
X80422Y124812D02*
X80422Y124812D01*
X80417Y124819D01*
X80424Y124825D01*
X80424Y132625D01*
X80388Y132672D01*
X80381Y132667D01*
X80375Y132674D01*
X77975Y132674D01*
X77928Y132638D01*
X77933Y132631D01*
X77926Y132625D01*
X77926Y124825D01*
X77962Y124778D01*
X77969Y124783D01*
X77975Y124776D01*
X80375Y124776D01*
X80422Y124812D01*
G37*
G36*
X55422Y124812D02*
X55422Y124812D01*
X55417Y124819D01*
X55424Y124825D01*
X55424Y132625D01*
X55388Y132672D01*
X55381Y132667D01*
X55375Y132674D01*
X52975Y132674D01*
X52928Y132638D01*
X52933Y132631D01*
X52926Y132625D01*
X52926Y124825D01*
X52962Y124778D01*
X52969Y124783D01*
X52975Y124776D01*
X55375Y124776D01*
X55422Y124812D01*
G37*
G36*
X60422Y124812D02*
X60422Y124812D01*
X60417Y124819D01*
X60424Y124825D01*
X60424Y132625D01*
X60388Y132672D01*
X60381Y132667D01*
X60375Y132674D01*
X57975Y132674D01*
X57928Y132638D01*
X57933Y132631D01*
X57926Y132625D01*
X57926Y124825D01*
X57962Y124778D01*
X57969Y124783D01*
X57975Y124776D01*
X60375Y124776D01*
X60422Y124812D01*
G37*
G36*
X65422Y124812D02*
X65422Y124812D01*
X65417Y124819D01*
X65424Y124825D01*
X65424Y132625D01*
X65388Y132672D01*
X65381Y132667D01*
X65375Y132674D01*
X62975Y132674D01*
X62928Y132638D01*
X62933Y132631D01*
X62926Y132625D01*
X62926Y124825D01*
X62962Y124778D01*
X62969Y124783D01*
X62975Y124776D01*
X65375Y124776D01*
X65422Y124812D01*
G37*
D10*
X383150Y44450D03*
X366150Y44450D03*
X383150Y73025D03*
X366150Y73025D03*
D11*
X466725Y56125D03*
X466725Y39125D03*
D12*
X431800Y55950D03*
X431800Y32950D03*
D13*
X317825Y302705D02*
X310825Y302705D01*
X317825Y302705D02*
X317825Y295705D01*
X310825Y295705D01*
X310825Y302705D01*
X310825Y298555D02*
X317825Y298555D01*
X317825Y301405D02*
X310825Y301405D01*
X310825Y320245D02*
X317825Y320245D01*
X317825Y313245D01*
X310825Y313245D01*
X310825Y320245D01*
X310825Y316095D02*
X317825Y316095D01*
X317825Y318945D02*
X310825Y318945D01*
D14*
X319625Y90950D03*
X319625Y103650D03*
X319625Y116350D03*
X319625Y129050D03*
X319625Y141750D03*
X319625Y154450D03*
X319625Y167150D03*
X319625Y179850D03*
X319625Y192550D03*
X319625Y205250D03*
X319625Y217950D03*
X319625Y230650D03*
X319625Y243350D03*
X319625Y256050D03*
D15*
X291775Y266050D03*
X279075Y266050D03*
X266375Y266050D03*
X253675Y266050D03*
X240975Y266050D03*
X228275Y266050D03*
X215575Y266050D03*
X202875Y266050D03*
X190175Y266050D03*
X177475Y266050D03*
D14*
X149625Y256050D03*
X149625Y243350D03*
X149625Y230650D03*
X149625Y217950D03*
X149625Y205250D03*
X149625Y192550D03*
X149625Y179850D03*
X149625Y167150D03*
X149625Y154450D03*
X149625Y141750D03*
X149625Y129050D03*
X149625Y116350D03*
X149625Y103650D03*
X149625Y90950D03*
D16*
X244625Y165950D03*
D17*
X45050Y234950D03*
X45050Y228450D03*
X45050Y241450D03*
X45050Y247950D03*
X45050Y221950D03*
D18*
X29300Y234950D03*
D19*
X76050Y86050D03*
X82550Y104450D03*
X89050Y104450D03*
X76050Y104450D03*
X82550Y86050D03*
X89050Y86050D03*
D11*
X22225Y143900D03*
X22225Y160900D03*
X117475Y100575D03*
X117475Y83575D03*
D10*
X80400Y60325D03*
X97400Y60325D03*
D11*
X22225Y102625D03*
X22225Y119625D03*
D10*
X383150Y114300D03*
X366150Y114300D03*
D11*
X279400Y299475D03*
X279400Y316475D03*
D20*
X527935Y146050D03*
X557915Y146050D03*
D11*
X88900Y268850D03*
X88900Y251850D03*
X466725Y74050D03*
X466725Y91050D03*
D21*
X61775Y81025D03*
X61775Y65025D03*
X20775Y65025D03*
X20775Y81025D03*
X223700Y315975D03*
X223700Y299975D03*
X182700Y299975D03*
X182700Y315975D03*
D22*
X502200Y146050D03*
X502200Y171450D03*
X412200Y171450D03*
X412200Y146050D03*
D23*
X432101Y76225D03*
X432101Y85725D03*
X432101Y95225D03*
X406099Y95225D03*
X406099Y76225D03*
D24*
X581350Y244475D03*
X581350Y219075D03*
X581350Y193675D03*
X581350Y168275D03*
X637850Y168275D03*
X637850Y193675D03*
X637850Y219075D03*
X637850Y244475D03*
D10*
X537600Y219075D03*
X554600Y219075D03*
X537600Y177800D03*
X554600Y177800D03*
D24*
X584525Y120650D03*
X584525Y95250D03*
X584525Y69850D03*
X584525Y44450D03*
X641025Y44450D03*
X641025Y69850D03*
X641025Y95250D03*
X641025Y120650D03*
D10*
X537600Y95250D03*
X554600Y95250D03*
X537600Y44450D03*
X554600Y44450D03*
D25*
X561975Y276550D03*
X587375Y276550D03*
X612775Y276550D03*
X638175Y276550D03*
X638175Y333050D03*
X612775Y333050D03*
X587375Y333050D03*
X561975Y333050D03*
D11*
X527050Y296300D03*
X527050Y313300D03*
D20*
X371475Y232660D03*
X371475Y262640D03*
M02*
