G04 EAGLE Gerber RS-274X export*
G75*
%MOMM*%
%FSLAX34Y34*%
%LPD*%
%INSilkscreen Top*%
%IPPOS*%
%AMOC8*
5,1,8,0,0,1.08239X$1,22.5*%
G01*
%ADD10C,0.152400*%
%ADD11C,0.254000*%
%ADD12C,0.101600*%
%ADD13C,0.127000*%
%ADD14C,0.203200*%
%ADD15C,0.100000*%
%ADD16C,0.200000*%
%ADD17C,0.200000*%
%ADD18C,0.050800*%
%ADD19C,0.508000*%
%ADD20C,0.254000*%
%ADD21C,0.025400*%


D10*
X10287Y333573D02*
X10287Y340797D01*
X10289Y340930D01*
X10295Y341062D01*
X10305Y341194D01*
X10318Y341326D01*
X10336Y341458D01*
X10357Y341588D01*
X10382Y341719D01*
X10411Y341848D01*
X10444Y341976D01*
X10480Y342104D01*
X10520Y342230D01*
X10564Y342355D01*
X10612Y342479D01*
X10663Y342601D01*
X10718Y342722D01*
X10776Y342841D01*
X10838Y342959D01*
X10903Y343074D01*
X10972Y343188D01*
X11043Y343299D01*
X11119Y343408D01*
X11197Y343515D01*
X11278Y343620D01*
X11363Y343722D01*
X11450Y343822D01*
X11540Y343919D01*
X11633Y344014D01*
X11729Y344105D01*
X11827Y344194D01*
X11928Y344280D01*
X12032Y344363D01*
X12138Y344443D01*
X12246Y344519D01*
X12356Y344593D01*
X12469Y344663D01*
X12583Y344730D01*
X12700Y344793D01*
X12818Y344853D01*
X12938Y344910D01*
X13060Y344963D01*
X13183Y345012D01*
X13307Y345058D01*
X13433Y345100D01*
X13560Y345138D01*
X13688Y345173D01*
X13817Y345204D01*
X13946Y345231D01*
X14077Y345254D01*
X14208Y345274D01*
X14340Y345289D01*
X14472Y345301D01*
X14604Y345309D01*
X14737Y345313D01*
X14869Y345313D01*
X15002Y345309D01*
X15134Y345301D01*
X15266Y345289D01*
X15398Y345274D01*
X15529Y345254D01*
X15660Y345231D01*
X15789Y345204D01*
X15918Y345173D01*
X16046Y345138D01*
X16173Y345100D01*
X16299Y345058D01*
X16423Y345012D01*
X16546Y344963D01*
X16668Y344910D01*
X16788Y344853D01*
X16906Y344793D01*
X17023Y344730D01*
X17137Y344663D01*
X17250Y344593D01*
X17360Y344519D01*
X17468Y344443D01*
X17574Y344363D01*
X17678Y344280D01*
X17779Y344194D01*
X17877Y344105D01*
X17973Y344014D01*
X18066Y343919D01*
X18156Y343822D01*
X18243Y343722D01*
X18328Y343620D01*
X18409Y343515D01*
X18487Y343408D01*
X18563Y343299D01*
X18634Y343188D01*
X18703Y343074D01*
X18768Y342959D01*
X18830Y342841D01*
X18888Y342722D01*
X18943Y342601D01*
X18994Y342479D01*
X19042Y342355D01*
X19086Y342230D01*
X19126Y342104D01*
X19162Y341976D01*
X19195Y341848D01*
X19224Y341719D01*
X19249Y341588D01*
X19270Y341458D01*
X19288Y341326D01*
X19301Y341194D01*
X19311Y341062D01*
X19317Y340930D01*
X19319Y340797D01*
X19318Y340797D02*
X19318Y333573D01*
X19319Y333573D02*
X19317Y333440D01*
X19311Y333308D01*
X19301Y333176D01*
X19288Y333044D01*
X19270Y332912D01*
X19249Y332782D01*
X19224Y332651D01*
X19195Y332522D01*
X19162Y332394D01*
X19126Y332266D01*
X19086Y332140D01*
X19042Y332015D01*
X18994Y331891D01*
X18943Y331769D01*
X18888Y331648D01*
X18830Y331529D01*
X18768Y331411D01*
X18703Y331296D01*
X18634Y331182D01*
X18563Y331071D01*
X18487Y330962D01*
X18409Y330855D01*
X18328Y330750D01*
X18243Y330648D01*
X18156Y330548D01*
X18066Y330451D01*
X17973Y330356D01*
X17877Y330265D01*
X17779Y330176D01*
X17678Y330090D01*
X17574Y330007D01*
X17468Y329927D01*
X17360Y329851D01*
X17250Y329777D01*
X17137Y329707D01*
X17023Y329640D01*
X16906Y329577D01*
X16788Y329517D01*
X16668Y329460D01*
X16546Y329407D01*
X16423Y329358D01*
X16299Y329312D01*
X16173Y329270D01*
X16046Y329232D01*
X15918Y329197D01*
X15789Y329166D01*
X15660Y329139D01*
X15529Y329116D01*
X15398Y329096D01*
X15266Y329081D01*
X15134Y329069D01*
X15002Y329061D01*
X14869Y329057D01*
X14737Y329057D01*
X14604Y329061D01*
X14472Y329069D01*
X14340Y329081D01*
X14208Y329096D01*
X14077Y329116D01*
X13946Y329139D01*
X13817Y329166D01*
X13688Y329197D01*
X13560Y329232D01*
X13433Y329270D01*
X13307Y329312D01*
X13183Y329358D01*
X13060Y329407D01*
X12938Y329460D01*
X12818Y329517D01*
X12700Y329577D01*
X12583Y329640D01*
X12469Y329707D01*
X12356Y329777D01*
X12246Y329851D01*
X12138Y329927D01*
X12032Y330007D01*
X11928Y330090D01*
X11827Y330176D01*
X11729Y330265D01*
X11633Y330356D01*
X11540Y330451D01*
X11450Y330548D01*
X11363Y330648D01*
X11278Y330750D01*
X11197Y330855D01*
X11119Y330962D01*
X11043Y331071D01*
X10972Y331182D01*
X10903Y331296D01*
X10838Y331411D01*
X10776Y331529D01*
X10718Y331648D01*
X10663Y331769D01*
X10612Y331891D01*
X10564Y332015D01*
X10520Y332140D01*
X10480Y332266D01*
X10444Y332394D01*
X10411Y332522D01*
X10382Y332651D01*
X10357Y332782D01*
X10336Y332912D01*
X10318Y333044D01*
X10305Y333176D01*
X10295Y333308D01*
X10289Y333440D01*
X10287Y333573D01*
X25258Y339894D02*
X28871Y329057D01*
X32483Y339894D01*
X40994Y329057D02*
X45509Y329057D01*
X40994Y329057D02*
X40893Y329059D01*
X40792Y329065D01*
X40691Y329074D01*
X40590Y329087D01*
X40490Y329104D01*
X40391Y329125D01*
X40293Y329149D01*
X40196Y329177D01*
X40099Y329209D01*
X40004Y329244D01*
X39911Y329283D01*
X39819Y329325D01*
X39728Y329371D01*
X39640Y329420D01*
X39553Y329472D01*
X39468Y329528D01*
X39385Y329586D01*
X39305Y329648D01*
X39227Y329713D01*
X39151Y329780D01*
X39078Y329850D01*
X39008Y329923D01*
X38941Y329999D01*
X38876Y330077D01*
X38814Y330157D01*
X38756Y330240D01*
X38700Y330325D01*
X38648Y330412D01*
X38599Y330500D01*
X38553Y330591D01*
X38511Y330683D01*
X38472Y330776D01*
X38437Y330871D01*
X38405Y330968D01*
X38377Y331065D01*
X38353Y331163D01*
X38332Y331262D01*
X38315Y331362D01*
X38302Y331463D01*
X38293Y331564D01*
X38287Y331665D01*
X38285Y331766D01*
X38284Y331766D02*
X38284Y336282D01*
X38285Y336282D02*
X38287Y336401D01*
X38293Y336521D01*
X38303Y336640D01*
X38317Y336758D01*
X38334Y336877D01*
X38356Y336994D01*
X38381Y337111D01*
X38411Y337226D01*
X38444Y337341D01*
X38481Y337455D01*
X38521Y337567D01*
X38566Y337678D01*
X38614Y337787D01*
X38665Y337895D01*
X38720Y338001D01*
X38779Y338105D01*
X38841Y338207D01*
X38906Y338307D01*
X38975Y338405D01*
X39047Y338501D01*
X39122Y338594D01*
X39199Y338684D01*
X39280Y338772D01*
X39364Y338857D01*
X39451Y338939D01*
X39540Y339019D01*
X39632Y339095D01*
X39726Y339169D01*
X39823Y339239D01*
X39921Y339306D01*
X40022Y339370D01*
X40126Y339430D01*
X40231Y339487D01*
X40338Y339540D01*
X40446Y339590D01*
X40556Y339636D01*
X40668Y339678D01*
X40781Y339717D01*
X40895Y339752D01*
X41010Y339783D01*
X41127Y339811D01*
X41244Y339834D01*
X41361Y339854D01*
X41480Y339870D01*
X41599Y339882D01*
X41718Y339890D01*
X41837Y339894D01*
X41957Y339894D01*
X42076Y339890D01*
X42195Y339882D01*
X42314Y339870D01*
X42433Y339854D01*
X42550Y339834D01*
X42667Y339811D01*
X42784Y339783D01*
X42899Y339752D01*
X43013Y339717D01*
X43126Y339678D01*
X43238Y339636D01*
X43348Y339590D01*
X43456Y339540D01*
X43563Y339487D01*
X43668Y339430D01*
X43772Y339370D01*
X43873Y339306D01*
X43971Y339239D01*
X44068Y339169D01*
X44162Y339095D01*
X44254Y339019D01*
X44343Y338939D01*
X44430Y338857D01*
X44514Y338772D01*
X44595Y338684D01*
X44672Y338594D01*
X44747Y338501D01*
X44819Y338405D01*
X44888Y338307D01*
X44953Y338207D01*
X45015Y338105D01*
X45074Y338001D01*
X45129Y337895D01*
X45180Y337787D01*
X45228Y337678D01*
X45273Y337567D01*
X45313Y337455D01*
X45350Y337341D01*
X45383Y337226D01*
X45413Y337111D01*
X45438Y336994D01*
X45460Y336877D01*
X45477Y336758D01*
X45491Y336640D01*
X45501Y336521D01*
X45507Y336401D01*
X45509Y336282D01*
X45509Y334476D01*
X38284Y334476D01*
X52352Y329057D02*
X52352Y339894D01*
X56868Y339894D01*
X56972Y339892D01*
X57075Y339886D01*
X57179Y339876D01*
X57282Y339862D01*
X57384Y339844D01*
X57485Y339823D01*
X57586Y339797D01*
X57685Y339768D01*
X57784Y339735D01*
X57881Y339698D01*
X57976Y339657D01*
X58070Y339613D01*
X58162Y339565D01*
X58252Y339514D01*
X58341Y339459D01*
X58427Y339401D01*
X58510Y339339D01*
X58592Y339275D01*
X58670Y339207D01*
X58746Y339137D01*
X58820Y339064D01*
X58890Y338987D01*
X58958Y338909D01*
X59022Y338827D01*
X59084Y338744D01*
X59142Y338658D01*
X59197Y338569D01*
X59248Y338479D01*
X59296Y338387D01*
X59340Y338293D01*
X59381Y338198D01*
X59418Y338101D01*
X59451Y338002D01*
X59480Y337903D01*
X59506Y337802D01*
X59527Y337701D01*
X59545Y337599D01*
X59559Y337496D01*
X59569Y337392D01*
X59575Y337289D01*
X59577Y337185D01*
X59577Y329057D01*
X78469Y329057D02*
X82081Y329057D01*
X78469Y329057D02*
X78351Y329059D01*
X78233Y329065D01*
X78115Y329074D01*
X77998Y329088D01*
X77881Y329105D01*
X77764Y329126D01*
X77649Y329151D01*
X77534Y329180D01*
X77420Y329213D01*
X77308Y329249D01*
X77197Y329289D01*
X77087Y329332D01*
X76978Y329379D01*
X76871Y329429D01*
X76766Y329484D01*
X76663Y329541D01*
X76562Y329602D01*
X76462Y329666D01*
X76365Y329733D01*
X76270Y329803D01*
X76178Y329877D01*
X76087Y329953D01*
X76000Y330033D01*
X75915Y330115D01*
X75833Y330200D01*
X75753Y330287D01*
X75677Y330378D01*
X75603Y330470D01*
X75533Y330565D01*
X75466Y330662D01*
X75402Y330762D01*
X75341Y330863D01*
X75284Y330966D01*
X75229Y331071D01*
X75179Y331178D01*
X75132Y331287D01*
X75089Y331397D01*
X75049Y331508D01*
X75013Y331620D01*
X74980Y331734D01*
X74951Y331849D01*
X74926Y331964D01*
X74905Y332081D01*
X74888Y332198D01*
X74874Y332315D01*
X74865Y332433D01*
X74859Y332551D01*
X74857Y332669D01*
X74856Y332669D02*
X74856Y341701D01*
X74857Y341701D02*
X74859Y341819D01*
X74865Y341937D01*
X74874Y342055D01*
X74888Y342172D01*
X74905Y342289D01*
X74926Y342406D01*
X74951Y342521D01*
X74980Y342636D01*
X75013Y342750D01*
X75049Y342862D01*
X75089Y342973D01*
X75132Y343083D01*
X75179Y343192D01*
X75229Y343299D01*
X75283Y343404D01*
X75341Y343507D01*
X75402Y343608D01*
X75466Y343708D01*
X75533Y343805D01*
X75603Y343900D01*
X75677Y343992D01*
X75753Y344083D01*
X75833Y344170D01*
X75915Y344255D01*
X76000Y344337D01*
X76087Y344417D01*
X76178Y344493D01*
X76270Y344567D01*
X76365Y344637D01*
X76462Y344704D01*
X76562Y344768D01*
X76663Y344829D01*
X76766Y344886D01*
X76871Y344940D01*
X76978Y344991D01*
X77087Y345038D01*
X77197Y345081D01*
X77308Y345121D01*
X77420Y345157D01*
X77534Y345190D01*
X77649Y345219D01*
X77764Y345244D01*
X77881Y345265D01*
X77998Y345282D01*
X78115Y345296D01*
X78233Y345305D01*
X78351Y345311D01*
X78469Y345313D01*
X82081Y345313D01*
X87783Y336282D02*
X87783Y332669D01*
X87783Y336282D02*
X87785Y336401D01*
X87791Y336521D01*
X87801Y336640D01*
X87815Y336758D01*
X87832Y336877D01*
X87854Y336994D01*
X87879Y337111D01*
X87909Y337226D01*
X87942Y337341D01*
X87979Y337455D01*
X88019Y337567D01*
X88064Y337678D01*
X88112Y337787D01*
X88163Y337895D01*
X88218Y338001D01*
X88277Y338105D01*
X88339Y338207D01*
X88404Y338307D01*
X88473Y338405D01*
X88545Y338501D01*
X88620Y338594D01*
X88697Y338684D01*
X88778Y338772D01*
X88862Y338857D01*
X88949Y338939D01*
X89038Y339019D01*
X89130Y339095D01*
X89224Y339169D01*
X89321Y339239D01*
X89419Y339306D01*
X89520Y339370D01*
X89624Y339430D01*
X89729Y339487D01*
X89836Y339540D01*
X89944Y339590D01*
X90054Y339636D01*
X90166Y339678D01*
X90279Y339717D01*
X90393Y339752D01*
X90508Y339783D01*
X90625Y339811D01*
X90742Y339834D01*
X90859Y339854D01*
X90978Y339870D01*
X91097Y339882D01*
X91216Y339890D01*
X91335Y339894D01*
X91455Y339894D01*
X91574Y339890D01*
X91693Y339882D01*
X91812Y339870D01*
X91931Y339854D01*
X92048Y339834D01*
X92165Y339811D01*
X92282Y339783D01*
X92397Y339752D01*
X92511Y339717D01*
X92624Y339678D01*
X92736Y339636D01*
X92846Y339590D01*
X92954Y339540D01*
X93061Y339487D01*
X93166Y339430D01*
X93270Y339370D01*
X93371Y339306D01*
X93469Y339239D01*
X93566Y339169D01*
X93660Y339095D01*
X93752Y339019D01*
X93841Y338939D01*
X93928Y338857D01*
X94012Y338772D01*
X94093Y338684D01*
X94170Y338594D01*
X94245Y338501D01*
X94317Y338405D01*
X94386Y338307D01*
X94451Y338207D01*
X94513Y338105D01*
X94572Y338001D01*
X94627Y337895D01*
X94678Y337787D01*
X94726Y337678D01*
X94771Y337567D01*
X94811Y337455D01*
X94848Y337341D01*
X94881Y337226D01*
X94911Y337111D01*
X94936Y336994D01*
X94958Y336877D01*
X94975Y336758D01*
X94989Y336640D01*
X94999Y336521D01*
X95005Y336401D01*
X95007Y336282D01*
X95008Y336282D02*
X95008Y332669D01*
X95007Y332669D02*
X95005Y332550D01*
X94999Y332430D01*
X94989Y332311D01*
X94975Y332193D01*
X94958Y332074D01*
X94936Y331957D01*
X94911Y331840D01*
X94881Y331725D01*
X94848Y331610D01*
X94811Y331496D01*
X94771Y331384D01*
X94726Y331273D01*
X94678Y331164D01*
X94627Y331056D01*
X94572Y330950D01*
X94513Y330846D01*
X94451Y330744D01*
X94386Y330644D01*
X94317Y330546D01*
X94245Y330450D01*
X94170Y330357D01*
X94093Y330267D01*
X94012Y330179D01*
X93928Y330094D01*
X93841Y330012D01*
X93752Y329932D01*
X93660Y329856D01*
X93566Y329782D01*
X93469Y329712D01*
X93371Y329645D01*
X93270Y329581D01*
X93166Y329521D01*
X93061Y329464D01*
X92954Y329411D01*
X92846Y329361D01*
X92736Y329315D01*
X92624Y329273D01*
X92511Y329234D01*
X92397Y329199D01*
X92282Y329168D01*
X92165Y329140D01*
X92048Y329117D01*
X91931Y329097D01*
X91812Y329081D01*
X91693Y329069D01*
X91574Y329061D01*
X91455Y329057D01*
X91335Y329057D01*
X91216Y329061D01*
X91097Y329069D01*
X90978Y329081D01*
X90859Y329097D01*
X90742Y329117D01*
X90625Y329140D01*
X90508Y329168D01*
X90393Y329199D01*
X90279Y329234D01*
X90166Y329273D01*
X90054Y329315D01*
X89944Y329361D01*
X89836Y329411D01*
X89729Y329464D01*
X89624Y329521D01*
X89520Y329581D01*
X89419Y329645D01*
X89321Y329712D01*
X89224Y329782D01*
X89130Y329856D01*
X89038Y329932D01*
X88949Y330012D01*
X88862Y330094D01*
X88778Y330179D01*
X88697Y330267D01*
X88620Y330357D01*
X88545Y330450D01*
X88473Y330546D01*
X88404Y330644D01*
X88339Y330744D01*
X88277Y330846D01*
X88218Y330950D01*
X88163Y331056D01*
X88112Y331164D01*
X88064Y331273D01*
X88019Y331384D01*
X87979Y331496D01*
X87942Y331610D01*
X87909Y331725D01*
X87879Y331840D01*
X87854Y331957D01*
X87832Y332074D01*
X87815Y332193D01*
X87801Y332311D01*
X87791Y332430D01*
X87785Y332550D01*
X87783Y332669D01*
X101851Y329057D02*
X101851Y339894D01*
X106367Y339894D01*
X106471Y339892D01*
X106574Y339886D01*
X106678Y339876D01*
X106781Y339862D01*
X106883Y339844D01*
X106984Y339823D01*
X107085Y339797D01*
X107184Y339768D01*
X107283Y339735D01*
X107380Y339698D01*
X107475Y339657D01*
X107569Y339613D01*
X107661Y339565D01*
X107751Y339514D01*
X107840Y339459D01*
X107926Y339401D01*
X108009Y339339D01*
X108091Y339275D01*
X108169Y339207D01*
X108245Y339137D01*
X108319Y339064D01*
X108389Y338987D01*
X108457Y338909D01*
X108521Y338827D01*
X108583Y338744D01*
X108641Y338658D01*
X108696Y338569D01*
X108747Y338479D01*
X108795Y338387D01*
X108839Y338293D01*
X108880Y338198D01*
X108917Y338101D01*
X108950Y338002D01*
X108979Y337903D01*
X109005Y337802D01*
X109026Y337701D01*
X109044Y337599D01*
X109058Y337496D01*
X109068Y337392D01*
X109074Y337289D01*
X109076Y337185D01*
X109076Y329057D01*
X114622Y339894D02*
X120041Y339894D01*
X116428Y345313D02*
X116428Y331766D01*
X116430Y331665D01*
X116436Y331564D01*
X116445Y331463D01*
X116458Y331362D01*
X116475Y331262D01*
X116496Y331163D01*
X116520Y331065D01*
X116548Y330968D01*
X116580Y330871D01*
X116615Y330776D01*
X116654Y330683D01*
X116696Y330591D01*
X116742Y330500D01*
X116791Y330412D01*
X116843Y330325D01*
X116899Y330240D01*
X116957Y330157D01*
X117019Y330077D01*
X117084Y329999D01*
X117151Y329923D01*
X117221Y329850D01*
X117294Y329780D01*
X117370Y329713D01*
X117448Y329648D01*
X117528Y329586D01*
X117611Y329528D01*
X117696Y329472D01*
X117783Y329420D01*
X117871Y329371D01*
X117962Y329325D01*
X118054Y329283D01*
X118147Y329244D01*
X118242Y329209D01*
X118339Y329177D01*
X118436Y329149D01*
X118534Y329125D01*
X118633Y329104D01*
X118733Y329087D01*
X118834Y329074D01*
X118935Y329065D01*
X119036Y329059D01*
X119137Y329057D01*
X120041Y329057D01*
X126425Y329057D02*
X126425Y339894D01*
X131844Y339894D01*
X131844Y338088D01*
X136761Y336282D02*
X136761Y332669D01*
X136761Y336282D02*
X136763Y336401D01*
X136769Y336521D01*
X136779Y336640D01*
X136793Y336758D01*
X136810Y336877D01*
X136832Y336994D01*
X136857Y337111D01*
X136887Y337226D01*
X136920Y337341D01*
X136957Y337455D01*
X136997Y337567D01*
X137042Y337678D01*
X137090Y337787D01*
X137141Y337895D01*
X137196Y338001D01*
X137255Y338105D01*
X137317Y338207D01*
X137382Y338307D01*
X137451Y338405D01*
X137523Y338501D01*
X137598Y338594D01*
X137675Y338684D01*
X137756Y338772D01*
X137840Y338857D01*
X137927Y338939D01*
X138016Y339019D01*
X138108Y339095D01*
X138202Y339169D01*
X138299Y339239D01*
X138397Y339306D01*
X138498Y339370D01*
X138602Y339430D01*
X138707Y339487D01*
X138814Y339540D01*
X138922Y339590D01*
X139032Y339636D01*
X139144Y339678D01*
X139257Y339717D01*
X139371Y339752D01*
X139486Y339783D01*
X139603Y339811D01*
X139720Y339834D01*
X139837Y339854D01*
X139956Y339870D01*
X140075Y339882D01*
X140194Y339890D01*
X140313Y339894D01*
X140433Y339894D01*
X140552Y339890D01*
X140671Y339882D01*
X140790Y339870D01*
X140909Y339854D01*
X141026Y339834D01*
X141143Y339811D01*
X141260Y339783D01*
X141375Y339752D01*
X141489Y339717D01*
X141602Y339678D01*
X141714Y339636D01*
X141824Y339590D01*
X141932Y339540D01*
X142039Y339487D01*
X142144Y339430D01*
X142248Y339370D01*
X142349Y339306D01*
X142447Y339239D01*
X142544Y339169D01*
X142638Y339095D01*
X142730Y339019D01*
X142819Y338939D01*
X142906Y338857D01*
X142990Y338772D01*
X143071Y338684D01*
X143148Y338594D01*
X143223Y338501D01*
X143295Y338405D01*
X143364Y338307D01*
X143429Y338207D01*
X143491Y338105D01*
X143550Y338001D01*
X143605Y337895D01*
X143656Y337787D01*
X143704Y337678D01*
X143749Y337567D01*
X143789Y337455D01*
X143826Y337341D01*
X143859Y337226D01*
X143889Y337111D01*
X143914Y336994D01*
X143936Y336877D01*
X143953Y336758D01*
X143967Y336640D01*
X143977Y336521D01*
X143983Y336401D01*
X143985Y336282D01*
X143986Y336282D02*
X143986Y332669D01*
X143985Y332669D02*
X143983Y332550D01*
X143977Y332430D01*
X143967Y332311D01*
X143953Y332193D01*
X143936Y332074D01*
X143914Y331957D01*
X143889Y331840D01*
X143859Y331725D01*
X143826Y331610D01*
X143789Y331496D01*
X143749Y331384D01*
X143704Y331273D01*
X143656Y331164D01*
X143605Y331056D01*
X143550Y330950D01*
X143491Y330846D01*
X143429Y330744D01*
X143364Y330644D01*
X143295Y330546D01*
X143223Y330450D01*
X143148Y330357D01*
X143071Y330267D01*
X142990Y330179D01*
X142906Y330094D01*
X142819Y330012D01*
X142730Y329932D01*
X142638Y329856D01*
X142544Y329782D01*
X142447Y329712D01*
X142349Y329645D01*
X142248Y329581D01*
X142144Y329521D01*
X142039Y329464D01*
X141932Y329411D01*
X141824Y329361D01*
X141714Y329315D01*
X141602Y329273D01*
X141489Y329234D01*
X141375Y329199D01*
X141260Y329168D01*
X141143Y329140D01*
X141026Y329117D01*
X140909Y329097D01*
X140790Y329081D01*
X140671Y329069D01*
X140552Y329061D01*
X140433Y329057D01*
X140313Y329057D01*
X140194Y329061D01*
X140075Y329069D01*
X139956Y329081D01*
X139837Y329097D01*
X139720Y329117D01*
X139603Y329140D01*
X139486Y329168D01*
X139371Y329199D01*
X139257Y329234D01*
X139144Y329273D01*
X139032Y329315D01*
X138922Y329361D01*
X138814Y329411D01*
X138707Y329464D01*
X138602Y329521D01*
X138498Y329581D01*
X138397Y329645D01*
X138299Y329712D01*
X138202Y329782D01*
X138108Y329856D01*
X138016Y329932D01*
X137927Y330012D01*
X137840Y330094D01*
X137756Y330179D01*
X137675Y330267D01*
X137598Y330357D01*
X137523Y330450D01*
X137451Y330546D01*
X137382Y330644D01*
X137317Y330744D01*
X137255Y330846D01*
X137196Y330950D01*
X137141Y331056D01*
X137090Y331164D01*
X137042Y331273D01*
X136997Y331384D01*
X136957Y331496D01*
X136920Y331610D01*
X136887Y331725D01*
X136857Y331840D01*
X136832Y331957D01*
X136810Y332074D01*
X136793Y332193D01*
X136779Y332311D01*
X136769Y332430D01*
X136763Y332550D01*
X136761Y332669D01*
X150545Y331766D02*
X150545Y345313D01*
X150545Y331766D02*
X150547Y331665D01*
X150553Y331564D01*
X150562Y331463D01*
X150575Y331362D01*
X150592Y331262D01*
X150613Y331163D01*
X150637Y331065D01*
X150665Y330968D01*
X150697Y330871D01*
X150732Y330776D01*
X150771Y330683D01*
X150813Y330591D01*
X150859Y330500D01*
X150908Y330412D01*
X150960Y330325D01*
X151016Y330240D01*
X151074Y330157D01*
X151136Y330077D01*
X151201Y329999D01*
X151268Y329923D01*
X151338Y329850D01*
X151411Y329780D01*
X151487Y329713D01*
X151565Y329648D01*
X151645Y329586D01*
X151728Y329528D01*
X151813Y329472D01*
X151900Y329420D01*
X151988Y329371D01*
X152079Y329325D01*
X152171Y329283D01*
X152264Y329244D01*
X152359Y329209D01*
X152456Y329177D01*
X152553Y329149D01*
X152651Y329125D01*
X152750Y329104D01*
X152850Y329087D01*
X152951Y329074D01*
X153052Y329065D01*
X153153Y329059D01*
X153254Y329057D01*
X158881Y331766D02*
X158881Y345313D01*
X158882Y331766D02*
X158884Y331665D01*
X158890Y331564D01*
X158899Y331463D01*
X158912Y331362D01*
X158929Y331262D01*
X158950Y331163D01*
X158974Y331065D01*
X159002Y330968D01*
X159034Y330871D01*
X159069Y330776D01*
X159108Y330683D01*
X159150Y330591D01*
X159196Y330500D01*
X159245Y330412D01*
X159297Y330325D01*
X159353Y330240D01*
X159411Y330157D01*
X159473Y330077D01*
X159538Y329999D01*
X159605Y329923D01*
X159675Y329850D01*
X159748Y329780D01*
X159824Y329713D01*
X159902Y329648D01*
X159982Y329586D01*
X160065Y329528D01*
X160150Y329472D01*
X160237Y329420D01*
X160325Y329371D01*
X160416Y329325D01*
X160508Y329283D01*
X160601Y329244D01*
X160696Y329209D01*
X160793Y329177D01*
X160890Y329149D01*
X160988Y329125D01*
X161087Y329104D01*
X161187Y329087D01*
X161288Y329074D01*
X161389Y329065D01*
X161490Y329059D01*
X161591Y329057D01*
X169690Y329057D02*
X174206Y329057D01*
X169690Y329057D02*
X169589Y329059D01*
X169488Y329065D01*
X169387Y329074D01*
X169286Y329087D01*
X169186Y329104D01*
X169087Y329125D01*
X168989Y329149D01*
X168892Y329177D01*
X168795Y329209D01*
X168700Y329244D01*
X168607Y329283D01*
X168515Y329325D01*
X168424Y329371D01*
X168336Y329420D01*
X168249Y329472D01*
X168164Y329528D01*
X168081Y329586D01*
X168001Y329648D01*
X167923Y329713D01*
X167847Y329780D01*
X167774Y329850D01*
X167704Y329923D01*
X167637Y329999D01*
X167572Y330077D01*
X167510Y330157D01*
X167452Y330240D01*
X167396Y330325D01*
X167344Y330412D01*
X167295Y330500D01*
X167249Y330591D01*
X167207Y330683D01*
X167168Y330776D01*
X167133Y330871D01*
X167101Y330968D01*
X167073Y331065D01*
X167049Y331163D01*
X167028Y331262D01*
X167011Y331362D01*
X166998Y331463D01*
X166989Y331564D01*
X166983Y331665D01*
X166981Y331766D01*
X166981Y336282D01*
X166982Y336282D02*
X166984Y336401D01*
X166990Y336521D01*
X167000Y336640D01*
X167014Y336758D01*
X167031Y336877D01*
X167053Y336994D01*
X167078Y337111D01*
X167108Y337226D01*
X167141Y337341D01*
X167178Y337455D01*
X167218Y337567D01*
X167263Y337678D01*
X167311Y337787D01*
X167362Y337895D01*
X167417Y338001D01*
X167476Y338105D01*
X167538Y338207D01*
X167603Y338307D01*
X167672Y338405D01*
X167744Y338501D01*
X167819Y338594D01*
X167896Y338684D01*
X167977Y338772D01*
X168061Y338857D01*
X168148Y338939D01*
X168237Y339019D01*
X168329Y339095D01*
X168423Y339169D01*
X168520Y339239D01*
X168618Y339306D01*
X168719Y339370D01*
X168823Y339430D01*
X168928Y339487D01*
X169035Y339540D01*
X169143Y339590D01*
X169253Y339636D01*
X169365Y339678D01*
X169478Y339717D01*
X169592Y339752D01*
X169707Y339783D01*
X169824Y339811D01*
X169941Y339834D01*
X170058Y339854D01*
X170177Y339870D01*
X170296Y339882D01*
X170415Y339890D01*
X170534Y339894D01*
X170654Y339894D01*
X170773Y339890D01*
X170892Y339882D01*
X171011Y339870D01*
X171130Y339854D01*
X171247Y339834D01*
X171364Y339811D01*
X171481Y339783D01*
X171596Y339752D01*
X171710Y339717D01*
X171823Y339678D01*
X171935Y339636D01*
X172045Y339590D01*
X172153Y339540D01*
X172260Y339487D01*
X172365Y339430D01*
X172469Y339370D01*
X172570Y339306D01*
X172668Y339239D01*
X172765Y339169D01*
X172859Y339095D01*
X172951Y339019D01*
X173040Y338939D01*
X173127Y338857D01*
X173211Y338772D01*
X173292Y338684D01*
X173369Y338594D01*
X173444Y338501D01*
X173516Y338405D01*
X173585Y338307D01*
X173650Y338207D01*
X173712Y338105D01*
X173771Y338001D01*
X173826Y337895D01*
X173877Y337787D01*
X173925Y337678D01*
X173970Y337567D01*
X174010Y337455D01*
X174047Y337341D01*
X174080Y337226D01*
X174110Y337111D01*
X174135Y336994D01*
X174157Y336877D01*
X174174Y336758D01*
X174188Y336640D01*
X174198Y336521D01*
X174204Y336401D01*
X174206Y336282D01*
X174206Y334476D01*
X166981Y334476D01*
X181134Y329057D02*
X181134Y339894D01*
X186553Y339894D01*
X186553Y338088D01*
X199286Y339894D02*
X202898Y329057D01*
X206511Y339894D01*
X212451Y341701D02*
X216966Y345313D01*
X216966Y329057D01*
X212451Y329057D02*
X221482Y329057D01*
X227456Y329057D02*
X227456Y329960D01*
X228360Y329960D01*
X228360Y329057D01*
X227456Y329057D01*
X234334Y337185D02*
X234338Y337505D01*
X234349Y337824D01*
X234368Y338144D01*
X234395Y338462D01*
X234429Y338780D01*
X234471Y339097D01*
X234521Y339413D01*
X234578Y339728D01*
X234642Y340041D01*
X234714Y340353D01*
X234793Y340663D01*
X234880Y340970D01*
X234974Y341276D01*
X235075Y341579D01*
X235184Y341880D01*
X235299Y342178D01*
X235422Y342474D01*
X235552Y342766D01*
X235689Y343055D01*
X235689Y343056D02*
X235728Y343164D01*
X235771Y343271D01*
X235817Y343376D01*
X235868Y343480D01*
X235921Y343582D01*
X235978Y343682D01*
X236039Y343780D01*
X236103Y343875D01*
X236170Y343969D01*
X236241Y344060D01*
X236314Y344149D01*
X236391Y344235D01*
X236470Y344318D01*
X236552Y344399D01*
X236637Y344477D01*
X236725Y344551D01*
X236815Y344623D01*
X236907Y344691D01*
X237002Y344757D01*
X237099Y344819D01*
X237198Y344877D01*
X237300Y344933D01*
X237402Y344984D01*
X237507Y345032D01*
X237613Y345077D01*
X237721Y345118D01*
X237830Y345155D01*
X237940Y345188D01*
X238052Y345217D01*
X238164Y345243D01*
X238277Y345265D01*
X238391Y345282D01*
X238505Y345296D01*
X238620Y345306D01*
X238735Y345312D01*
X238850Y345314D01*
X238850Y345313D02*
X238965Y345311D01*
X239080Y345305D01*
X239195Y345295D01*
X239309Y345281D01*
X239423Y345264D01*
X239536Y345242D01*
X239648Y345216D01*
X239760Y345187D01*
X239870Y345154D01*
X239979Y345117D01*
X240087Y345076D01*
X240193Y345031D01*
X240298Y344983D01*
X240400Y344932D01*
X240501Y344876D01*
X240601Y344818D01*
X240698Y344756D01*
X240792Y344691D01*
X240885Y344622D01*
X240975Y344550D01*
X241063Y344476D01*
X241148Y344398D01*
X241230Y344317D01*
X241309Y344234D01*
X241386Y344148D01*
X241459Y344059D01*
X241530Y343968D01*
X241597Y343874D01*
X241661Y343779D01*
X241722Y343681D01*
X241779Y343581D01*
X241832Y343479D01*
X241883Y343375D01*
X241929Y343270D01*
X241972Y343163D01*
X242011Y343055D01*
X242010Y343055D02*
X242147Y342766D01*
X242277Y342474D01*
X242400Y342178D01*
X242515Y341880D01*
X242624Y341579D01*
X242725Y341276D01*
X242819Y340970D01*
X242906Y340663D01*
X242985Y340353D01*
X243057Y340041D01*
X243121Y339728D01*
X243178Y339413D01*
X243228Y339097D01*
X243270Y338780D01*
X243304Y338462D01*
X243331Y338144D01*
X243350Y337824D01*
X243361Y337505D01*
X243365Y337185D01*
X234335Y337185D02*
X234339Y336865D01*
X234350Y336546D01*
X234369Y336226D01*
X234396Y335908D01*
X234430Y335590D01*
X234472Y335273D01*
X234522Y334957D01*
X234579Y334642D01*
X234643Y334329D01*
X234715Y334017D01*
X234794Y333707D01*
X234881Y333400D01*
X234975Y333094D01*
X235076Y332791D01*
X235185Y332490D01*
X235300Y332192D01*
X235423Y331896D01*
X235553Y331604D01*
X235690Y331315D01*
X235689Y331315D02*
X235728Y331207D01*
X235771Y331100D01*
X235817Y330995D01*
X235868Y330891D01*
X235921Y330789D01*
X235978Y330689D01*
X236039Y330591D01*
X236103Y330496D01*
X236170Y330402D01*
X236241Y330311D01*
X236314Y330222D01*
X236391Y330136D01*
X236470Y330053D01*
X236552Y329972D01*
X236637Y329894D01*
X236725Y329820D01*
X236815Y329748D01*
X236908Y329679D01*
X237002Y329614D01*
X237099Y329552D01*
X237199Y329494D01*
X237300Y329438D01*
X237402Y329387D01*
X237507Y329339D01*
X237613Y329294D01*
X237721Y329253D01*
X237830Y329216D01*
X237940Y329183D01*
X238052Y329154D01*
X238164Y329128D01*
X238277Y329106D01*
X238391Y329089D01*
X238505Y329075D01*
X238620Y329065D01*
X238735Y329059D01*
X238850Y329057D01*
X242010Y331315D02*
X242147Y331604D01*
X242277Y331896D01*
X242400Y332192D01*
X242515Y332490D01*
X242624Y332791D01*
X242725Y333094D01*
X242819Y333400D01*
X242906Y333707D01*
X242985Y334017D01*
X243057Y334329D01*
X243121Y334642D01*
X243178Y334957D01*
X243228Y335273D01*
X243270Y335590D01*
X243304Y335908D01*
X243331Y336226D01*
X243350Y336546D01*
X243361Y336865D01*
X243365Y337185D01*
X242011Y331315D02*
X241972Y331207D01*
X241929Y331100D01*
X241883Y330995D01*
X241832Y330891D01*
X241779Y330789D01*
X241722Y330689D01*
X241661Y330591D01*
X241597Y330496D01*
X241530Y330402D01*
X241459Y330311D01*
X241386Y330222D01*
X241309Y330136D01*
X241230Y330053D01*
X241148Y329972D01*
X241063Y329894D01*
X240975Y329820D01*
X240885Y329748D01*
X240792Y329679D01*
X240698Y329614D01*
X240601Y329552D01*
X240501Y329494D01*
X240400Y329438D01*
X240297Y329387D01*
X240193Y329339D01*
X240087Y329294D01*
X239979Y329253D01*
X239870Y329216D01*
X239760Y329183D01*
X239648Y329154D01*
X239536Y329128D01*
X239423Y329106D01*
X239309Y329089D01*
X239195Y329075D01*
X239080Y329065D01*
X238965Y329059D01*
X238850Y329057D01*
X235237Y332669D02*
X242462Y341701D01*
X14803Y318643D02*
X14803Y302387D01*
X10287Y318643D02*
X19318Y318643D01*
X25258Y318643D02*
X25258Y302387D01*
X25258Y313224D02*
X29774Y313224D01*
X29878Y313222D01*
X29981Y313216D01*
X30085Y313206D01*
X30188Y313192D01*
X30290Y313174D01*
X30391Y313153D01*
X30492Y313127D01*
X30591Y313098D01*
X30690Y313065D01*
X30787Y313028D01*
X30882Y312987D01*
X30976Y312943D01*
X31068Y312895D01*
X31158Y312844D01*
X31247Y312789D01*
X31333Y312731D01*
X31416Y312669D01*
X31498Y312605D01*
X31576Y312537D01*
X31652Y312467D01*
X31726Y312394D01*
X31796Y312317D01*
X31864Y312239D01*
X31928Y312157D01*
X31990Y312074D01*
X32048Y311988D01*
X32103Y311899D01*
X32154Y311809D01*
X32202Y311717D01*
X32246Y311623D01*
X32287Y311528D01*
X32324Y311431D01*
X32357Y311332D01*
X32386Y311233D01*
X32412Y311132D01*
X32433Y311031D01*
X32451Y310929D01*
X32465Y310826D01*
X32475Y310722D01*
X32481Y310619D01*
X32483Y310515D01*
X32483Y302387D01*
X39326Y305999D02*
X39326Y309612D01*
X39327Y309612D02*
X39329Y309731D01*
X39335Y309851D01*
X39345Y309970D01*
X39359Y310088D01*
X39376Y310207D01*
X39398Y310324D01*
X39423Y310441D01*
X39453Y310556D01*
X39486Y310671D01*
X39523Y310785D01*
X39563Y310897D01*
X39608Y311008D01*
X39656Y311117D01*
X39707Y311225D01*
X39762Y311331D01*
X39821Y311435D01*
X39883Y311537D01*
X39948Y311637D01*
X40017Y311735D01*
X40089Y311831D01*
X40164Y311924D01*
X40241Y312014D01*
X40322Y312102D01*
X40406Y312187D01*
X40493Y312269D01*
X40582Y312349D01*
X40674Y312425D01*
X40768Y312499D01*
X40865Y312569D01*
X40963Y312636D01*
X41064Y312700D01*
X41168Y312760D01*
X41273Y312817D01*
X41380Y312870D01*
X41488Y312920D01*
X41598Y312966D01*
X41710Y313008D01*
X41823Y313047D01*
X41937Y313082D01*
X42052Y313113D01*
X42169Y313141D01*
X42286Y313164D01*
X42403Y313184D01*
X42522Y313200D01*
X42641Y313212D01*
X42760Y313220D01*
X42879Y313224D01*
X42999Y313224D01*
X43118Y313220D01*
X43237Y313212D01*
X43356Y313200D01*
X43475Y313184D01*
X43592Y313164D01*
X43709Y313141D01*
X43826Y313113D01*
X43941Y313082D01*
X44055Y313047D01*
X44168Y313008D01*
X44280Y312966D01*
X44390Y312920D01*
X44498Y312870D01*
X44605Y312817D01*
X44710Y312760D01*
X44814Y312700D01*
X44915Y312636D01*
X45013Y312569D01*
X45110Y312499D01*
X45204Y312425D01*
X45296Y312349D01*
X45385Y312269D01*
X45472Y312187D01*
X45556Y312102D01*
X45637Y312014D01*
X45714Y311924D01*
X45789Y311831D01*
X45861Y311735D01*
X45930Y311637D01*
X45995Y311537D01*
X46057Y311435D01*
X46116Y311331D01*
X46171Y311225D01*
X46222Y311117D01*
X46270Y311008D01*
X46315Y310897D01*
X46355Y310785D01*
X46392Y310671D01*
X46425Y310556D01*
X46455Y310441D01*
X46480Y310324D01*
X46502Y310207D01*
X46519Y310088D01*
X46533Y309970D01*
X46543Y309851D01*
X46549Y309731D01*
X46551Y309612D01*
X46551Y305999D01*
X46549Y305880D01*
X46543Y305760D01*
X46533Y305641D01*
X46519Y305523D01*
X46502Y305404D01*
X46480Y305287D01*
X46455Y305170D01*
X46425Y305055D01*
X46392Y304940D01*
X46355Y304826D01*
X46315Y304714D01*
X46270Y304603D01*
X46222Y304494D01*
X46171Y304386D01*
X46116Y304280D01*
X46057Y304176D01*
X45995Y304074D01*
X45930Y303974D01*
X45861Y303876D01*
X45789Y303780D01*
X45714Y303687D01*
X45637Y303597D01*
X45556Y303509D01*
X45472Y303424D01*
X45385Y303342D01*
X45296Y303262D01*
X45204Y303186D01*
X45110Y303112D01*
X45013Y303042D01*
X44915Y302975D01*
X44814Y302911D01*
X44710Y302851D01*
X44605Y302794D01*
X44498Y302741D01*
X44390Y302691D01*
X44280Y302645D01*
X44168Y302603D01*
X44055Y302564D01*
X43941Y302529D01*
X43826Y302498D01*
X43709Y302470D01*
X43592Y302447D01*
X43475Y302427D01*
X43356Y302411D01*
X43237Y302399D01*
X43118Y302391D01*
X42999Y302387D01*
X42879Y302387D01*
X42760Y302391D01*
X42641Y302399D01*
X42522Y302411D01*
X42403Y302427D01*
X42286Y302447D01*
X42169Y302470D01*
X42052Y302498D01*
X41937Y302529D01*
X41823Y302564D01*
X41710Y302603D01*
X41598Y302645D01*
X41488Y302691D01*
X41380Y302741D01*
X41273Y302794D01*
X41168Y302851D01*
X41064Y302911D01*
X40963Y302975D01*
X40865Y303042D01*
X40768Y303112D01*
X40674Y303186D01*
X40582Y303262D01*
X40493Y303342D01*
X40406Y303424D01*
X40322Y303509D01*
X40241Y303597D01*
X40164Y303687D01*
X40089Y303780D01*
X40017Y303876D01*
X39948Y303974D01*
X39883Y304074D01*
X39821Y304176D01*
X39762Y304280D01*
X39707Y304386D01*
X39656Y304494D01*
X39608Y304603D01*
X39563Y304714D01*
X39523Y304826D01*
X39486Y304940D01*
X39453Y305055D01*
X39423Y305170D01*
X39398Y305287D01*
X39376Y305404D01*
X39359Y305523D01*
X39345Y305641D01*
X39335Y305760D01*
X39329Y305880D01*
X39327Y305999D01*
X53672Y302387D02*
X53672Y313224D01*
X61800Y313224D01*
X61901Y313222D01*
X62002Y313216D01*
X62103Y313207D01*
X62204Y313194D01*
X62304Y313177D01*
X62403Y313156D01*
X62501Y313132D01*
X62598Y313104D01*
X62695Y313072D01*
X62790Y313037D01*
X62883Y312998D01*
X62975Y312956D01*
X63066Y312910D01*
X63155Y312861D01*
X63241Y312809D01*
X63326Y312753D01*
X63409Y312695D01*
X63489Y312633D01*
X63567Y312568D01*
X63643Y312501D01*
X63716Y312431D01*
X63786Y312358D01*
X63853Y312282D01*
X63918Y312204D01*
X63980Y312124D01*
X64038Y312041D01*
X64094Y311956D01*
X64146Y311870D01*
X64195Y311781D01*
X64241Y311690D01*
X64283Y311598D01*
X64322Y311505D01*
X64357Y311410D01*
X64389Y311313D01*
X64417Y311216D01*
X64441Y311118D01*
X64462Y311019D01*
X64479Y310919D01*
X64492Y310818D01*
X64501Y310717D01*
X64507Y310616D01*
X64509Y310515D01*
X64510Y310515D02*
X64510Y302387D01*
X59091Y302387D02*
X59091Y313224D01*
X74718Y308709D02*
X78782Y308709D01*
X74718Y308709D02*
X74606Y308707D01*
X74495Y308701D01*
X74384Y308691D01*
X74273Y308678D01*
X74163Y308660D01*
X74054Y308638D01*
X73945Y308613D01*
X73837Y308584D01*
X73731Y308551D01*
X73625Y308514D01*
X73521Y308474D01*
X73419Y308430D01*
X73318Y308382D01*
X73219Y308331D01*
X73121Y308276D01*
X73026Y308218D01*
X72933Y308157D01*
X72842Y308092D01*
X72753Y308024D01*
X72667Y307953D01*
X72584Y307880D01*
X72503Y307803D01*
X72424Y307723D01*
X72349Y307641D01*
X72277Y307556D01*
X72207Y307469D01*
X72141Y307379D01*
X72078Y307287D01*
X72018Y307192D01*
X71962Y307096D01*
X71909Y306998D01*
X71860Y306898D01*
X71814Y306796D01*
X71772Y306693D01*
X71733Y306588D01*
X71698Y306482D01*
X71667Y306375D01*
X71640Y306267D01*
X71616Y306158D01*
X71597Y306048D01*
X71581Y305938D01*
X71569Y305827D01*
X71561Y305715D01*
X71557Y305604D01*
X71557Y305492D01*
X71561Y305381D01*
X71569Y305269D01*
X71581Y305158D01*
X71597Y305048D01*
X71616Y304938D01*
X71640Y304829D01*
X71667Y304721D01*
X71698Y304614D01*
X71733Y304508D01*
X71772Y304403D01*
X71814Y304300D01*
X71860Y304198D01*
X71909Y304098D01*
X71962Y304000D01*
X72018Y303904D01*
X72078Y303809D01*
X72141Y303717D01*
X72207Y303627D01*
X72277Y303540D01*
X72349Y303455D01*
X72424Y303373D01*
X72503Y303293D01*
X72584Y303216D01*
X72667Y303143D01*
X72753Y303072D01*
X72842Y303004D01*
X72933Y302939D01*
X73026Y302878D01*
X73121Y302820D01*
X73219Y302765D01*
X73318Y302714D01*
X73419Y302666D01*
X73521Y302622D01*
X73625Y302582D01*
X73731Y302545D01*
X73837Y302512D01*
X73945Y302483D01*
X74054Y302458D01*
X74163Y302436D01*
X74273Y302418D01*
X74384Y302405D01*
X74495Y302395D01*
X74606Y302389D01*
X74718Y302387D01*
X78782Y302387D01*
X78782Y310515D01*
X78780Y310616D01*
X78774Y310717D01*
X78765Y310818D01*
X78752Y310919D01*
X78735Y311019D01*
X78714Y311118D01*
X78690Y311216D01*
X78662Y311313D01*
X78630Y311410D01*
X78595Y311505D01*
X78556Y311598D01*
X78514Y311690D01*
X78468Y311781D01*
X78419Y311870D01*
X78367Y311956D01*
X78311Y312041D01*
X78253Y312124D01*
X78191Y312204D01*
X78126Y312282D01*
X78059Y312358D01*
X77989Y312431D01*
X77916Y312501D01*
X77840Y312568D01*
X77762Y312633D01*
X77682Y312695D01*
X77599Y312753D01*
X77514Y312809D01*
X77428Y312861D01*
X77339Y312910D01*
X77248Y312956D01*
X77156Y312998D01*
X77063Y313037D01*
X76968Y313072D01*
X76871Y313104D01*
X76774Y313132D01*
X76676Y313156D01*
X76577Y313177D01*
X76477Y313194D01*
X76376Y313207D01*
X76275Y313216D01*
X76174Y313222D01*
X76073Y313224D01*
X72461Y313224D01*
X87054Y308709D02*
X91569Y306903D01*
X87053Y308709D02*
X86965Y308746D01*
X86879Y308787D01*
X86794Y308831D01*
X86711Y308879D01*
X86631Y308930D01*
X86552Y308984D01*
X86476Y309042D01*
X86402Y309102D01*
X86330Y309166D01*
X86262Y309232D01*
X86196Y309302D01*
X86133Y309373D01*
X86072Y309448D01*
X86015Y309524D01*
X85962Y309603D01*
X85911Y309684D01*
X85864Y309767D01*
X85820Y309852D01*
X85780Y309939D01*
X85743Y310027D01*
X85710Y310117D01*
X85680Y310208D01*
X85655Y310300D01*
X85633Y310393D01*
X85615Y310487D01*
X85600Y310581D01*
X85590Y310676D01*
X85584Y310772D01*
X85581Y310867D01*
X85582Y310963D01*
X85588Y311058D01*
X85597Y311154D01*
X85610Y311248D01*
X85626Y311342D01*
X85647Y311436D01*
X85672Y311528D01*
X85700Y311619D01*
X85732Y311709D01*
X85767Y311798D01*
X85806Y311885D01*
X85849Y311971D01*
X85895Y312055D01*
X85945Y312136D01*
X85997Y312216D01*
X86053Y312294D01*
X86113Y312369D01*
X86175Y312441D01*
X86240Y312511D01*
X86308Y312579D01*
X86378Y312643D01*
X86451Y312705D01*
X86527Y312763D01*
X86605Y312819D01*
X86685Y312871D01*
X86767Y312920D01*
X86851Y312965D01*
X86937Y313007D01*
X87024Y313046D01*
X87113Y313081D01*
X87204Y313112D01*
X87295Y313139D01*
X87388Y313163D01*
X87481Y313183D01*
X87575Y313199D01*
X87670Y313211D01*
X87765Y313220D01*
X87861Y313224D01*
X87956Y313225D01*
X88203Y313218D01*
X88449Y313206D01*
X88695Y313188D01*
X88941Y313163D01*
X89185Y313133D01*
X89429Y313097D01*
X89672Y313056D01*
X89914Y313008D01*
X90155Y312954D01*
X90394Y312895D01*
X90632Y312830D01*
X90868Y312759D01*
X91103Y312683D01*
X91336Y312601D01*
X91566Y312513D01*
X91794Y312420D01*
X92021Y312322D01*
X91570Y306902D02*
X91658Y306865D01*
X91744Y306824D01*
X91829Y306780D01*
X91912Y306732D01*
X91992Y306681D01*
X92071Y306627D01*
X92147Y306569D01*
X92221Y306509D01*
X92293Y306445D01*
X92361Y306379D01*
X92427Y306309D01*
X92490Y306238D01*
X92551Y306163D01*
X92608Y306087D01*
X92661Y306008D01*
X92712Y305927D01*
X92759Y305844D01*
X92803Y305759D01*
X92843Y305672D01*
X92880Y305584D01*
X92913Y305494D01*
X92943Y305403D01*
X92968Y305311D01*
X92990Y305218D01*
X93008Y305124D01*
X93023Y305030D01*
X93033Y304935D01*
X93039Y304839D01*
X93042Y304744D01*
X93041Y304648D01*
X93035Y304553D01*
X93026Y304457D01*
X93013Y304363D01*
X92997Y304269D01*
X92976Y304175D01*
X92951Y304083D01*
X92923Y303992D01*
X92891Y303902D01*
X92856Y303813D01*
X92817Y303726D01*
X92774Y303640D01*
X92728Y303556D01*
X92678Y303475D01*
X92626Y303395D01*
X92570Y303317D01*
X92510Y303242D01*
X92448Y303170D01*
X92383Y303100D01*
X92315Y303032D01*
X92245Y302968D01*
X92172Y302906D01*
X92096Y302848D01*
X92018Y302792D01*
X91938Y302740D01*
X91856Y302691D01*
X91772Y302646D01*
X91686Y302604D01*
X91599Y302565D01*
X91510Y302530D01*
X91419Y302499D01*
X91328Y302472D01*
X91235Y302448D01*
X91142Y302428D01*
X91048Y302412D01*
X90953Y302400D01*
X90858Y302391D01*
X90762Y302387D01*
X90667Y302386D01*
X90666Y302387D02*
X90304Y302396D01*
X89942Y302414D01*
X89581Y302441D01*
X89221Y302476D01*
X88861Y302519D01*
X88502Y302571D01*
X88145Y302632D01*
X87790Y302701D01*
X87436Y302778D01*
X87084Y302864D01*
X86734Y302958D01*
X86386Y303061D01*
X86041Y303171D01*
X85699Y303290D01*
X110709Y302387D02*
X107096Y318643D01*
X114321Y313224D02*
X110709Y302387D01*
X117934Y302387D02*
X114321Y313224D01*
X121546Y318643D02*
X117934Y302387D01*
X127347Y302387D02*
X127347Y313224D01*
X126896Y317740D02*
X126896Y318643D01*
X127799Y318643D01*
X127799Y317740D01*
X126896Y317740D01*
X133872Y318643D02*
X133872Y305096D01*
X133874Y304995D01*
X133880Y304894D01*
X133889Y304793D01*
X133902Y304692D01*
X133919Y304592D01*
X133940Y304493D01*
X133964Y304395D01*
X133992Y304298D01*
X134024Y304201D01*
X134059Y304106D01*
X134098Y304013D01*
X134140Y303921D01*
X134186Y303830D01*
X134235Y303742D01*
X134287Y303655D01*
X134343Y303570D01*
X134401Y303487D01*
X134463Y303407D01*
X134528Y303329D01*
X134595Y303253D01*
X134665Y303180D01*
X134738Y303110D01*
X134814Y303043D01*
X134892Y302978D01*
X134972Y302916D01*
X135055Y302858D01*
X135140Y302802D01*
X135227Y302750D01*
X135315Y302701D01*
X135406Y302655D01*
X135498Y302613D01*
X135591Y302574D01*
X135686Y302539D01*
X135783Y302507D01*
X135880Y302479D01*
X135978Y302455D01*
X136077Y302434D01*
X136177Y302417D01*
X136278Y302404D01*
X136379Y302395D01*
X136480Y302389D01*
X136581Y302387D01*
X142208Y305096D02*
X142208Y318643D01*
X142209Y305096D02*
X142211Y304995D01*
X142217Y304894D01*
X142226Y304793D01*
X142239Y304692D01*
X142256Y304592D01*
X142277Y304493D01*
X142301Y304395D01*
X142329Y304298D01*
X142361Y304201D01*
X142396Y304106D01*
X142435Y304013D01*
X142477Y303921D01*
X142523Y303830D01*
X142572Y303742D01*
X142624Y303655D01*
X142680Y303570D01*
X142738Y303487D01*
X142800Y303407D01*
X142865Y303329D01*
X142932Y303253D01*
X143002Y303180D01*
X143075Y303110D01*
X143151Y303043D01*
X143229Y302978D01*
X143309Y302916D01*
X143392Y302858D01*
X143477Y302802D01*
X143564Y302750D01*
X143652Y302701D01*
X143743Y302655D01*
X143835Y302613D01*
X143928Y302574D01*
X144023Y302539D01*
X144120Y302507D01*
X144217Y302479D01*
X144315Y302455D01*
X144414Y302434D01*
X144514Y302417D01*
X144615Y302404D01*
X144716Y302395D01*
X144817Y302389D01*
X144918Y302387D01*
X151663Y308709D02*
X156178Y306903D01*
X151662Y308709D02*
X151574Y308746D01*
X151488Y308787D01*
X151403Y308831D01*
X151320Y308879D01*
X151240Y308930D01*
X151161Y308984D01*
X151085Y309042D01*
X151011Y309102D01*
X150939Y309166D01*
X150871Y309232D01*
X150805Y309302D01*
X150742Y309373D01*
X150681Y309448D01*
X150624Y309524D01*
X150571Y309603D01*
X150520Y309684D01*
X150473Y309767D01*
X150429Y309852D01*
X150389Y309939D01*
X150352Y310027D01*
X150319Y310117D01*
X150289Y310208D01*
X150264Y310300D01*
X150242Y310393D01*
X150224Y310487D01*
X150209Y310581D01*
X150199Y310676D01*
X150193Y310772D01*
X150190Y310867D01*
X150191Y310963D01*
X150197Y311058D01*
X150206Y311154D01*
X150219Y311248D01*
X150235Y311342D01*
X150256Y311436D01*
X150281Y311528D01*
X150309Y311619D01*
X150341Y311709D01*
X150376Y311798D01*
X150415Y311885D01*
X150458Y311971D01*
X150504Y312055D01*
X150554Y312136D01*
X150606Y312216D01*
X150662Y312294D01*
X150722Y312369D01*
X150784Y312441D01*
X150849Y312511D01*
X150917Y312579D01*
X150987Y312643D01*
X151060Y312705D01*
X151136Y312763D01*
X151214Y312819D01*
X151294Y312871D01*
X151376Y312920D01*
X151460Y312965D01*
X151546Y313007D01*
X151633Y313046D01*
X151722Y313081D01*
X151813Y313112D01*
X151904Y313139D01*
X151997Y313163D01*
X152090Y313183D01*
X152184Y313199D01*
X152279Y313211D01*
X152374Y313220D01*
X152470Y313224D01*
X152565Y313225D01*
X152812Y313218D01*
X153058Y313206D01*
X153304Y313188D01*
X153550Y313163D01*
X153794Y313133D01*
X154038Y313097D01*
X154281Y313056D01*
X154523Y313008D01*
X154764Y312954D01*
X155003Y312895D01*
X155241Y312830D01*
X155477Y312759D01*
X155712Y312683D01*
X155945Y312601D01*
X156175Y312513D01*
X156403Y312420D01*
X156630Y312322D01*
X156179Y306902D02*
X156267Y306865D01*
X156353Y306824D01*
X156438Y306780D01*
X156521Y306732D01*
X156601Y306681D01*
X156680Y306627D01*
X156756Y306569D01*
X156830Y306509D01*
X156902Y306445D01*
X156970Y306379D01*
X157036Y306309D01*
X157099Y306238D01*
X157160Y306163D01*
X157217Y306087D01*
X157270Y306008D01*
X157321Y305927D01*
X157368Y305844D01*
X157412Y305759D01*
X157452Y305672D01*
X157489Y305584D01*
X157522Y305494D01*
X157552Y305403D01*
X157577Y305311D01*
X157599Y305218D01*
X157617Y305124D01*
X157632Y305030D01*
X157642Y304935D01*
X157648Y304839D01*
X157651Y304744D01*
X157650Y304648D01*
X157644Y304553D01*
X157635Y304457D01*
X157622Y304363D01*
X157606Y304269D01*
X157585Y304175D01*
X157560Y304083D01*
X157532Y303992D01*
X157500Y303902D01*
X157465Y303813D01*
X157426Y303726D01*
X157383Y303640D01*
X157337Y303556D01*
X157287Y303475D01*
X157235Y303395D01*
X157179Y303317D01*
X157119Y303242D01*
X157057Y303170D01*
X156992Y303100D01*
X156924Y303032D01*
X156854Y302968D01*
X156781Y302906D01*
X156705Y302848D01*
X156627Y302792D01*
X156547Y302740D01*
X156465Y302691D01*
X156381Y302646D01*
X156295Y302604D01*
X156208Y302565D01*
X156119Y302530D01*
X156028Y302499D01*
X155937Y302472D01*
X155844Y302448D01*
X155751Y302428D01*
X155657Y302412D01*
X155562Y302400D01*
X155467Y302391D01*
X155371Y302387D01*
X155276Y302386D01*
X155275Y302387D02*
X154913Y302396D01*
X154551Y302414D01*
X154190Y302441D01*
X153830Y302476D01*
X153470Y302519D01*
X153111Y302571D01*
X152754Y302632D01*
X152399Y302701D01*
X152045Y302778D01*
X151693Y302864D01*
X151343Y302958D01*
X150995Y303061D01*
X150650Y303171D01*
X150308Y303290D01*
X163855Y305999D02*
X163855Y309612D01*
X163856Y309612D02*
X163858Y309731D01*
X163864Y309851D01*
X163874Y309970D01*
X163888Y310088D01*
X163905Y310207D01*
X163927Y310324D01*
X163952Y310441D01*
X163982Y310556D01*
X164015Y310671D01*
X164052Y310785D01*
X164092Y310897D01*
X164137Y311008D01*
X164185Y311117D01*
X164236Y311225D01*
X164291Y311331D01*
X164350Y311435D01*
X164412Y311537D01*
X164477Y311637D01*
X164546Y311735D01*
X164618Y311831D01*
X164693Y311924D01*
X164770Y312014D01*
X164851Y312102D01*
X164935Y312187D01*
X165022Y312269D01*
X165111Y312349D01*
X165203Y312425D01*
X165297Y312499D01*
X165394Y312569D01*
X165492Y312636D01*
X165593Y312700D01*
X165697Y312760D01*
X165802Y312817D01*
X165909Y312870D01*
X166017Y312920D01*
X166127Y312966D01*
X166239Y313008D01*
X166352Y313047D01*
X166466Y313082D01*
X166581Y313113D01*
X166698Y313141D01*
X166815Y313164D01*
X166932Y313184D01*
X167051Y313200D01*
X167170Y313212D01*
X167289Y313220D01*
X167408Y313224D01*
X167528Y313224D01*
X167647Y313220D01*
X167766Y313212D01*
X167885Y313200D01*
X168004Y313184D01*
X168121Y313164D01*
X168238Y313141D01*
X168355Y313113D01*
X168470Y313082D01*
X168584Y313047D01*
X168697Y313008D01*
X168809Y312966D01*
X168919Y312920D01*
X169027Y312870D01*
X169134Y312817D01*
X169239Y312760D01*
X169343Y312700D01*
X169444Y312636D01*
X169542Y312569D01*
X169639Y312499D01*
X169733Y312425D01*
X169825Y312349D01*
X169914Y312269D01*
X170001Y312187D01*
X170085Y312102D01*
X170166Y312014D01*
X170243Y311924D01*
X170318Y311831D01*
X170390Y311735D01*
X170459Y311637D01*
X170524Y311537D01*
X170586Y311435D01*
X170645Y311331D01*
X170700Y311225D01*
X170751Y311117D01*
X170799Y311008D01*
X170844Y310897D01*
X170884Y310785D01*
X170921Y310671D01*
X170954Y310556D01*
X170984Y310441D01*
X171009Y310324D01*
X171031Y310207D01*
X171048Y310088D01*
X171062Y309970D01*
X171072Y309851D01*
X171078Y309731D01*
X171080Y309612D01*
X171080Y305999D01*
X171078Y305880D01*
X171072Y305760D01*
X171062Y305641D01*
X171048Y305523D01*
X171031Y305404D01*
X171009Y305287D01*
X170984Y305170D01*
X170954Y305055D01*
X170921Y304940D01*
X170884Y304826D01*
X170844Y304714D01*
X170799Y304603D01*
X170751Y304494D01*
X170700Y304386D01*
X170645Y304280D01*
X170586Y304176D01*
X170524Y304074D01*
X170459Y303974D01*
X170390Y303876D01*
X170318Y303780D01*
X170243Y303687D01*
X170166Y303597D01*
X170085Y303509D01*
X170001Y303424D01*
X169914Y303342D01*
X169825Y303262D01*
X169733Y303186D01*
X169639Y303112D01*
X169542Y303042D01*
X169444Y302975D01*
X169343Y302911D01*
X169239Y302851D01*
X169134Y302794D01*
X169027Y302741D01*
X168919Y302691D01*
X168809Y302645D01*
X168697Y302603D01*
X168584Y302564D01*
X168470Y302529D01*
X168355Y302498D01*
X168238Y302470D01*
X168121Y302447D01*
X168004Y302427D01*
X167885Y302411D01*
X167766Y302399D01*
X167647Y302391D01*
X167528Y302387D01*
X167408Y302387D01*
X167289Y302391D01*
X167170Y302399D01*
X167051Y302411D01*
X166932Y302427D01*
X166815Y302447D01*
X166698Y302470D01*
X166581Y302498D01*
X166466Y302529D01*
X166352Y302564D01*
X166239Y302603D01*
X166127Y302645D01*
X166017Y302691D01*
X165909Y302741D01*
X165802Y302794D01*
X165697Y302851D01*
X165593Y302911D01*
X165492Y302975D01*
X165394Y303042D01*
X165297Y303112D01*
X165203Y303186D01*
X165111Y303262D01*
X165022Y303342D01*
X164935Y303424D01*
X164851Y303509D01*
X164770Y303597D01*
X164693Y303687D01*
X164618Y303780D01*
X164546Y303876D01*
X164477Y303974D01*
X164412Y304074D01*
X164350Y304176D01*
X164291Y304280D01*
X164236Y304386D01*
X164185Y304494D01*
X164137Y304603D01*
X164092Y304714D01*
X164052Y304826D01*
X164015Y304940D01*
X163982Y305055D01*
X163952Y305170D01*
X163927Y305287D01*
X163905Y305404D01*
X163888Y305523D01*
X163874Y305641D01*
X163864Y305760D01*
X163858Y305880D01*
X163856Y305999D01*
X177923Y302387D02*
X177923Y313224D01*
X182439Y313224D01*
X182543Y313222D01*
X182646Y313216D01*
X182750Y313206D01*
X182853Y313192D01*
X182955Y313174D01*
X183056Y313153D01*
X183157Y313127D01*
X183256Y313098D01*
X183355Y313065D01*
X183452Y313028D01*
X183547Y312987D01*
X183641Y312943D01*
X183733Y312895D01*
X183823Y312844D01*
X183912Y312789D01*
X183998Y312731D01*
X184081Y312669D01*
X184163Y312605D01*
X184241Y312537D01*
X184317Y312467D01*
X184391Y312394D01*
X184461Y312317D01*
X184529Y312239D01*
X184593Y312157D01*
X184655Y312074D01*
X184713Y311988D01*
X184768Y311899D01*
X184819Y311809D01*
X184867Y311717D01*
X184911Y311623D01*
X184952Y311528D01*
X184989Y311431D01*
X185022Y311332D01*
X185051Y311233D01*
X185077Y311132D01*
X185098Y311031D01*
X185116Y310929D01*
X185130Y310826D01*
X185140Y310722D01*
X185146Y310619D01*
X185148Y310515D01*
X185148Y302387D01*
D11*
X399450Y327575D02*
X451450Y327575D01*
X451450Y260575D01*
X451450Y249575D02*
X451450Y233575D01*
X399450Y233575D01*
X399450Y327575D01*
X392450Y314575D02*
X392226Y314913D01*
X391994Y315246D01*
X391755Y315574D01*
X391507Y315895D01*
X391252Y316210D01*
X390989Y316519D01*
X390718Y316821D01*
X390440Y317117D01*
X390155Y317406D01*
X389864Y317688D01*
X389565Y317962D01*
X389260Y318230D01*
X388948Y318489D01*
X388630Y318741D01*
X388306Y318986D01*
X387976Y319222D01*
X387641Y319450D01*
X387300Y319670D01*
X386954Y319881D01*
X386603Y320084D01*
X386246Y320279D01*
X385886Y320465D01*
X385521Y320641D01*
X385151Y320809D01*
X384778Y320968D01*
X384401Y321118D01*
X384020Y321258D01*
X383636Y321389D01*
X383249Y321511D01*
X382859Y321623D01*
X382467Y321726D01*
X382072Y321819D01*
X381675Y321903D01*
X381276Y321976D01*
X380876Y322040D01*
X380474Y322095D01*
X380070Y322139D01*
X379666Y322174D01*
X379261Y322198D01*
X378856Y322213D01*
X378450Y322218D01*
X378044Y322213D01*
X377639Y322198D01*
X377234Y322174D01*
X376830Y322139D01*
X376426Y322095D01*
X376024Y322040D01*
X375624Y321976D01*
X375225Y321903D01*
X374828Y321819D01*
X374433Y321726D01*
X374041Y321623D01*
X373651Y321511D01*
X373264Y321389D01*
X372880Y321258D01*
X372499Y321118D01*
X372122Y320968D01*
X371749Y320809D01*
X371379Y320641D01*
X371014Y320465D01*
X370654Y320279D01*
X370297Y320084D01*
X369946Y319881D01*
X369600Y319670D01*
X369259Y319450D01*
X368924Y319222D01*
X368594Y318986D01*
X368270Y318741D01*
X367952Y318489D01*
X367640Y318230D01*
X367335Y317962D01*
X367036Y317688D01*
X366745Y317406D01*
X366460Y317117D01*
X366182Y316821D01*
X365911Y316519D01*
X365648Y316210D01*
X365393Y315895D01*
X365145Y315574D01*
X364906Y315246D01*
X364674Y314913D01*
X364450Y314575D01*
X364450Y296575D02*
X364674Y296237D01*
X364906Y295904D01*
X365145Y295576D01*
X365393Y295255D01*
X365648Y294940D01*
X365911Y294631D01*
X366182Y294329D01*
X366460Y294033D01*
X366745Y293744D01*
X367036Y293462D01*
X367335Y293188D01*
X367640Y292920D01*
X367952Y292661D01*
X368270Y292409D01*
X368594Y292164D01*
X368924Y291928D01*
X369259Y291700D01*
X369600Y291480D01*
X369946Y291269D01*
X370297Y291066D01*
X370654Y290871D01*
X371014Y290685D01*
X371379Y290509D01*
X371749Y290341D01*
X372122Y290182D01*
X372499Y290032D01*
X372880Y289892D01*
X373264Y289761D01*
X373651Y289639D01*
X374041Y289527D01*
X374433Y289424D01*
X374828Y289331D01*
X375225Y289247D01*
X375624Y289174D01*
X376024Y289110D01*
X376426Y289055D01*
X376830Y289011D01*
X377234Y288976D01*
X377639Y288952D01*
X378044Y288937D01*
X378450Y288932D01*
X378856Y288937D01*
X379261Y288952D01*
X379666Y288976D01*
X380070Y289011D01*
X380474Y289055D01*
X380876Y289110D01*
X381276Y289174D01*
X381675Y289247D01*
X382072Y289331D01*
X382467Y289424D01*
X382859Y289527D01*
X383249Y289639D01*
X383636Y289761D01*
X384020Y289892D01*
X384401Y290032D01*
X384778Y290182D01*
X385151Y290341D01*
X385521Y290509D01*
X385886Y290685D01*
X386246Y290871D01*
X386603Y291066D01*
X386954Y291269D01*
X387300Y291480D01*
X387641Y291700D01*
X387976Y291928D01*
X388306Y292164D01*
X388630Y292409D01*
X388948Y292661D01*
X389260Y292920D01*
X389565Y293188D01*
X389864Y293462D01*
X390155Y293744D01*
X390440Y294033D01*
X390718Y294329D01*
X390989Y294631D01*
X391252Y294940D01*
X391507Y295255D01*
X391755Y295576D01*
X391994Y295904D01*
X392226Y296237D01*
X392450Y296575D01*
X364450Y296575D02*
X364450Y314575D01*
X391450Y315575D02*
X398450Y315575D01*
X398450Y295575D02*
X391450Y295575D01*
X458450Y296575D02*
X458674Y296237D01*
X458906Y295904D01*
X459145Y295576D01*
X459393Y295255D01*
X459648Y294940D01*
X459911Y294631D01*
X460182Y294329D01*
X460460Y294033D01*
X460745Y293744D01*
X461036Y293462D01*
X461335Y293188D01*
X461640Y292920D01*
X461952Y292661D01*
X462270Y292409D01*
X462594Y292164D01*
X462924Y291928D01*
X463259Y291700D01*
X463600Y291480D01*
X463946Y291269D01*
X464297Y291066D01*
X464654Y290871D01*
X465014Y290685D01*
X465379Y290509D01*
X465749Y290341D01*
X466122Y290182D01*
X466499Y290032D01*
X466880Y289892D01*
X467264Y289761D01*
X467651Y289639D01*
X468041Y289527D01*
X468433Y289424D01*
X468828Y289331D01*
X469225Y289247D01*
X469624Y289174D01*
X470024Y289110D01*
X470426Y289055D01*
X470830Y289011D01*
X471234Y288976D01*
X471639Y288952D01*
X472044Y288937D01*
X472450Y288932D01*
X472856Y288937D01*
X473261Y288952D01*
X473666Y288976D01*
X474070Y289011D01*
X474474Y289055D01*
X474876Y289110D01*
X475276Y289174D01*
X475675Y289247D01*
X476072Y289331D01*
X476467Y289424D01*
X476859Y289527D01*
X477249Y289639D01*
X477636Y289761D01*
X478020Y289892D01*
X478401Y290032D01*
X478778Y290182D01*
X479151Y290341D01*
X479521Y290509D01*
X479886Y290685D01*
X480246Y290871D01*
X480603Y291066D01*
X480954Y291269D01*
X481300Y291480D01*
X481641Y291700D01*
X481976Y291928D01*
X482306Y292164D01*
X482630Y292409D01*
X482948Y292661D01*
X483260Y292920D01*
X483565Y293188D01*
X483864Y293462D01*
X484155Y293744D01*
X484440Y294033D01*
X484718Y294329D01*
X484989Y294631D01*
X485252Y294940D01*
X485507Y295255D01*
X485755Y295576D01*
X485994Y295904D01*
X486226Y296237D01*
X486450Y296575D01*
X486450Y314575D02*
X486226Y314913D01*
X485994Y315246D01*
X485755Y315574D01*
X485507Y315895D01*
X485252Y316210D01*
X484989Y316519D01*
X484718Y316821D01*
X484440Y317117D01*
X484155Y317406D01*
X483864Y317688D01*
X483565Y317962D01*
X483260Y318230D01*
X482948Y318489D01*
X482630Y318741D01*
X482306Y318986D01*
X481976Y319222D01*
X481641Y319450D01*
X481300Y319670D01*
X480954Y319881D01*
X480603Y320084D01*
X480246Y320279D01*
X479886Y320465D01*
X479521Y320641D01*
X479151Y320809D01*
X478778Y320968D01*
X478401Y321118D01*
X478020Y321258D01*
X477636Y321389D01*
X477249Y321511D01*
X476859Y321623D01*
X476467Y321726D01*
X476072Y321819D01*
X475675Y321903D01*
X475276Y321976D01*
X474876Y322040D01*
X474474Y322095D01*
X474070Y322139D01*
X473666Y322174D01*
X473261Y322198D01*
X472856Y322213D01*
X472450Y322218D01*
X472044Y322213D01*
X471639Y322198D01*
X471234Y322174D01*
X470830Y322139D01*
X470426Y322095D01*
X470024Y322040D01*
X469624Y321976D01*
X469225Y321903D01*
X468828Y321819D01*
X468433Y321726D01*
X468041Y321623D01*
X467651Y321511D01*
X467264Y321389D01*
X466880Y321258D01*
X466499Y321118D01*
X466122Y320968D01*
X465749Y320809D01*
X465379Y320641D01*
X465014Y320465D01*
X464654Y320279D01*
X464297Y320084D01*
X463946Y319881D01*
X463600Y319670D01*
X463259Y319450D01*
X462924Y319222D01*
X462594Y318986D01*
X462270Y318741D01*
X461952Y318489D01*
X461640Y318230D01*
X461335Y317962D01*
X461036Y317688D01*
X460745Y317406D01*
X460460Y317117D01*
X460182Y316821D01*
X459911Y316519D01*
X459648Y316210D01*
X459393Y315895D01*
X459145Y315574D01*
X458906Y315246D01*
X458674Y314913D01*
X458450Y314575D01*
X486450Y314575D02*
X486450Y296575D01*
X459450Y295575D02*
X452450Y295575D01*
X452450Y315575D02*
X459450Y315575D01*
X451450Y260575D02*
X451598Y260573D01*
X451745Y260567D01*
X451893Y260557D01*
X452040Y260543D01*
X452186Y260526D01*
X452332Y260504D01*
X452478Y260478D01*
X452622Y260449D01*
X452766Y260415D01*
X452909Y260378D01*
X453051Y260337D01*
X453192Y260292D01*
X453331Y260243D01*
X453469Y260191D01*
X453606Y260135D01*
X453741Y260075D01*
X453874Y260012D01*
X454006Y259945D01*
X454136Y259875D01*
X454264Y259801D01*
X454390Y259724D01*
X454513Y259643D01*
X454635Y259559D01*
X454754Y259472D01*
X454871Y259382D01*
X454985Y259288D01*
X455097Y259192D01*
X455206Y259092D01*
X455313Y258990D01*
X455417Y258885D01*
X455517Y258777D01*
X455615Y258667D01*
X455710Y258553D01*
X455802Y258438D01*
X455891Y258320D01*
X455976Y258199D01*
X456059Y258077D01*
X456138Y257952D01*
X456213Y257825D01*
X456285Y257696D01*
X456354Y257565D01*
X456419Y257433D01*
X456480Y257299D01*
X456538Y257163D01*
X456593Y257025D01*
X456643Y256887D01*
X456690Y256746D01*
X456733Y256605D01*
X456772Y256463D01*
X456807Y256319D01*
X456839Y256175D01*
X456866Y256030D01*
X456890Y255884D01*
X456910Y255738D01*
X456926Y255591D01*
X456938Y255444D01*
X456946Y255296D01*
X456950Y255149D01*
X456950Y255001D01*
X456946Y254854D01*
X456938Y254706D01*
X456926Y254559D01*
X456910Y254412D01*
X456890Y254266D01*
X456866Y254120D01*
X456839Y253975D01*
X456807Y253831D01*
X456772Y253687D01*
X456733Y253545D01*
X456690Y253404D01*
X456643Y253263D01*
X456593Y253125D01*
X456538Y252987D01*
X456480Y252851D01*
X456419Y252717D01*
X456354Y252585D01*
X456285Y252454D01*
X456213Y252325D01*
X456138Y252198D01*
X456059Y252073D01*
X455976Y251951D01*
X455891Y251830D01*
X455802Y251712D01*
X455710Y251597D01*
X455615Y251483D01*
X455517Y251373D01*
X455417Y251265D01*
X455313Y251160D01*
X455206Y251058D01*
X455097Y250958D01*
X454985Y250862D01*
X454871Y250768D01*
X454754Y250678D01*
X454635Y250591D01*
X454513Y250507D01*
X454390Y250426D01*
X454264Y250349D01*
X454136Y250275D01*
X454006Y250205D01*
X453874Y250138D01*
X453741Y250075D01*
X453606Y250015D01*
X453469Y249959D01*
X453331Y249907D01*
X453192Y249858D01*
X453051Y249813D01*
X452909Y249772D01*
X452766Y249735D01*
X452622Y249701D01*
X452478Y249672D01*
X452332Y249646D01*
X452186Y249624D01*
X452040Y249607D01*
X451893Y249593D01*
X451745Y249583D01*
X451598Y249577D01*
X451450Y249575D01*
D12*
X416504Y340374D02*
X413258Y340374D01*
X416504Y340375D02*
X416617Y340373D01*
X416730Y340367D01*
X416843Y340357D01*
X416956Y340343D01*
X417068Y340326D01*
X417179Y340304D01*
X417289Y340279D01*
X417399Y340249D01*
X417507Y340216D01*
X417614Y340179D01*
X417720Y340139D01*
X417824Y340094D01*
X417927Y340046D01*
X418028Y339995D01*
X418127Y339940D01*
X418224Y339882D01*
X418319Y339820D01*
X418412Y339755D01*
X418502Y339687D01*
X418590Y339616D01*
X418676Y339541D01*
X418759Y339464D01*
X418839Y339384D01*
X418916Y339301D01*
X418991Y339215D01*
X419062Y339127D01*
X419130Y339037D01*
X419195Y338944D01*
X419257Y338849D01*
X419315Y338752D01*
X419370Y338653D01*
X419421Y338552D01*
X419469Y338449D01*
X419514Y338345D01*
X419554Y338239D01*
X419591Y338132D01*
X419624Y338024D01*
X419654Y337914D01*
X419679Y337804D01*
X419701Y337693D01*
X419718Y337581D01*
X419732Y337468D01*
X419742Y337355D01*
X419748Y337242D01*
X419750Y337129D01*
X419748Y337016D01*
X419742Y336903D01*
X419732Y336790D01*
X419718Y336677D01*
X419701Y336565D01*
X419679Y336454D01*
X419654Y336344D01*
X419624Y336234D01*
X419591Y336126D01*
X419554Y336019D01*
X419514Y335913D01*
X419469Y335809D01*
X419421Y335706D01*
X419370Y335605D01*
X419315Y335506D01*
X419257Y335409D01*
X419195Y335314D01*
X419130Y335221D01*
X419062Y335131D01*
X418991Y335043D01*
X418916Y334957D01*
X418839Y334874D01*
X418759Y334794D01*
X418676Y334717D01*
X418590Y334642D01*
X418502Y334571D01*
X418412Y334503D01*
X418319Y334438D01*
X418224Y334376D01*
X418127Y334318D01*
X418028Y334263D01*
X417927Y334212D01*
X417824Y334164D01*
X417720Y334119D01*
X417614Y334079D01*
X417507Y334042D01*
X417399Y334009D01*
X417289Y333979D01*
X417179Y333954D01*
X417068Y333932D01*
X416956Y333915D01*
X416843Y333901D01*
X416730Y333891D01*
X416617Y333885D01*
X416504Y333883D01*
X413258Y333883D01*
X413258Y345567D01*
X416504Y345567D01*
X416605Y345565D01*
X416705Y345559D01*
X416805Y345549D01*
X416905Y345536D01*
X417004Y345518D01*
X417103Y345497D01*
X417200Y345472D01*
X417297Y345443D01*
X417392Y345410D01*
X417486Y345374D01*
X417578Y345334D01*
X417669Y345291D01*
X417758Y345244D01*
X417845Y345194D01*
X417931Y345140D01*
X418014Y345083D01*
X418094Y345023D01*
X418173Y344960D01*
X418249Y344893D01*
X418322Y344824D01*
X418392Y344752D01*
X418460Y344678D01*
X418525Y344601D01*
X418586Y344521D01*
X418645Y344439D01*
X418700Y344355D01*
X418752Y344269D01*
X418801Y344181D01*
X418846Y344091D01*
X418888Y343999D01*
X418926Y343906D01*
X418960Y343811D01*
X418991Y343716D01*
X419018Y343619D01*
X419041Y343521D01*
X419061Y343422D01*
X419076Y343322D01*
X419088Y343222D01*
X419096Y343122D01*
X419100Y343021D01*
X419100Y342921D01*
X419096Y342820D01*
X419088Y342720D01*
X419076Y342620D01*
X419061Y342520D01*
X419041Y342421D01*
X419018Y342323D01*
X418991Y342226D01*
X418960Y342131D01*
X418926Y342036D01*
X418888Y341943D01*
X418846Y341851D01*
X418801Y341761D01*
X418752Y341673D01*
X418700Y341587D01*
X418645Y341503D01*
X418586Y341421D01*
X418525Y341341D01*
X418460Y341264D01*
X418392Y341190D01*
X418322Y341118D01*
X418249Y341049D01*
X418173Y340982D01*
X418094Y340919D01*
X418014Y340859D01*
X417931Y340802D01*
X417845Y340748D01*
X417758Y340698D01*
X417669Y340651D01*
X417578Y340608D01*
X417486Y340568D01*
X417392Y340532D01*
X417297Y340499D01*
X417200Y340470D01*
X417103Y340445D01*
X417004Y340424D01*
X416905Y340406D01*
X416805Y340393D01*
X416705Y340383D01*
X416605Y340377D01*
X416504Y340375D01*
X423489Y333883D02*
X427383Y345567D01*
X431278Y333883D01*
X430304Y336804D02*
X424462Y336804D01*
X436118Y333883D02*
X436118Y345567D01*
X442609Y345567D02*
X436118Y338427D01*
X438714Y341023D02*
X442609Y333883D01*
X447401Y333883D02*
X452594Y333883D01*
X447401Y333883D02*
X447401Y345567D01*
X452594Y345567D01*
X451296Y340374D02*
X447401Y340374D01*
D11*
X781600Y294150D02*
X781600Y74150D01*
X714600Y74150D01*
X703600Y74150D02*
X687600Y74150D01*
X687600Y294150D01*
X781600Y294150D01*
X768600Y301150D02*
X768938Y301374D01*
X769271Y301606D01*
X769599Y301845D01*
X769920Y302093D01*
X770235Y302348D01*
X770544Y302611D01*
X770846Y302882D01*
X771142Y303160D01*
X771431Y303445D01*
X771713Y303736D01*
X771987Y304035D01*
X772255Y304340D01*
X772514Y304652D01*
X772766Y304970D01*
X773011Y305294D01*
X773247Y305624D01*
X773475Y305959D01*
X773695Y306300D01*
X773906Y306646D01*
X774109Y306997D01*
X774304Y307354D01*
X774490Y307714D01*
X774666Y308079D01*
X774834Y308449D01*
X774993Y308822D01*
X775143Y309199D01*
X775283Y309580D01*
X775414Y309964D01*
X775536Y310351D01*
X775648Y310741D01*
X775751Y311133D01*
X775844Y311528D01*
X775928Y311925D01*
X776001Y312324D01*
X776065Y312724D01*
X776120Y313126D01*
X776164Y313530D01*
X776199Y313934D01*
X776223Y314339D01*
X776238Y314744D01*
X776243Y315150D01*
X776238Y315556D01*
X776223Y315961D01*
X776199Y316366D01*
X776164Y316770D01*
X776120Y317174D01*
X776065Y317576D01*
X776001Y317976D01*
X775928Y318375D01*
X775844Y318772D01*
X775751Y319167D01*
X775648Y319559D01*
X775536Y319949D01*
X775414Y320336D01*
X775283Y320720D01*
X775143Y321101D01*
X774993Y321478D01*
X774834Y321851D01*
X774666Y322221D01*
X774490Y322586D01*
X774304Y322946D01*
X774109Y323303D01*
X773906Y323654D01*
X773695Y324000D01*
X773475Y324341D01*
X773247Y324676D01*
X773011Y325006D01*
X772766Y325330D01*
X772514Y325648D01*
X772255Y325960D01*
X771987Y326265D01*
X771713Y326564D01*
X771431Y326855D01*
X771142Y327140D01*
X770846Y327418D01*
X770544Y327689D01*
X770235Y327952D01*
X769920Y328207D01*
X769599Y328455D01*
X769271Y328694D01*
X768938Y328926D01*
X768600Y329150D01*
X750600Y329150D02*
X750262Y328926D01*
X749929Y328694D01*
X749601Y328455D01*
X749280Y328207D01*
X748965Y327952D01*
X748656Y327689D01*
X748354Y327418D01*
X748058Y327140D01*
X747769Y326855D01*
X747487Y326564D01*
X747213Y326265D01*
X746945Y325960D01*
X746686Y325648D01*
X746434Y325330D01*
X746189Y325006D01*
X745953Y324676D01*
X745725Y324341D01*
X745505Y324000D01*
X745294Y323654D01*
X745091Y323303D01*
X744896Y322946D01*
X744710Y322586D01*
X744534Y322221D01*
X744366Y321851D01*
X744207Y321478D01*
X744057Y321101D01*
X743917Y320720D01*
X743786Y320336D01*
X743664Y319949D01*
X743552Y319559D01*
X743449Y319167D01*
X743356Y318772D01*
X743272Y318375D01*
X743199Y317976D01*
X743135Y317576D01*
X743080Y317174D01*
X743036Y316770D01*
X743001Y316366D01*
X742977Y315961D01*
X742962Y315556D01*
X742957Y315150D01*
X742962Y314744D01*
X742977Y314339D01*
X743001Y313934D01*
X743036Y313530D01*
X743080Y313126D01*
X743135Y312724D01*
X743199Y312324D01*
X743272Y311925D01*
X743356Y311528D01*
X743449Y311133D01*
X743552Y310741D01*
X743664Y310351D01*
X743786Y309964D01*
X743917Y309580D01*
X744057Y309199D01*
X744207Y308822D01*
X744366Y308449D01*
X744534Y308079D01*
X744710Y307714D01*
X744896Y307354D01*
X745091Y306997D01*
X745294Y306646D01*
X745505Y306300D01*
X745725Y305959D01*
X745953Y305624D01*
X746189Y305294D01*
X746434Y304970D01*
X746686Y304652D01*
X746945Y304340D01*
X747213Y304035D01*
X747487Y303736D01*
X747769Y303445D01*
X748058Y303160D01*
X748354Y302882D01*
X748656Y302611D01*
X748965Y302348D01*
X749280Y302093D01*
X749601Y301845D01*
X749929Y301606D01*
X750262Y301374D01*
X750600Y301150D01*
X750600Y329150D02*
X768600Y329150D01*
X769600Y302150D02*
X769600Y295150D01*
X749600Y295150D02*
X749600Y302150D01*
X750600Y67150D02*
X750262Y66926D01*
X749929Y66694D01*
X749601Y66455D01*
X749280Y66207D01*
X748965Y65952D01*
X748656Y65689D01*
X748354Y65418D01*
X748058Y65140D01*
X747769Y64855D01*
X747487Y64564D01*
X747213Y64265D01*
X746945Y63960D01*
X746686Y63648D01*
X746434Y63330D01*
X746189Y63006D01*
X745953Y62676D01*
X745725Y62341D01*
X745505Y62000D01*
X745294Y61654D01*
X745091Y61303D01*
X744896Y60946D01*
X744710Y60586D01*
X744534Y60221D01*
X744366Y59851D01*
X744207Y59478D01*
X744057Y59101D01*
X743917Y58720D01*
X743786Y58336D01*
X743664Y57949D01*
X743552Y57559D01*
X743449Y57167D01*
X743356Y56772D01*
X743272Y56375D01*
X743199Y55976D01*
X743135Y55576D01*
X743080Y55174D01*
X743036Y54770D01*
X743001Y54366D01*
X742977Y53961D01*
X742962Y53556D01*
X742957Y53150D01*
X742962Y52744D01*
X742977Y52339D01*
X743001Y51934D01*
X743036Y51530D01*
X743080Y51126D01*
X743135Y50724D01*
X743199Y50324D01*
X743272Y49925D01*
X743356Y49528D01*
X743449Y49133D01*
X743552Y48741D01*
X743664Y48351D01*
X743786Y47964D01*
X743917Y47580D01*
X744057Y47199D01*
X744207Y46822D01*
X744366Y46449D01*
X744534Y46079D01*
X744710Y45714D01*
X744896Y45354D01*
X745091Y44997D01*
X745294Y44646D01*
X745505Y44300D01*
X745725Y43959D01*
X745953Y43624D01*
X746189Y43294D01*
X746434Y42970D01*
X746686Y42652D01*
X746945Y42340D01*
X747213Y42035D01*
X747487Y41736D01*
X747769Y41445D01*
X748058Y41160D01*
X748354Y40882D01*
X748656Y40611D01*
X748965Y40348D01*
X749280Y40093D01*
X749601Y39845D01*
X749929Y39606D01*
X750262Y39374D01*
X750600Y39150D01*
X768600Y39150D02*
X768938Y39374D01*
X769271Y39606D01*
X769599Y39845D01*
X769920Y40093D01*
X770235Y40348D01*
X770544Y40611D01*
X770846Y40882D01*
X771142Y41160D01*
X771431Y41445D01*
X771713Y41736D01*
X771987Y42035D01*
X772255Y42340D01*
X772514Y42652D01*
X772766Y42970D01*
X773011Y43294D01*
X773247Y43624D01*
X773475Y43959D01*
X773695Y44300D01*
X773906Y44646D01*
X774109Y44997D01*
X774304Y45354D01*
X774490Y45714D01*
X774666Y46079D01*
X774834Y46449D01*
X774993Y46822D01*
X775143Y47199D01*
X775283Y47580D01*
X775414Y47964D01*
X775536Y48351D01*
X775648Y48741D01*
X775751Y49133D01*
X775844Y49528D01*
X775928Y49925D01*
X776001Y50324D01*
X776065Y50724D01*
X776120Y51126D01*
X776164Y51530D01*
X776199Y51934D01*
X776223Y52339D01*
X776238Y52744D01*
X776243Y53150D01*
X776238Y53556D01*
X776223Y53961D01*
X776199Y54366D01*
X776164Y54770D01*
X776120Y55174D01*
X776065Y55576D01*
X776001Y55976D01*
X775928Y56375D01*
X775844Y56772D01*
X775751Y57167D01*
X775648Y57559D01*
X775536Y57949D01*
X775414Y58336D01*
X775283Y58720D01*
X775143Y59101D01*
X774993Y59478D01*
X774834Y59851D01*
X774666Y60221D01*
X774490Y60586D01*
X774304Y60946D01*
X774109Y61303D01*
X773906Y61654D01*
X773695Y62000D01*
X773475Y62341D01*
X773247Y62676D01*
X773011Y63006D01*
X772766Y63330D01*
X772514Y63648D01*
X772255Y63960D01*
X771987Y64265D01*
X771713Y64564D01*
X771431Y64855D01*
X771142Y65140D01*
X770846Y65418D01*
X770544Y65689D01*
X770235Y65952D01*
X769920Y66207D01*
X769599Y66455D01*
X769271Y66694D01*
X768938Y66926D01*
X768600Y67150D01*
X768600Y39150D02*
X750600Y39150D01*
X749600Y66150D02*
X749600Y73150D01*
X769600Y73150D02*
X769600Y66150D01*
X714600Y74150D02*
X714598Y74002D01*
X714592Y73855D01*
X714582Y73707D01*
X714568Y73560D01*
X714551Y73414D01*
X714529Y73268D01*
X714503Y73122D01*
X714474Y72978D01*
X714440Y72834D01*
X714403Y72691D01*
X714362Y72549D01*
X714317Y72408D01*
X714268Y72269D01*
X714216Y72131D01*
X714160Y71994D01*
X714100Y71859D01*
X714037Y71726D01*
X713970Y71594D01*
X713900Y71464D01*
X713826Y71336D01*
X713749Y71210D01*
X713668Y71087D01*
X713584Y70965D01*
X713497Y70846D01*
X713407Y70729D01*
X713313Y70615D01*
X713217Y70503D01*
X713117Y70394D01*
X713015Y70287D01*
X712910Y70183D01*
X712802Y70083D01*
X712692Y69985D01*
X712578Y69890D01*
X712463Y69798D01*
X712345Y69709D01*
X712224Y69624D01*
X712102Y69541D01*
X711977Y69462D01*
X711850Y69387D01*
X711721Y69315D01*
X711590Y69246D01*
X711458Y69181D01*
X711324Y69120D01*
X711188Y69062D01*
X711050Y69007D01*
X710912Y68957D01*
X710771Y68910D01*
X710630Y68867D01*
X710488Y68828D01*
X710344Y68793D01*
X710200Y68761D01*
X710055Y68734D01*
X709909Y68710D01*
X709763Y68690D01*
X709616Y68674D01*
X709469Y68662D01*
X709321Y68654D01*
X709174Y68650D01*
X709026Y68650D01*
X708879Y68654D01*
X708731Y68662D01*
X708584Y68674D01*
X708437Y68690D01*
X708291Y68710D01*
X708145Y68734D01*
X708000Y68761D01*
X707856Y68793D01*
X707712Y68828D01*
X707570Y68867D01*
X707429Y68910D01*
X707288Y68957D01*
X707150Y69007D01*
X707012Y69062D01*
X706876Y69120D01*
X706742Y69181D01*
X706610Y69246D01*
X706479Y69315D01*
X706350Y69387D01*
X706223Y69462D01*
X706098Y69541D01*
X705976Y69624D01*
X705855Y69709D01*
X705737Y69798D01*
X705622Y69890D01*
X705508Y69985D01*
X705398Y70083D01*
X705290Y70183D01*
X705185Y70287D01*
X705083Y70394D01*
X704983Y70503D01*
X704887Y70615D01*
X704793Y70729D01*
X704703Y70846D01*
X704616Y70965D01*
X704532Y71087D01*
X704451Y71210D01*
X704374Y71336D01*
X704300Y71464D01*
X704230Y71594D01*
X704163Y71726D01*
X704100Y71859D01*
X704040Y71994D01*
X703984Y72131D01*
X703932Y72269D01*
X703883Y72408D01*
X703838Y72549D01*
X703797Y72691D01*
X703760Y72834D01*
X703726Y72978D01*
X703697Y73122D01*
X703671Y73268D01*
X703649Y73414D01*
X703632Y73560D01*
X703618Y73707D01*
X703608Y73855D01*
X703602Y74002D01*
X703600Y74150D01*
D12*
X793101Y69822D02*
X793101Y66576D01*
X793100Y69822D02*
X793102Y69935D01*
X793108Y70048D01*
X793118Y70161D01*
X793132Y70274D01*
X793149Y70386D01*
X793171Y70497D01*
X793196Y70607D01*
X793226Y70717D01*
X793259Y70825D01*
X793296Y70932D01*
X793336Y71038D01*
X793381Y71142D01*
X793429Y71245D01*
X793480Y71346D01*
X793535Y71445D01*
X793593Y71542D01*
X793655Y71637D01*
X793720Y71730D01*
X793788Y71820D01*
X793859Y71908D01*
X793934Y71994D01*
X794011Y72077D01*
X794091Y72157D01*
X794174Y72234D01*
X794260Y72309D01*
X794348Y72380D01*
X794438Y72448D01*
X794531Y72513D01*
X794626Y72575D01*
X794723Y72633D01*
X794822Y72688D01*
X794923Y72739D01*
X795026Y72787D01*
X795130Y72832D01*
X795236Y72872D01*
X795343Y72909D01*
X795451Y72942D01*
X795561Y72972D01*
X795671Y72997D01*
X795782Y73019D01*
X795894Y73036D01*
X796007Y73050D01*
X796120Y73060D01*
X796233Y73066D01*
X796346Y73068D01*
X796459Y73066D01*
X796572Y73060D01*
X796685Y73050D01*
X796798Y73036D01*
X796910Y73019D01*
X797021Y72997D01*
X797131Y72972D01*
X797241Y72942D01*
X797349Y72909D01*
X797456Y72872D01*
X797562Y72832D01*
X797666Y72787D01*
X797769Y72739D01*
X797870Y72688D01*
X797969Y72633D01*
X798066Y72575D01*
X798161Y72513D01*
X798254Y72448D01*
X798344Y72380D01*
X798432Y72309D01*
X798518Y72234D01*
X798601Y72157D01*
X798681Y72077D01*
X798758Y71994D01*
X798833Y71908D01*
X798904Y71820D01*
X798972Y71730D01*
X799037Y71637D01*
X799099Y71542D01*
X799157Y71445D01*
X799212Y71346D01*
X799263Y71245D01*
X799311Y71142D01*
X799356Y71038D01*
X799396Y70932D01*
X799433Y70825D01*
X799466Y70717D01*
X799496Y70607D01*
X799521Y70497D01*
X799543Y70386D01*
X799560Y70274D01*
X799574Y70161D01*
X799584Y70048D01*
X799590Y69935D01*
X799592Y69822D01*
X799592Y66576D01*
X787908Y66576D01*
X787908Y69822D01*
X787910Y69923D01*
X787916Y70023D01*
X787926Y70123D01*
X787939Y70223D01*
X787957Y70322D01*
X787978Y70421D01*
X788003Y70518D01*
X788032Y70615D01*
X788065Y70710D01*
X788101Y70804D01*
X788141Y70896D01*
X788184Y70987D01*
X788231Y71076D01*
X788281Y71163D01*
X788335Y71249D01*
X788392Y71332D01*
X788452Y71412D01*
X788515Y71491D01*
X788582Y71567D01*
X788651Y71640D01*
X788723Y71710D01*
X788797Y71778D01*
X788874Y71843D01*
X788954Y71904D01*
X789036Y71963D01*
X789120Y72018D01*
X789206Y72070D01*
X789294Y72119D01*
X789384Y72164D01*
X789476Y72206D01*
X789569Y72244D01*
X789664Y72278D01*
X789759Y72309D01*
X789856Y72336D01*
X789954Y72359D01*
X790053Y72379D01*
X790153Y72394D01*
X790253Y72406D01*
X790353Y72414D01*
X790454Y72418D01*
X790554Y72418D01*
X790655Y72414D01*
X790755Y72406D01*
X790855Y72394D01*
X790955Y72379D01*
X791054Y72359D01*
X791152Y72336D01*
X791249Y72309D01*
X791344Y72278D01*
X791439Y72244D01*
X791532Y72206D01*
X791624Y72164D01*
X791714Y72119D01*
X791802Y72070D01*
X791888Y72018D01*
X791972Y71963D01*
X792054Y71904D01*
X792134Y71843D01*
X792211Y71778D01*
X792285Y71710D01*
X792357Y71640D01*
X792426Y71567D01*
X792493Y71491D01*
X792556Y71412D01*
X792616Y71332D01*
X792673Y71249D01*
X792727Y71163D01*
X792777Y71076D01*
X792824Y70987D01*
X792867Y70896D01*
X792907Y70804D01*
X792943Y70710D01*
X792976Y70615D01*
X793005Y70518D01*
X793030Y70421D01*
X793051Y70322D01*
X793069Y70223D01*
X793082Y70123D01*
X793092Y70023D01*
X793098Y69923D01*
X793100Y69822D01*
X787908Y79940D02*
X799592Y79940D01*
X787908Y76694D02*
X787908Y83185D01*
X787908Y87743D02*
X799592Y87743D01*
X799592Y94234D02*
X787908Y87743D01*
X787908Y94234D02*
X799592Y94234D01*
X800890Y99060D02*
X800890Y104253D01*
X799592Y111261D02*
X799592Y113858D01*
X799592Y111261D02*
X799590Y111162D01*
X799584Y111062D01*
X799575Y110963D01*
X799562Y110865D01*
X799545Y110767D01*
X799524Y110669D01*
X799499Y110573D01*
X799471Y110478D01*
X799439Y110384D01*
X799404Y110291D01*
X799365Y110199D01*
X799322Y110109D01*
X799277Y110021D01*
X799227Y109934D01*
X799175Y109850D01*
X799119Y109767D01*
X799061Y109687D01*
X798999Y109609D01*
X798934Y109534D01*
X798866Y109461D01*
X798796Y109391D01*
X798723Y109323D01*
X798648Y109258D01*
X798570Y109196D01*
X798490Y109138D01*
X798407Y109082D01*
X798323Y109030D01*
X798236Y108980D01*
X798148Y108935D01*
X798058Y108892D01*
X797966Y108853D01*
X797873Y108818D01*
X797779Y108786D01*
X797684Y108758D01*
X797588Y108733D01*
X797490Y108712D01*
X797392Y108695D01*
X797294Y108682D01*
X797195Y108673D01*
X797095Y108667D01*
X796996Y108665D01*
X790504Y108665D01*
X790504Y108664D02*
X790405Y108666D01*
X790305Y108672D01*
X790206Y108681D01*
X790108Y108694D01*
X790010Y108712D01*
X789912Y108732D01*
X789816Y108757D01*
X789720Y108785D01*
X789626Y108817D01*
X789533Y108852D01*
X789442Y108891D01*
X789352Y108934D01*
X789263Y108979D01*
X789177Y109029D01*
X789092Y109081D01*
X789010Y109137D01*
X788930Y109196D01*
X788852Y109257D01*
X788776Y109322D01*
X788703Y109390D01*
X788633Y109460D01*
X788565Y109533D01*
X788500Y109609D01*
X788439Y109687D01*
X788380Y109767D01*
X788324Y109849D01*
X788272Y109934D01*
X788223Y110020D01*
X788177Y110109D01*
X788134Y110199D01*
X788095Y110290D01*
X788060Y110383D01*
X788028Y110477D01*
X788000Y110573D01*
X787975Y110669D01*
X787955Y110767D01*
X787937Y110865D01*
X787924Y110963D01*
X787915Y111062D01*
X787909Y111161D01*
X787907Y111261D01*
X787908Y111261D02*
X787908Y113858D01*
X791154Y118223D02*
X796346Y118223D01*
X791154Y118223D02*
X791041Y118225D01*
X790928Y118231D01*
X790815Y118241D01*
X790702Y118255D01*
X790590Y118272D01*
X790479Y118294D01*
X790369Y118319D01*
X790259Y118349D01*
X790151Y118382D01*
X790044Y118419D01*
X789938Y118459D01*
X789834Y118504D01*
X789731Y118552D01*
X789630Y118603D01*
X789531Y118658D01*
X789434Y118716D01*
X789339Y118778D01*
X789246Y118843D01*
X789156Y118911D01*
X789068Y118982D01*
X788982Y119057D01*
X788899Y119134D01*
X788819Y119214D01*
X788742Y119297D01*
X788667Y119383D01*
X788596Y119471D01*
X788528Y119561D01*
X788463Y119654D01*
X788401Y119749D01*
X788343Y119846D01*
X788288Y119945D01*
X788237Y120046D01*
X788189Y120149D01*
X788144Y120253D01*
X788104Y120359D01*
X788067Y120466D01*
X788034Y120574D01*
X788004Y120684D01*
X787979Y120794D01*
X787957Y120905D01*
X787940Y121017D01*
X787926Y121130D01*
X787916Y121243D01*
X787910Y121356D01*
X787908Y121469D01*
X787910Y121582D01*
X787916Y121695D01*
X787926Y121808D01*
X787940Y121921D01*
X787957Y122033D01*
X787979Y122144D01*
X788004Y122254D01*
X788034Y122364D01*
X788067Y122472D01*
X788104Y122579D01*
X788144Y122685D01*
X788189Y122789D01*
X788237Y122892D01*
X788288Y122993D01*
X788343Y123092D01*
X788401Y123189D01*
X788463Y123284D01*
X788528Y123377D01*
X788596Y123467D01*
X788667Y123555D01*
X788742Y123641D01*
X788819Y123724D01*
X788899Y123804D01*
X788982Y123881D01*
X789068Y123956D01*
X789156Y124027D01*
X789246Y124095D01*
X789339Y124160D01*
X789434Y124222D01*
X789531Y124280D01*
X789630Y124335D01*
X789731Y124386D01*
X789834Y124434D01*
X789938Y124479D01*
X790044Y124519D01*
X790151Y124556D01*
X790259Y124589D01*
X790369Y124619D01*
X790479Y124644D01*
X790590Y124666D01*
X790702Y124683D01*
X790815Y124697D01*
X790928Y124707D01*
X791041Y124713D01*
X791154Y124715D01*
X791154Y124714D02*
X796346Y124714D01*
X796346Y124715D02*
X796459Y124713D01*
X796572Y124707D01*
X796685Y124697D01*
X796798Y124683D01*
X796910Y124666D01*
X797021Y124644D01*
X797131Y124619D01*
X797241Y124589D01*
X797349Y124556D01*
X797456Y124519D01*
X797562Y124479D01*
X797666Y124434D01*
X797769Y124386D01*
X797870Y124335D01*
X797969Y124280D01*
X798066Y124222D01*
X798161Y124160D01*
X798254Y124095D01*
X798344Y124027D01*
X798432Y123956D01*
X798518Y123881D01*
X798601Y123804D01*
X798681Y123724D01*
X798758Y123641D01*
X798833Y123555D01*
X798904Y123467D01*
X798972Y123377D01*
X799037Y123284D01*
X799099Y123189D01*
X799157Y123092D01*
X799212Y122993D01*
X799263Y122892D01*
X799311Y122789D01*
X799356Y122685D01*
X799396Y122579D01*
X799433Y122472D01*
X799466Y122364D01*
X799496Y122254D01*
X799521Y122144D01*
X799543Y122033D01*
X799560Y121921D01*
X799574Y121808D01*
X799584Y121695D01*
X799590Y121582D01*
X799592Y121469D01*
X799590Y121356D01*
X799584Y121243D01*
X799574Y121130D01*
X799560Y121017D01*
X799543Y120905D01*
X799521Y120794D01*
X799496Y120684D01*
X799466Y120574D01*
X799433Y120466D01*
X799396Y120359D01*
X799356Y120253D01*
X799311Y120149D01*
X799263Y120046D01*
X799212Y119945D01*
X799157Y119846D01*
X799099Y119749D01*
X799037Y119654D01*
X798972Y119561D01*
X798904Y119471D01*
X798833Y119383D01*
X798758Y119297D01*
X798681Y119214D01*
X798601Y119134D01*
X798518Y119057D01*
X798432Y118982D01*
X798344Y118911D01*
X798254Y118843D01*
X798161Y118778D01*
X798066Y118716D01*
X797969Y118658D01*
X797870Y118603D01*
X797769Y118552D01*
X797666Y118504D01*
X797562Y118459D01*
X797456Y118419D01*
X797349Y118382D01*
X797241Y118349D01*
X797131Y118319D01*
X797021Y118294D01*
X796910Y118272D01*
X796798Y118255D01*
X796685Y118241D01*
X796572Y118231D01*
X796459Y118225D01*
X796346Y118223D01*
X799592Y130034D02*
X787908Y130034D01*
X799592Y136525D01*
X787908Y136525D01*
X787908Y142226D02*
X799592Y142226D01*
X799592Y148717D02*
X787908Y142226D01*
X787908Y148717D02*
X799592Y148717D01*
D13*
X373154Y31369D02*
X372082Y31369D01*
X372017Y31371D01*
X371953Y31377D01*
X371889Y31387D01*
X371825Y31400D01*
X371763Y31418D01*
X371702Y31439D01*
X371642Y31463D01*
X371584Y31492D01*
X371527Y31524D01*
X371473Y31559D01*
X371421Y31597D01*
X371371Y31639D01*
X371324Y31683D01*
X371280Y31730D01*
X371238Y31780D01*
X371200Y31832D01*
X371165Y31886D01*
X371133Y31943D01*
X371104Y32001D01*
X371080Y32061D01*
X371059Y32122D01*
X371041Y32184D01*
X371028Y32248D01*
X371018Y32312D01*
X371012Y32376D01*
X371010Y32441D01*
X371009Y32441D02*
X371009Y35123D01*
X371010Y35123D02*
X371012Y35188D01*
X371018Y35252D01*
X371028Y35316D01*
X371041Y35380D01*
X371059Y35442D01*
X371080Y35503D01*
X371104Y35563D01*
X371133Y35621D01*
X371165Y35678D01*
X371200Y35732D01*
X371238Y35784D01*
X371280Y35834D01*
X371324Y35881D01*
X371371Y35925D01*
X371421Y35967D01*
X371473Y36005D01*
X371527Y36040D01*
X371584Y36072D01*
X371642Y36101D01*
X371702Y36125D01*
X371763Y36146D01*
X371825Y36164D01*
X371889Y36177D01*
X371953Y36187D01*
X372017Y36193D01*
X372082Y36195D01*
X373154Y36195D01*
X375610Y35123D02*
X376950Y36195D01*
X376950Y31369D01*
X375610Y31369D02*
X378291Y31369D01*
X370411Y59944D02*
X369338Y59944D01*
X369273Y59946D01*
X369209Y59952D01*
X369145Y59962D01*
X369081Y59975D01*
X369019Y59993D01*
X368958Y60014D01*
X368898Y60038D01*
X368840Y60067D01*
X368783Y60099D01*
X368729Y60134D01*
X368677Y60172D01*
X368627Y60214D01*
X368580Y60258D01*
X368536Y60305D01*
X368494Y60355D01*
X368456Y60407D01*
X368421Y60461D01*
X368389Y60518D01*
X368360Y60576D01*
X368336Y60636D01*
X368315Y60697D01*
X368297Y60759D01*
X368284Y60823D01*
X368274Y60887D01*
X368268Y60951D01*
X368266Y61016D01*
X368266Y63698D01*
X368268Y63763D01*
X368274Y63827D01*
X368284Y63891D01*
X368297Y63955D01*
X368315Y64017D01*
X368336Y64078D01*
X368360Y64138D01*
X368389Y64196D01*
X368421Y64253D01*
X368456Y64307D01*
X368494Y64359D01*
X368536Y64409D01*
X368580Y64456D01*
X368627Y64500D01*
X368677Y64542D01*
X368729Y64580D01*
X368783Y64615D01*
X368840Y64647D01*
X368898Y64676D01*
X368958Y64700D01*
X369019Y64721D01*
X369081Y64739D01*
X369145Y64752D01*
X369209Y64762D01*
X369273Y64768D01*
X369338Y64770D01*
X370411Y64770D01*
X372867Y63698D02*
X374207Y64770D01*
X374207Y59944D01*
X372867Y59944D02*
X375548Y59944D01*
X378353Y62357D02*
X378355Y62477D01*
X378360Y62597D01*
X378369Y62717D01*
X378382Y62837D01*
X378398Y62956D01*
X378418Y63075D01*
X378442Y63193D01*
X378469Y63310D01*
X378499Y63426D01*
X378533Y63541D01*
X378571Y63656D01*
X378612Y63769D01*
X378656Y63880D01*
X378704Y63991D01*
X378755Y64100D01*
X378756Y64100D02*
X378777Y64157D01*
X378803Y64213D01*
X378831Y64268D01*
X378863Y64320D01*
X378899Y64371D01*
X378937Y64419D01*
X378978Y64465D01*
X379022Y64508D01*
X379068Y64548D01*
X379117Y64585D01*
X379169Y64619D01*
X379222Y64650D01*
X379277Y64678D01*
X379333Y64702D01*
X379391Y64723D01*
X379450Y64740D01*
X379510Y64753D01*
X379571Y64762D01*
X379633Y64768D01*
X379694Y64770D01*
X379755Y64768D01*
X379817Y64762D01*
X379878Y64753D01*
X379938Y64740D01*
X379997Y64723D01*
X380055Y64702D01*
X380111Y64678D01*
X380166Y64650D01*
X380219Y64619D01*
X380271Y64585D01*
X380320Y64548D01*
X380366Y64508D01*
X380410Y64465D01*
X380451Y64419D01*
X380489Y64371D01*
X380525Y64320D01*
X380557Y64268D01*
X380585Y64213D01*
X380611Y64157D01*
X380632Y64100D01*
X380683Y63991D01*
X380731Y63880D01*
X380775Y63769D01*
X380816Y63656D01*
X380854Y63541D01*
X380888Y63426D01*
X380918Y63310D01*
X380945Y63193D01*
X380969Y63075D01*
X380989Y62956D01*
X381005Y62837D01*
X381018Y62717D01*
X381027Y62597D01*
X381032Y62477D01*
X381034Y62357D01*
X378353Y62357D02*
X378355Y62237D01*
X378360Y62117D01*
X378369Y61997D01*
X378382Y61877D01*
X378398Y61758D01*
X378418Y61639D01*
X378442Y61521D01*
X378469Y61404D01*
X378499Y61288D01*
X378533Y61173D01*
X378571Y61058D01*
X378612Y60945D01*
X378656Y60834D01*
X378704Y60723D01*
X378755Y60614D01*
X378756Y60614D02*
X378777Y60557D01*
X378803Y60501D01*
X378831Y60446D01*
X378863Y60394D01*
X378899Y60343D01*
X378937Y60295D01*
X378978Y60249D01*
X379022Y60206D01*
X379068Y60166D01*
X379117Y60129D01*
X379169Y60095D01*
X379222Y60064D01*
X379277Y60036D01*
X379333Y60012D01*
X379391Y59991D01*
X379450Y59974D01*
X379510Y59961D01*
X379571Y59952D01*
X379633Y59946D01*
X379694Y59944D01*
X380632Y60614D02*
X380683Y60723D01*
X380731Y60834D01*
X380775Y60945D01*
X380816Y61058D01*
X380854Y61173D01*
X380888Y61288D01*
X380918Y61404D01*
X380945Y61521D01*
X380969Y61639D01*
X380989Y61758D01*
X381005Y61877D01*
X381018Y61997D01*
X381027Y62117D01*
X381032Y62237D01*
X381034Y62357D01*
X380632Y60614D02*
X380611Y60557D01*
X380585Y60501D01*
X380557Y60446D01*
X380525Y60394D01*
X380489Y60343D01*
X380451Y60295D01*
X380410Y60249D01*
X380366Y60206D01*
X380319Y60166D01*
X380271Y60129D01*
X380219Y60095D01*
X380166Y60064D01*
X380111Y60036D01*
X380055Y60012D01*
X379997Y59991D01*
X379938Y59974D01*
X379878Y59961D01*
X379817Y59952D01*
X379755Y59946D01*
X379694Y59944D01*
X378621Y61016D02*
X380766Y63698D01*
X479806Y46129D02*
X479806Y45057D01*
X479804Y44992D01*
X479798Y44928D01*
X479788Y44864D01*
X479775Y44800D01*
X479757Y44738D01*
X479736Y44677D01*
X479712Y44617D01*
X479683Y44559D01*
X479651Y44502D01*
X479616Y44448D01*
X479578Y44396D01*
X479536Y44346D01*
X479492Y44299D01*
X479445Y44255D01*
X479395Y44213D01*
X479343Y44175D01*
X479289Y44140D01*
X479232Y44108D01*
X479174Y44079D01*
X479114Y44055D01*
X479053Y44034D01*
X478991Y44016D01*
X478927Y44003D01*
X478863Y43993D01*
X478799Y43987D01*
X478734Y43985D01*
X478734Y43984D02*
X476052Y43984D01*
X475987Y43986D01*
X475923Y43992D01*
X475859Y44002D01*
X475795Y44015D01*
X475733Y44033D01*
X475672Y44054D01*
X475612Y44079D01*
X475553Y44107D01*
X475497Y44139D01*
X475442Y44174D01*
X475390Y44212D01*
X475340Y44254D01*
X475293Y44298D01*
X475249Y44345D01*
X475207Y44395D01*
X475169Y44447D01*
X475134Y44502D01*
X475102Y44558D01*
X475074Y44617D01*
X475049Y44676D01*
X475028Y44738D01*
X475010Y44800D01*
X474997Y44864D01*
X474987Y44928D01*
X474981Y44992D01*
X474979Y45057D01*
X474980Y45057D02*
X474980Y46129D01*
X474980Y48585D02*
X475516Y48585D01*
X474980Y48585D02*
X474980Y51266D01*
X479806Y49925D01*
D14*
X438050Y62150D02*
X425550Y62150D01*
X438050Y53450D02*
X438050Y35450D01*
X425550Y35450D02*
X425550Y53450D01*
D13*
X440055Y40275D02*
X444881Y40275D01*
X440055Y40275D02*
X440055Y41615D01*
X440057Y41685D01*
X440062Y41755D01*
X440072Y41825D01*
X440084Y41894D01*
X440101Y41962D01*
X440121Y42029D01*
X440144Y42096D01*
X440171Y42160D01*
X440201Y42224D01*
X440235Y42286D01*
X440271Y42345D01*
X440311Y42403D01*
X440354Y42459D01*
X440399Y42512D01*
X440448Y42563D01*
X440499Y42612D01*
X440552Y42657D01*
X440608Y42700D01*
X440666Y42740D01*
X440726Y42776D01*
X440787Y42810D01*
X440851Y42840D01*
X440915Y42867D01*
X440982Y42890D01*
X441049Y42910D01*
X441117Y42927D01*
X441186Y42939D01*
X441256Y42949D01*
X441326Y42954D01*
X441396Y42956D01*
X443540Y42956D01*
X443610Y42954D01*
X443680Y42949D01*
X443750Y42939D01*
X443819Y42927D01*
X443887Y42910D01*
X443954Y42890D01*
X444021Y42867D01*
X444085Y42840D01*
X444149Y42810D01*
X444211Y42776D01*
X444270Y42740D01*
X444328Y42700D01*
X444384Y42657D01*
X444437Y42612D01*
X444488Y42563D01*
X444537Y42512D01*
X444582Y42459D01*
X444625Y42403D01*
X444665Y42345D01*
X444701Y42285D01*
X444735Y42224D01*
X444765Y42160D01*
X444792Y42096D01*
X444815Y42029D01*
X444835Y41962D01*
X444852Y41894D01*
X444864Y41825D01*
X444874Y41755D01*
X444879Y41685D01*
X444881Y41615D01*
X444881Y40275D01*
X440055Y47419D02*
X440057Y47487D01*
X440063Y47554D01*
X440072Y47621D01*
X440085Y47688D01*
X440102Y47753D01*
X440123Y47818D01*
X440147Y47881D01*
X440175Y47943D01*
X440206Y48003D01*
X440240Y48061D01*
X440278Y48117D01*
X440318Y48172D01*
X440362Y48223D01*
X440409Y48272D01*
X440458Y48319D01*
X440509Y48363D01*
X440564Y48403D01*
X440620Y48441D01*
X440678Y48475D01*
X440738Y48506D01*
X440800Y48534D01*
X440863Y48558D01*
X440928Y48579D01*
X440993Y48596D01*
X441060Y48609D01*
X441127Y48618D01*
X441194Y48624D01*
X441262Y48626D01*
X440055Y47419D02*
X440057Y47341D01*
X440063Y47263D01*
X440073Y47186D01*
X440086Y47109D01*
X440104Y47033D01*
X440125Y46958D01*
X440150Y46884D01*
X440179Y46812D01*
X440211Y46741D01*
X440247Y46672D01*
X440286Y46604D01*
X440329Y46539D01*
X440375Y46476D01*
X440424Y46415D01*
X440476Y46357D01*
X440531Y46302D01*
X440588Y46249D01*
X440648Y46200D01*
X440711Y46153D01*
X440776Y46110D01*
X440842Y46070D01*
X440911Y46033D01*
X440982Y46000D01*
X441054Y45970D01*
X441128Y45944D01*
X442200Y48223D02*
X442151Y48272D01*
X442099Y48319D01*
X442044Y48362D01*
X441987Y48403D01*
X441928Y48441D01*
X441867Y48475D01*
X441804Y48506D01*
X441740Y48534D01*
X441674Y48558D01*
X441608Y48578D01*
X441540Y48595D01*
X441471Y48608D01*
X441402Y48617D01*
X441332Y48623D01*
X441262Y48625D01*
X442200Y48223D02*
X444881Y45944D01*
X444881Y48625D01*
D14*
X319088Y292100D02*
X309563Y292100D01*
D13*
X321310Y303800D02*
X326136Y303800D01*
X321310Y303800D02*
X321310Y305140D01*
X321312Y305210D01*
X321317Y305280D01*
X321327Y305350D01*
X321339Y305419D01*
X321356Y305487D01*
X321376Y305554D01*
X321399Y305621D01*
X321426Y305685D01*
X321456Y305749D01*
X321490Y305811D01*
X321526Y305870D01*
X321566Y305928D01*
X321609Y305984D01*
X321654Y306037D01*
X321703Y306088D01*
X321754Y306137D01*
X321807Y306182D01*
X321863Y306225D01*
X321921Y306265D01*
X321981Y306301D01*
X322042Y306335D01*
X322106Y306365D01*
X322170Y306392D01*
X322237Y306415D01*
X322304Y306435D01*
X322372Y306452D01*
X322441Y306464D01*
X322511Y306474D01*
X322581Y306479D01*
X322651Y306481D01*
X324795Y306481D01*
X324865Y306479D01*
X324935Y306474D01*
X325005Y306464D01*
X325074Y306452D01*
X325142Y306435D01*
X325209Y306415D01*
X325276Y306392D01*
X325340Y306365D01*
X325404Y306335D01*
X325466Y306301D01*
X325525Y306265D01*
X325583Y306225D01*
X325639Y306182D01*
X325692Y306137D01*
X325743Y306088D01*
X325792Y306037D01*
X325837Y305984D01*
X325880Y305928D01*
X325920Y305870D01*
X325956Y305810D01*
X325990Y305749D01*
X326020Y305685D01*
X326047Y305621D01*
X326070Y305554D01*
X326090Y305487D01*
X326107Y305419D01*
X326119Y305350D01*
X326129Y305280D01*
X326134Y305210D01*
X326136Y305140D01*
X326136Y303800D01*
X326136Y309469D02*
X326136Y310810D01*
X326134Y310881D01*
X326128Y310953D01*
X326119Y311023D01*
X326106Y311093D01*
X326089Y311163D01*
X326068Y311231D01*
X326044Y311298D01*
X326016Y311364D01*
X325985Y311428D01*
X325950Y311491D01*
X325912Y311551D01*
X325871Y311610D01*
X325827Y311666D01*
X325780Y311720D01*
X325731Y311771D01*
X325678Y311819D01*
X325623Y311865D01*
X325566Y311907D01*
X325506Y311947D01*
X325445Y311983D01*
X325381Y312016D01*
X325316Y312045D01*
X325250Y312071D01*
X325182Y312094D01*
X325113Y312113D01*
X325043Y312128D01*
X324973Y312139D01*
X324902Y312147D01*
X324831Y312151D01*
X324759Y312151D01*
X324688Y312147D01*
X324617Y312139D01*
X324547Y312128D01*
X324477Y312113D01*
X324408Y312094D01*
X324340Y312071D01*
X324274Y312045D01*
X324209Y312016D01*
X324145Y311983D01*
X324084Y311947D01*
X324024Y311907D01*
X323967Y311865D01*
X323912Y311819D01*
X323859Y311771D01*
X323810Y311720D01*
X323763Y311666D01*
X323719Y311610D01*
X323678Y311551D01*
X323640Y311491D01*
X323605Y311428D01*
X323574Y311364D01*
X323546Y311298D01*
X323522Y311231D01*
X323501Y311163D01*
X323484Y311093D01*
X323471Y311023D01*
X323462Y310953D01*
X323456Y310881D01*
X323454Y310810D01*
X321310Y311078D02*
X321310Y309469D01*
X321310Y311078D02*
X321312Y311143D01*
X321318Y311207D01*
X321328Y311271D01*
X321341Y311335D01*
X321359Y311397D01*
X321380Y311458D01*
X321404Y311518D01*
X321433Y311576D01*
X321465Y311633D01*
X321500Y311687D01*
X321538Y311739D01*
X321580Y311789D01*
X321624Y311836D01*
X321671Y311880D01*
X321721Y311922D01*
X321773Y311960D01*
X321827Y311995D01*
X321884Y312027D01*
X321942Y312056D01*
X322002Y312080D01*
X322063Y312101D01*
X322125Y312119D01*
X322189Y312132D01*
X322253Y312142D01*
X322317Y312148D01*
X322382Y312150D01*
X322447Y312148D01*
X322511Y312142D01*
X322575Y312132D01*
X322639Y312119D01*
X322701Y312101D01*
X322762Y312080D01*
X322822Y312056D01*
X322880Y312027D01*
X322937Y311995D01*
X322991Y311960D01*
X323043Y311922D01*
X323093Y311880D01*
X323140Y311836D01*
X323184Y311789D01*
X323226Y311739D01*
X323264Y311687D01*
X323299Y311633D01*
X323331Y311576D01*
X323360Y311518D01*
X323384Y311458D01*
X323405Y311397D01*
X323423Y311335D01*
X323436Y311271D01*
X323446Y311207D01*
X323452Y311143D01*
X323454Y311078D01*
X323455Y311078D02*
X323455Y310005D01*
D15*
X324625Y271050D02*
X324625Y266050D01*
X324625Y271050D02*
X304625Y271050D01*
X164625Y271050D02*
X144625Y271050D01*
X144625Y266050D01*
X324625Y78550D02*
X324625Y16050D01*
X144625Y16050D01*
X144625Y78550D01*
D16*
X335625Y89550D03*
D17*
X335563Y89552D01*
X335502Y89558D01*
X335441Y89567D01*
X335381Y89580D01*
X335322Y89597D01*
X335264Y89618D01*
X335207Y89642D01*
X335152Y89669D01*
X335099Y89700D01*
X335047Y89734D01*
X334998Y89771D01*
X334951Y89811D01*
X334907Y89854D01*
X334866Y89899D01*
X334827Y89947D01*
X334791Y89998D01*
X334759Y90050D01*
X334730Y90104D01*
X334704Y90160D01*
X334682Y90218D01*
X334663Y90276D01*
X334648Y90336D01*
X334637Y90397D01*
X334629Y90458D01*
X334625Y90519D01*
X334625Y90581D01*
X334629Y90642D01*
X334637Y90703D01*
X334648Y90764D01*
X334663Y90824D01*
X334682Y90882D01*
X334704Y90940D01*
X334730Y90996D01*
X334759Y91050D01*
X334791Y91102D01*
X334827Y91153D01*
X334866Y91201D01*
X334907Y91246D01*
X334951Y91289D01*
X334998Y91329D01*
X335047Y91366D01*
X335099Y91400D01*
X335152Y91431D01*
X335207Y91458D01*
X335264Y91482D01*
X335322Y91503D01*
X335381Y91520D01*
X335441Y91533D01*
X335502Y91542D01*
X335563Y91548D01*
X335625Y91550D01*
D16*
X335625Y91550D03*
D17*
X335687Y91548D01*
X335748Y91542D01*
X335809Y91533D01*
X335869Y91520D01*
X335928Y91503D01*
X335986Y91482D01*
X336043Y91458D01*
X336098Y91431D01*
X336151Y91400D01*
X336203Y91366D01*
X336252Y91329D01*
X336299Y91289D01*
X336343Y91246D01*
X336384Y91201D01*
X336423Y91153D01*
X336459Y91102D01*
X336491Y91050D01*
X336520Y90996D01*
X336546Y90940D01*
X336568Y90882D01*
X336587Y90824D01*
X336602Y90764D01*
X336613Y90703D01*
X336621Y90642D01*
X336625Y90581D01*
X336625Y90519D01*
X336621Y90458D01*
X336613Y90397D01*
X336602Y90336D01*
X336587Y90276D01*
X336568Y90218D01*
X336546Y90160D01*
X336520Y90104D01*
X336491Y90050D01*
X336459Y89998D01*
X336423Y89947D01*
X336384Y89899D01*
X336343Y89854D01*
X336299Y89811D01*
X336252Y89771D01*
X336203Y89734D01*
X336151Y89700D01*
X336098Y89669D01*
X336043Y89642D01*
X335986Y89618D01*
X335928Y89597D01*
X335869Y89580D01*
X335809Y89567D01*
X335748Y89558D01*
X335687Y89552D01*
X335625Y89550D01*
D12*
X227817Y140208D02*
X227817Y151892D01*
X226519Y140208D02*
X229115Y140208D01*
X229115Y151892D02*
X226519Y151892D01*
X236279Y140208D02*
X238875Y140208D01*
X236279Y140208D02*
X236180Y140210D01*
X236080Y140216D01*
X235981Y140225D01*
X235883Y140238D01*
X235785Y140255D01*
X235687Y140276D01*
X235591Y140301D01*
X235496Y140329D01*
X235402Y140361D01*
X235309Y140396D01*
X235217Y140435D01*
X235127Y140478D01*
X235039Y140523D01*
X234952Y140573D01*
X234868Y140625D01*
X234785Y140681D01*
X234705Y140739D01*
X234627Y140801D01*
X234552Y140866D01*
X234479Y140934D01*
X234409Y141004D01*
X234341Y141077D01*
X234276Y141152D01*
X234214Y141230D01*
X234156Y141310D01*
X234100Y141393D01*
X234048Y141477D01*
X233998Y141564D01*
X233953Y141652D01*
X233910Y141742D01*
X233871Y141834D01*
X233836Y141927D01*
X233804Y142021D01*
X233776Y142116D01*
X233751Y142212D01*
X233730Y142310D01*
X233713Y142408D01*
X233700Y142506D01*
X233691Y142605D01*
X233685Y142705D01*
X233683Y142804D01*
X233682Y142804D02*
X233682Y149296D01*
X233683Y149296D02*
X233685Y149395D01*
X233691Y149495D01*
X233700Y149594D01*
X233713Y149692D01*
X233730Y149790D01*
X233751Y149888D01*
X233776Y149984D01*
X233804Y150079D01*
X233836Y150173D01*
X233871Y150266D01*
X233910Y150358D01*
X233953Y150448D01*
X233998Y150536D01*
X234048Y150623D01*
X234100Y150707D01*
X234156Y150790D01*
X234214Y150870D01*
X234276Y150948D01*
X234341Y151023D01*
X234409Y151096D01*
X234479Y151166D01*
X234552Y151234D01*
X234627Y151299D01*
X234705Y151361D01*
X234785Y151419D01*
X234868Y151475D01*
X234952Y151527D01*
X235039Y151577D01*
X235127Y151622D01*
X235217Y151665D01*
X235309Y151704D01*
X235401Y151739D01*
X235496Y151771D01*
X235591Y151799D01*
X235687Y151824D01*
X235785Y151845D01*
X235883Y151862D01*
X235981Y151875D01*
X236080Y151884D01*
X236180Y151890D01*
X236279Y151892D01*
X238875Y151892D01*
X243240Y149296D02*
X246486Y151892D01*
X246486Y140208D01*
X249731Y140208D02*
X243240Y140208D01*
D13*
X50800Y272450D02*
X-1200Y272450D01*
X-1200Y197450D01*
X50800Y197450D01*
X50800Y272450D01*
D18*
X55118Y192786D02*
X55118Y189230D01*
X55116Y189169D01*
X55111Y189108D01*
X55101Y189047D01*
X55088Y188987D01*
X55072Y188928D01*
X55052Y188870D01*
X55028Y188813D01*
X55002Y188758D01*
X54971Y188704D01*
X54938Y188653D01*
X54902Y188603D01*
X54862Y188556D01*
X54820Y188512D01*
X54776Y188470D01*
X54729Y188430D01*
X54679Y188394D01*
X54628Y188361D01*
X54574Y188330D01*
X54519Y188304D01*
X54462Y188280D01*
X54404Y188260D01*
X54345Y188244D01*
X54285Y188231D01*
X54224Y188221D01*
X54163Y188216D01*
X54102Y188214D01*
X53594Y188214D01*
X57281Y188214D02*
X58805Y188214D01*
X58866Y188216D01*
X58927Y188221D01*
X58988Y188231D01*
X59048Y188244D01*
X59107Y188260D01*
X59165Y188280D01*
X59222Y188304D01*
X59277Y188330D01*
X59331Y188361D01*
X59382Y188394D01*
X59432Y188430D01*
X59479Y188470D01*
X59523Y188512D01*
X59565Y188556D01*
X59605Y188603D01*
X59641Y188653D01*
X59674Y188704D01*
X59705Y188758D01*
X59731Y188813D01*
X59755Y188870D01*
X59775Y188928D01*
X59791Y188987D01*
X59804Y189047D01*
X59814Y189108D01*
X59819Y189169D01*
X59821Y189230D01*
X59821Y189738D01*
X59819Y189799D01*
X59814Y189860D01*
X59804Y189921D01*
X59791Y189981D01*
X59775Y190040D01*
X59755Y190098D01*
X59731Y190155D01*
X59705Y190210D01*
X59674Y190264D01*
X59641Y190315D01*
X59605Y190365D01*
X59565Y190412D01*
X59523Y190456D01*
X59479Y190498D01*
X59432Y190538D01*
X59382Y190574D01*
X59331Y190607D01*
X59277Y190638D01*
X59222Y190664D01*
X59165Y190688D01*
X59107Y190708D01*
X59048Y190724D01*
X58988Y190737D01*
X58927Y190747D01*
X58866Y190752D01*
X58805Y190754D01*
X57281Y190754D01*
X57281Y192786D01*
X59821Y192786D01*
D19*
X95885Y105410D03*
D14*
X93726Y101473D02*
X93726Y87757D01*
X71374Y87757D02*
X71374Y102743D01*
X92329Y87757D02*
X93726Y87757D01*
X72771Y87757D02*
X71374Y87757D01*
X92329Y102743D02*
X93726Y101473D01*
X72771Y102743D02*
X71374Y102743D01*
D13*
X78663Y79304D02*
X78663Y77160D01*
X78663Y79304D02*
X78665Y79375D01*
X78671Y79447D01*
X78680Y79517D01*
X78693Y79587D01*
X78710Y79657D01*
X78731Y79725D01*
X78755Y79792D01*
X78783Y79858D01*
X78814Y79922D01*
X78849Y79985D01*
X78887Y80045D01*
X78928Y80104D01*
X78972Y80160D01*
X79019Y80214D01*
X79068Y80265D01*
X79121Y80313D01*
X79176Y80359D01*
X79233Y80401D01*
X79293Y80441D01*
X79354Y80477D01*
X79418Y80510D01*
X79483Y80539D01*
X79549Y80565D01*
X79617Y80588D01*
X79686Y80607D01*
X79756Y80622D01*
X79826Y80633D01*
X79897Y80641D01*
X79968Y80645D01*
X80040Y80645D01*
X80111Y80641D01*
X80182Y80633D01*
X80252Y80622D01*
X80322Y80607D01*
X80391Y80588D01*
X80459Y80565D01*
X80525Y80539D01*
X80590Y80510D01*
X80654Y80477D01*
X80715Y80441D01*
X80775Y80401D01*
X80832Y80359D01*
X80887Y80313D01*
X80940Y80265D01*
X80989Y80214D01*
X81036Y80160D01*
X81080Y80104D01*
X81121Y80045D01*
X81159Y79985D01*
X81194Y79922D01*
X81225Y79858D01*
X81253Y79792D01*
X81277Y79725D01*
X81298Y79657D01*
X81315Y79587D01*
X81328Y79517D01*
X81337Y79447D01*
X81343Y79375D01*
X81345Y79304D01*
X81344Y79304D02*
X81344Y77160D01*
X81345Y77160D02*
X81343Y77089D01*
X81337Y77017D01*
X81328Y76947D01*
X81315Y76877D01*
X81298Y76807D01*
X81277Y76739D01*
X81253Y76672D01*
X81225Y76606D01*
X81194Y76542D01*
X81159Y76479D01*
X81121Y76419D01*
X81080Y76360D01*
X81036Y76304D01*
X80989Y76250D01*
X80940Y76199D01*
X80887Y76151D01*
X80832Y76105D01*
X80775Y76063D01*
X80715Y76023D01*
X80654Y75987D01*
X80590Y75954D01*
X80525Y75925D01*
X80459Y75899D01*
X80391Y75876D01*
X80322Y75857D01*
X80252Y75842D01*
X80182Y75831D01*
X80111Y75823D01*
X80040Y75819D01*
X79968Y75819D01*
X79897Y75823D01*
X79826Y75831D01*
X79756Y75842D01*
X79686Y75857D01*
X79617Y75876D01*
X79549Y75899D01*
X79483Y75925D01*
X79418Y75954D01*
X79354Y75987D01*
X79293Y76023D01*
X79233Y76063D01*
X79176Y76105D01*
X79121Y76151D01*
X79068Y76199D01*
X79019Y76250D01*
X78972Y76304D01*
X78928Y76360D01*
X78887Y76419D01*
X78849Y76479D01*
X78814Y76542D01*
X78783Y76606D01*
X78755Y76672D01*
X78731Y76739D01*
X78710Y76807D01*
X78693Y76877D01*
X78680Y76947D01*
X78671Y77017D01*
X78665Y77089D01*
X78663Y77160D01*
X80808Y76891D02*
X81881Y75819D01*
X86437Y79438D02*
X86435Y79506D01*
X86429Y79573D01*
X86420Y79640D01*
X86407Y79707D01*
X86390Y79772D01*
X86369Y79837D01*
X86345Y79900D01*
X86317Y79962D01*
X86286Y80022D01*
X86252Y80080D01*
X86214Y80136D01*
X86174Y80191D01*
X86130Y80242D01*
X86083Y80291D01*
X86034Y80338D01*
X85983Y80382D01*
X85928Y80422D01*
X85872Y80460D01*
X85814Y80494D01*
X85754Y80525D01*
X85692Y80553D01*
X85629Y80577D01*
X85564Y80598D01*
X85499Y80615D01*
X85432Y80628D01*
X85365Y80637D01*
X85298Y80643D01*
X85230Y80645D01*
X85152Y80643D01*
X85074Y80637D01*
X84997Y80627D01*
X84920Y80614D01*
X84844Y80596D01*
X84769Y80575D01*
X84695Y80550D01*
X84623Y80521D01*
X84552Y80489D01*
X84483Y80453D01*
X84415Y80414D01*
X84350Y80371D01*
X84287Y80325D01*
X84226Y80276D01*
X84168Y80224D01*
X84113Y80169D01*
X84060Y80112D01*
X84011Y80052D01*
X83964Y79989D01*
X83921Y79925D01*
X83881Y79858D01*
X83844Y79789D01*
X83811Y79718D01*
X83781Y79646D01*
X83755Y79573D01*
X86035Y78500D02*
X86084Y78549D01*
X86131Y78601D01*
X86174Y78656D01*
X86215Y78713D01*
X86253Y78772D01*
X86287Y78833D01*
X86318Y78896D01*
X86346Y78960D01*
X86370Y79026D01*
X86390Y79092D01*
X86407Y79160D01*
X86420Y79229D01*
X86429Y79298D01*
X86435Y79368D01*
X86437Y79438D01*
X86035Y78500D02*
X83756Y75819D01*
X86437Y75819D01*
X13970Y148348D02*
X9144Y148348D01*
X9144Y149689D01*
X9146Y149760D01*
X9152Y149832D01*
X9161Y149902D01*
X9174Y149972D01*
X9191Y150042D01*
X9212Y150110D01*
X9236Y150177D01*
X9264Y150243D01*
X9295Y150307D01*
X9330Y150370D01*
X9368Y150430D01*
X9409Y150489D01*
X9453Y150545D01*
X9500Y150599D01*
X9549Y150650D01*
X9602Y150698D01*
X9657Y150744D01*
X9714Y150786D01*
X9774Y150826D01*
X9835Y150862D01*
X9899Y150895D01*
X9964Y150924D01*
X10030Y150950D01*
X10098Y150973D01*
X10167Y150992D01*
X10237Y151007D01*
X10307Y151018D01*
X10378Y151026D01*
X10449Y151030D01*
X10521Y151030D01*
X10592Y151026D01*
X10663Y151018D01*
X10733Y151007D01*
X10803Y150992D01*
X10872Y150973D01*
X10940Y150950D01*
X11006Y150924D01*
X11071Y150895D01*
X11135Y150862D01*
X11196Y150826D01*
X11256Y150786D01*
X11313Y150744D01*
X11368Y150698D01*
X11421Y150650D01*
X11470Y150599D01*
X11517Y150545D01*
X11561Y150489D01*
X11602Y150430D01*
X11640Y150370D01*
X11675Y150307D01*
X11706Y150243D01*
X11734Y150177D01*
X11758Y150110D01*
X11779Y150042D01*
X11796Y149972D01*
X11809Y149902D01*
X11818Y149832D01*
X11824Y149760D01*
X11826Y149689D01*
X11825Y149689D02*
X11825Y148348D01*
X11825Y149957D02*
X13970Y151029D01*
X10216Y153771D02*
X9144Y155111D01*
X13970Y155111D01*
X13970Y153771D02*
X13970Y156452D01*
X125730Y85280D02*
X130556Y85280D01*
X125730Y85280D02*
X125730Y86620D01*
X125732Y86691D01*
X125738Y86763D01*
X125747Y86833D01*
X125760Y86903D01*
X125777Y86973D01*
X125798Y87041D01*
X125822Y87108D01*
X125850Y87174D01*
X125881Y87238D01*
X125916Y87301D01*
X125954Y87361D01*
X125995Y87420D01*
X126039Y87476D01*
X126086Y87530D01*
X126135Y87581D01*
X126188Y87629D01*
X126243Y87675D01*
X126300Y87717D01*
X126360Y87757D01*
X126421Y87793D01*
X126485Y87826D01*
X126550Y87855D01*
X126616Y87881D01*
X126684Y87904D01*
X126753Y87923D01*
X126823Y87938D01*
X126893Y87949D01*
X126964Y87957D01*
X127035Y87961D01*
X127107Y87961D01*
X127178Y87957D01*
X127249Y87949D01*
X127319Y87938D01*
X127389Y87923D01*
X127458Y87904D01*
X127526Y87881D01*
X127592Y87855D01*
X127657Y87826D01*
X127721Y87793D01*
X127782Y87757D01*
X127842Y87717D01*
X127899Y87675D01*
X127954Y87629D01*
X128007Y87581D01*
X128056Y87530D01*
X128103Y87476D01*
X128147Y87420D01*
X128188Y87361D01*
X128226Y87301D01*
X128261Y87238D01*
X128292Y87174D01*
X128320Y87108D01*
X128344Y87041D01*
X128365Y86973D01*
X128382Y86903D01*
X128395Y86833D01*
X128404Y86763D01*
X128410Y86691D01*
X128412Y86620D01*
X128411Y86620D02*
X128411Y85280D01*
X128411Y86889D02*
X130556Y87961D01*
X126802Y90703D02*
X125730Y92043D01*
X130556Y92043D01*
X130556Y90703D02*
X130556Y93384D01*
X126266Y96189D02*
X125730Y96189D01*
X125730Y98870D01*
X130556Y97529D01*
X82105Y73406D02*
X82105Y68580D01*
X82105Y73406D02*
X83446Y73406D01*
X83517Y73404D01*
X83589Y73398D01*
X83659Y73389D01*
X83729Y73376D01*
X83799Y73359D01*
X83867Y73338D01*
X83934Y73314D01*
X84000Y73286D01*
X84064Y73255D01*
X84127Y73220D01*
X84187Y73182D01*
X84246Y73141D01*
X84302Y73097D01*
X84356Y73050D01*
X84407Y73001D01*
X84455Y72948D01*
X84501Y72893D01*
X84543Y72836D01*
X84583Y72776D01*
X84619Y72715D01*
X84652Y72651D01*
X84681Y72586D01*
X84707Y72520D01*
X84730Y72452D01*
X84749Y72383D01*
X84764Y72313D01*
X84775Y72243D01*
X84783Y72172D01*
X84787Y72101D01*
X84787Y72029D01*
X84783Y71958D01*
X84775Y71887D01*
X84764Y71817D01*
X84749Y71747D01*
X84730Y71678D01*
X84707Y71610D01*
X84681Y71544D01*
X84652Y71479D01*
X84619Y71415D01*
X84583Y71354D01*
X84543Y71294D01*
X84501Y71237D01*
X84455Y71182D01*
X84407Y71129D01*
X84356Y71080D01*
X84302Y71033D01*
X84246Y70989D01*
X84187Y70948D01*
X84127Y70910D01*
X84064Y70875D01*
X84000Y70844D01*
X83934Y70816D01*
X83867Y70792D01*
X83799Y70771D01*
X83729Y70754D01*
X83659Y70741D01*
X83589Y70732D01*
X83517Y70726D01*
X83446Y70724D01*
X83446Y70725D02*
X82105Y70725D01*
X83714Y70725D02*
X84786Y68580D01*
X87528Y72334D02*
X88868Y73406D01*
X88868Y68580D01*
X87528Y68580D02*
X90209Y68580D01*
X93014Y69921D02*
X93016Y69992D01*
X93022Y70064D01*
X93031Y70134D01*
X93044Y70204D01*
X93061Y70274D01*
X93082Y70342D01*
X93106Y70409D01*
X93134Y70475D01*
X93165Y70539D01*
X93200Y70602D01*
X93238Y70662D01*
X93279Y70721D01*
X93323Y70777D01*
X93370Y70831D01*
X93419Y70882D01*
X93472Y70930D01*
X93527Y70976D01*
X93584Y71018D01*
X93644Y71058D01*
X93705Y71094D01*
X93769Y71127D01*
X93834Y71156D01*
X93900Y71182D01*
X93968Y71205D01*
X94037Y71224D01*
X94107Y71239D01*
X94177Y71250D01*
X94248Y71258D01*
X94319Y71262D01*
X94391Y71262D01*
X94462Y71258D01*
X94533Y71250D01*
X94603Y71239D01*
X94673Y71224D01*
X94742Y71205D01*
X94810Y71182D01*
X94876Y71156D01*
X94941Y71127D01*
X95005Y71094D01*
X95066Y71058D01*
X95126Y71018D01*
X95183Y70976D01*
X95238Y70930D01*
X95291Y70882D01*
X95340Y70831D01*
X95387Y70777D01*
X95431Y70721D01*
X95472Y70662D01*
X95510Y70602D01*
X95545Y70539D01*
X95576Y70475D01*
X95604Y70409D01*
X95628Y70342D01*
X95649Y70274D01*
X95666Y70204D01*
X95679Y70134D01*
X95688Y70064D01*
X95694Y69992D01*
X95696Y69921D01*
X95694Y69850D01*
X95688Y69778D01*
X95679Y69708D01*
X95666Y69638D01*
X95649Y69568D01*
X95628Y69500D01*
X95604Y69433D01*
X95576Y69367D01*
X95545Y69303D01*
X95510Y69240D01*
X95472Y69180D01*
X95431Y69121D01*
X95387Y69065D01*
X95340Y69011D01*
X95291Y68960D01*
X95238Y68912D01*
X95183Y68866D01*
X95126Y68824D01*
X95066Y68784D01*
X95005Y68748D01*
X94941Y68715D01*
X94876Y68686D01*
X94810Y68660D01*
X94742Y68637D01*
X94673Y68618D01*
X94603Y68603D01*
X94533Y68592D01*
X94462Y68584D01*
X94391Y68580D01*
X94319Y68580D01*
X94248Y68584D01*
X94177Y68592D01*
X94107Y68603D01*
X94037Y68618D01*
X93968Y68637D01*
X93900Y68660D01*
X93834Y68686D01*
X93769Y68715D01*
X93705Y68748D01*
X93644Y68784D01*
X93584Y68824D01*
X93527Y68866D01*
X93472Y68912D01*
X93419Y68960D01*
X93370Y69011D01*
X93323Y69065D01*
X93279Y69121D01*
X93238Y69180D01*
X93200Y69240D01*
X93165Y69303D01*
X93134Y69367D01*
X93106Y69433D01*
X93082Y69500D01*
X93061Y69568D01*
X93044Y69638D01*
X93031Y69708D01*
X93022Y69778D01*
X93016Y69850D01*
X93014Y69921D01*
X93283Y72334D02*
X93285Y72399D01*
X93291Y72463D01*
X93301Y72527D01*
X93314Y72591D01*
X93332Y72653D01*
X93353Y72714D01*
X93377Y72774D01*
X93406Y72832D01*
X93438Y72889D01*
X93473Y72943D01*
X93511Y72995D01*
X93553Y73045D01*
X93597Y73092D01*
X93644Y73136D01*
X93694Y73178D01*
X93746Y73216D01*
X93800Y73251D01*
X93857Y73283D01*
X93915Y73312D01*
X93975Y73336D01*
X94036Y73357D01*
X94098Y73375D01*
X94162Y73388D01*
X94226Y73398D01*
X94290Y73404D01*
X94355Y73406D01*
X94420Y73404D01*
X94484Y73398D01*
X94548Y73388D01*
X94612Y73375D01*
X94674Y73357D01*
X94735Y73336D01*
X94795Y73312D01*
X94853Y73283D01*
X94910Y73251D01*
X94964Y73216D01*
X95016Y73178D01*
X95066Y73136D01*
X95113Y73092D01*
X95157Y73045D01*
X95199Y72995D01*
X95237Y72943D01*
X95272Y72889D01*
X95304Y72832D01*
X95333Y72774D01*
X95357Y72714D01*
X95378Y72653D01*
X95396Y72591D01*
X95409Y72527D01*
X95419Y72463D01*
X95425Y72399D01*
X95427Y72334D01*
X95425Y72269D01*
X95419Y72205D01*
X95409Y72141D01*
X95396Y72077D01*
X95378Y72015D01*
X95357Y71954D01*
X95333Y71894D01*
X95304Y71836D01*
X95272Y71779D01*
X95237Y71725D01*
X95199Y71673D01*
X95157Y71623D01*
X95113Y71576D01*
X95066Y71532D01*
X95016Y71490D01*
X94964Y71452D01*
X94910Y71417D01*
X94853Y71385D01*
X94795Y71356D01*
X94735Y71332D01*
X94674Y71311D01*
X94612Y71293D01*
X94548Y71280D01*
X94484Y71270D01*
X94420Y71264D01*
X94355Y71262D01*
X94290Y71264D01*
X94226Y71270D01*
X94162Y71280D01*
X94098Y71293D01*
X94036Y71311D01*
X93975Y71332D01*
X93915Y71356D01*
X93857Y71385D01*
X93800Y71417D01*
X93746Y71452D01*
X93694Y71490D01*
X93644Y71532D01*
X93597Y71576D01*
X93553Y71623D01*
X93511Y71673D01*
X93473Y71725D01*
X93438Y71779D01*
X93406Y71836D01*
X93377Y71894D01*
X93353Y71954D01*
X93332Y72015D01*
X93314Y72077D01*
X93301Y72141D01*
X93291Y72205D01*
X93285Y72269D01*
X93283Y72334D01*
X13970Y107073D02*
X9144Y107073D01*
X9144Y108414D01*
X9146Y108485D01*
X9152Y108557D01*
X9161Y108627D01*
X9174Y108697D01*
X9191Y108767D01*
X9212Y108835D01*
X9236Y108902D01*
X9264Y108968D01*
X9295Y109032D01*
X9330Y109095D01*
X9368Y109155D01*
X9409Y109214D01*
X9453Y109270D01*
X9500Y109324D01*
X9549Y109375D01*
X9602Y109423D01*
X9657Y109469D01*
X9714Y109511D01*
X9774Y109551D01*
X9835Y109587D01*
X9899Y109620D01*
X9964Y109649D01*
X10030Y109675D01*
X10098Y109698D01*
X10167Y109717D01*
X10237Y109732D01*
X10307Y109743D01*
X10378Y109751D01*
X10449Y109755D01*
X10521Y109755D01*
X10592Y109751D01*
X10663Y109743D01*
X10733Y109732D01*
X10803Y109717D01*
X10872Y109698D01*
X10940Y109675D01*
X11006Y109649D01*
X11071Y109620D01*
X11135Y109587D01*
X11196Y109551D01*
X11256Y109511D01*
X11313Y109469D01*
X11368Y109423D01*
X11421Y109375D01*
X11470Y109324D01*
X11517Y109270D01*
X11561Y109214D01*
X11602Y109155D01*
X11640Y109095D01*
X11675Y109032D01*
X11706Y108968D01*
X11734Y108902D01*
X11758Y108835D01*
X11779Y108767D01*
X11796Y108697D01*
X11809Y108627D01*
X11818Y108557D01*
X11824Y108485D01*
X11826Y108414D01*
X11825Y108414D02*
X11825Y107073D01*
X11825Y108682D02*
X13970Y109754D01*
X9144Y113970D02*
X9146Y114038D01*
X9152Y114105D01*
X9161Y114172D01*
X9174Y114239D01*
X9191Y114304D01*
X9212Y114369D01*
X9236Y114432D01*
X9264Y114494D01*
X9295Y114554D01*
X9329Y114612D01*
X9367Y114668D01*
X9407Y114723D01*
X9451Y114774D01*
X9498Y114823D01*
X9547Y114870D01*
X9598Y114914D01*
X9653Y114954D01*
X9709Y114992D01*
X9767Y115026D01*
X9827Y115057D01*
X9889Y115085D01*
X9952Y115109D01*
X10017Y115130D01*
X10082Y115147D01*
X10149Y115160D01*
X10216Y115169D01*
X10283Y115175D01*
X10351Y115177D01*
X9144Y113970D02*
X9146Y113892D01*
X9152Y113814D01*
X9162Y113737D01*
X9175Y113660D01*
X9193Y113584D01*
X9214Y113509D01*
X9239Y113435D01*
X9268Y113363D01*
X9300Y113292D01*
X9336Y113223D01*
X9375Y113155D01*
X9418Y113090D01*
X9464Y113027D01*
X9513Y112966D01*
X9565Y112908D01*
X9620Y112853D01*
X9677Y112800D01*
X9737Y112751D01*
X9800Y112704D01*
X9865Y112661D01*
X9931Y112621D01*
X10000Y112584D01*
X10071Y112551D01*
X10143Y112521D01*
X10217Y112495D01*
X11289Y114775D02*
X11240Y114824D01*
X11188Y114871D01*
X11133Y114914D01*
X11076Y114955D01*
X11017Y114993D01*
X10956Y115027D01*
X10893Y115058D01*
X10829Y115086D01*
X10763Y115110D01*
X10697Y115130D01*
X10629Y115147D01*
X10560Y115160D01*
X10491Y115169D01*
X10421Y115175D01*
X10351Y115177D01*
X11289Y114775D02*
X13970Y112496D01*
X13970Y115177D01*
X370598Y106045D02*
X370598Y101219D01*
X370598Y106045D02*
X371939Y106045D01*
X372010Y106043D01*
X372082Y106037D01*
X372152Y106028D01*
X372222Y106015D01*
X372292Y105998D01*
X372360Y105977D01*
X372427Y105953D01*
X372493Y105925D01*
X372557Y105894D01*
X372620Y105859D01*
X372680Y105821D01*
X372739Y105780D01*
X372795Y105736D01*
X372849Y105689D01*
X372900Y105640D01*
X372948Y105587D01*
X372994Y105532D01*
X373036Y105475D01*
X373076Y105415D01*
X373112Y105354D01*
X373145Y105290D01*
X373174Y105225D01*
X373200Y105159D01*
X373223Y105091D01*
X373242Y105022D01*
X373257Y104952D01*
X373268Y104882D01*
X373276Y104811D01*
X373280Y104740D01*
X373280Y104668D01*
X373276Y104597D01*
X373268Y104526D01*
X373257Y104456D01*
X373242Y104386D01*
X373223Y104317D01*
X373200Y104249D01*
X373174Y104183D01*
X373145Y104118D01*
X373112Y104054D01*
X373076Y103993D01*
X373036Y103933D01*
X372994Y103876D01*
X372948Y103821D01*
X372900Y103768D01*
X372849Y103719D01*
X372795Y103672D01*
X372739Y103628D01*
X372680Y103587D01*
X372620Y103549D01*
X372557Y103514D01*
X372493Y103483D01*
X372427Y103455D01*
X372360Y103431D01*
X372292Y103410D01*
X372222Y103393D01*
X372152Y103380D01*
X372082Y103371D01*
X372010Y103365D01*
X371939Y103363D01*
X371939Y103364D02*
X370598Y103364D01*
X372207Y103364D02*
X373279Y101219D01*
X376021Y101219D02*
X377361Y101219D01*
X377432Y101221D01*
X377504Y101227D01*
X377574Y101236D01*
X377644Y101249D01*
X377714Y101266D01*
X377782Y101287D01*
X377849Y101311D01*
X377915Y101339D01*
X377979Y101370D01*
X378042Y101405D01*
X378102Y101443D01*
X378161Y101484D01*
X378217Y101528D01*
X378271Y101575D01*
X378322Y101624D01*
X378370Y101677D01*
X378416Y101732D01*
X378458Y101789D01*
X378498Y101849D01*
X378534Y101910D01*
X378567Y101974D01*
X378596Y102039D01*
X378622Y102105D01*
X378645Y102173D01*
X378664Y102242D01*
X378679Y102312D01*
X378690Y102382D01*
X378698Y102453D01*
X378702Y102524D01*
X378702Y102596D01*
X378698Y102667D01*
X378690Y102738D01*
X378679Y102808D01*
X378664Y102878D01*
X378645Y102947D01*
X378622Y103015D01*
X378596Y103081D01*
X378567Y103146D01*
X378534Y103210D01*
X378498Y103271D01*
X378458Y103331D01*
X378416Y103388D01*
X378370Y103443D01*
X378322Y103496D01*
X378271Y103545D01*
X378217Y103592D01*
X378161Y103636D01*
X378102Y103677D01*
X378042Y103715D01*
X377979Y103750D01*
X377915Y103781D01*
X377849Y103809D01*
X377782Y103833D01*
X377714Y103854D01*
X377644Y103871D01*
X377574Y103884D01*
X377504Y103893D01*
X377432Y103899D01*
X377361Y103901D01*
X377629Y106045D02*
X376021Y106045D01*
X377629Y106045D02*
X377694Y106043D01*
X377758Y106037D01*
X377822Y106027D01*
X377886Y106014D01*
X377948Y105996D01*
X378009Y105975D01*
X378069Y105951D01*
X378127Y105922D01*
X378184Y105890D01*
X378238Y105855D01*
X378290Y105817D01*
X378340Y105775D01*
X378387Y105731D01*
X378431Y105684D01*
X378473Y105634D01*
X378511Y105582D01*
X378546Y105528D01*
X378578Y105471D01*
X378607Y105413D01*
X378631Y105353D01*
X378652Y105292D01*
X378670Y105230D01*
X378683Y105166D01*
X378693Y105102D01*
X378699Y105038D01*
X378701Y104973D01*
X378699Y104908D01*
X378693Y104844D01*
X378683Y104780D01*
X378670Y104716D01*
X378652Y104654D01*
X378631Y104593D01*
X378607Y104533D01*
X378578Y104475D01*
X378546Y104418D01*
X378511Y104364D01*
X378473Y104312D01*
X378431Y104262D01*
X378387Y104215D01*
X378340Y104171D01*
X378290Y104129D01*
X378238Y104091D01*
X378184Y104056D01*
X378127Y104024D01*
X378069Y103995D01*
X378009Y103971D01*
X377948Y103950D01*
X377886Y103932D01*
X377822Y103919D01*
X377758Y103909D01*
X377694Y103903D01*
X377629Y103901D01*
X377629Y103900D02*
X376557Y103900D01*
X271145Y303923D02*
X266319Y303923D01*
X266319Y305264D01*
X266321Y305335D01*
X266327Y305407D01*
X266336Y305477D01*
X266349Y305547D01*
X266366Y305617D01*
X266387Y305685D01*
X266411Y305752D01*
X266439Y305818D01*
X266470Y305882D01*
X266505Y305945D01*
X266543Y306005D01*
X266584Y306064D01*
X266628Y306120D01*
X266675Y306174D01*
X266724Y306225D01*
X266777Y306273D01*
X266832Y306319D01*
X266889Y306361D01*
X266949Y306401D01*
X267010Y306437D01*
X267074Y306470D01*
X267139Y306499D01*
X267205Y306525D01*
X267273Y306548D01*
X267342Y306567D01*
X267412Y306582D01*
X267482Y306593D01*
X267553Y306601D01*
X267624Y306605D01*
X267696Y306605D01*
X267767Y306601D01*
X267838Y306593D01*
X267908Y306582D01*
X267978Y306567D01*
X268047Y306548D01*
X268115Y306525D01*
X268181Y306499D01*
X268246Y306470D01*
X268310Y306437D01*
X268371Y306401D01*
X268431Y306361D01*
X268488Y306319D01*
X268543Y306273D01*
X268596Y306225D01*
X268645Y306174D01*
X268692Y306120D01*
X268736Y306064D01*
X268777Y306005D01*
X268815Y305945D01*
X268850Y305882D01*
X268881Y305818D01*
X268909Y305752D01*
X268933Y305685D01*
X268954Y305617D01*
X268971Y305547D01*
X268984Y305477D01*
X268993Y305407D01*
X268999Y305335D01*
X269001Y305264D01*
X269000Y305264D02*
X269000Y303923D01*
X269000Y305532D02*
X271145Y306604D01*
X270073Y309346D02*
X266319Y310418D01*
X270073Y309346D02*
X270073Y312027D01*
X269000Y311223D02*
X271145Y311223D01*
X538873Y159131D02*
X538873Y154305D01*
X538873Y159131D02*
X540214Y159131D01*
X540285Y159129D01*
X540357Y159123D01*
X540427Y159114D01*
X540497Y159101D01*
X540567Y159084D01*
X540635Y159063D01*
X540702Y159039D01*
X540768Y159011D01*
X540832Y158980D01*
X540895Y158945D01*
X540955Y158907D01*
X541014Y158866D01*
X541070Y158822D01*
X541124Y158775D01*
X541175Y158726D01*
X541223Y158673D01*
X541269Y158618D01*
X541311Y158561D01*
X541351Y158501D01*
X541387Y158440D01*
X541420Y158376D01*
X541449Y158311D01*
X541475Y158245D01*
X541498Y158177D01*
X541517Y158108D01*
X541532Y158038D01*
X541543Y157968D01*
X541551Y157897D01*
X541555Y157826D01*
X541555Y157754D01*
X541551Y157683D01*
X541543Y157612D01*
X541532Y157542D01*
X541517Y157472D01*
X541498Y157403D01*
X541475Y157335D01*
X541449Y157269D01*
X541420Y157204D01*
X541387Y157140D01*
X541351Y157079D01*
X541311Y157019D01*
X541269Y156962D01*
X541223Y156907D01*
X541175Y156854D01*
X541124Y156805D01*
X541070Y156758D01*
X541014Y156714D01*
X540955Y156673D01*
X540895Y156635D01*
X540832Y156600D01*
X540768Y156569D01*
X540702Y156541D01*
X540635Y156517D01*
X540567Y156496D01*
X540497Y156479D01*
X540427Y156466D01*
X540357Y156457D01*
X540285Y156451D01*
X540214Y156449D01*
X540214Y156450D02*
X538873Y156450D01*
X540482Y156450D02*
X541554Y154305D01*
X544296Y154305D02*
X545904Y154305D01*
X545969Y154307D01*
X546033Y154313D01*
X546097Y154323D01*
X546161Y154336D01*
X546223Y154354D01*
X546284Y154375D01*
X546344Y154399D01*
X546402Y154428D01*
X546459Y154460D01*
X546513Y154495D01*
X546565Y154533D01*
X546615Y154575D01*
X546662Y154619D01*
X546706Y154666D01*
X546748Y154716D01*
X546786Y154768D01*
X546821Y154822D01*
X546853Y154879D01*
X546882Y154937D01*
X546906Y154997D01*
X546927Y155058D01*
X546945Y155120D01*
X546958Y155184D01*
X546968Y155248D01*
X546974Y155312D01*
X546976Y155377D01*
X546977Y155377D02*
X546977Y155914D01*
X546976Y155914D02*
X546974Y155979D01*
X546968Y156043D01*
X546958Y156107D01*
X546945Y156171D01*
X546927Y156233D01*
X546906Y156294D01*
X546882Y156354D01*
X546853Y156412D01*
X546821Y156469D01*
X546786Y156523D01*
X546748Y156575D01*
X546706Y156625D01*
X546662Y156672D01*
X546615Y156716D01*
X546565Y156758D01*
X546513Y156796D01*
X546459Y156831D01*
X546402Y156863D01*
X546344Y156892D01*
X546284Y156916D01*
X546223Y156937D01*
X546161Y156955D01*
X546097Y156968D01*
X546033Y156978D01*
X545969Y156984D01*
X545904Y156986D01*
X544296Y156986D01*
X544296Y159131D01*
X546977Y159131D01*
X101981Y256298D02*
X97155Y256298D01*
X97155Y257639D01*
X97157Y257710D01*
X97163Y257782D01*
X97172Y257852D01*
X97185Y257922D01*
X97202Y257992D01*
X97223Y258060D01*
X97247Y258127D01*
X97275Y258193D01*
X97306Y258257D01*
X97341Y258320D01*
X97379Y258380D01*
X97420Y258439D01*
X97464Y258495D01*
X97511Y258549D01*
X97560Y258600D01*
X97613Y258648D01*
X97668Y258694D01*
X97725Y258736D01*
X97785Y258776D01*
X97846Y258812D01*
X97910Y258845D01*
X97975Y258874D01*
X98041Y258900D01*
X98109Y258923D01*
X98178Y258942D01*
X98248Y258957D01*
X98318Y258968D01*
X98389Y258976D01*
X98460Y258980D01*
X98532Y258980D01*
X98603Y258976D01*
X98674Y258968D01*
X98744Y258957D01*
X98814Y258942D01*
X98883Y258923D01*
X98951Y258900D01*
X99017Y258874D01*
X99082Y258845D01*
X99146Y258812D01*
X99207Y258776D01*
X99267Y258736D01*
X99324Y258694D01*
X99379Y258648D01*
X99432Y258600D01*
X99481Y258549D01*
X99528Y258495D01*
X99572Y258439D01*
X99613Y258380D01*
X99651Y258320D01*
X99686Y258257D01*
X99717Y258193D01*
X99745Y258127D01*
X99769Y258060D01*
X99790Y257992D01*
X99807Y257922D01*
X99820Y257852D01*
X99829Y257782D01*
X99835Y257710D01*
X99837Y257639D01*
X99836Y257639D02*
X99836Y256298D01*
X99836Y257907D02*
X101981Y258979D01*
X97691Y261721D02*
X97155Y261721D01*
X97155Y264402D01*
X101981Y263061D01*
X453644Y78498D02*
X458470Y78498D01*
X453644Y78498D02*
X453644Y79839D01*
X453646Y79910D01*
X453652Y79982D01*
X453661Y80052D01*
X453674Y80122D01*
X453691Y80192D01*
X453712Y80260D01*
X453736Y80327D01*
X453764Y80393D01*
X453795Y80457D01*
X453830Y80520D01*
X453868Y80580D01*
X453909Y80639D01*
X453953Y80695D01*
X454000Y80749D01*
X454049Y80800D01*
X454102Y80848D01*
X454157Y80894D01*
X454214Y80936D01*
X454274Y80976D01*
X454335Y81012D01*
X454399Y81045D01*
X454464Y81074D01*
X454530Y81100D01*
X454598Y81123D01*
X454667Y81142D01*
X454737Y81157D01*
X454807Y81168D01*
X454878Y81176D01*
X454949Y81180D01*
X455021Y81180D01*
X455092Y81176D01*
X455163Y81168D01*
X455233Y81157D01*
X455303Y81142D01*
X455372Y81123D01*
X455440Y81100D01*
X455506Y81074D01*
X455571Y81045D01*
X455635Y81012D01*
X455696Y80976D01*
X455756Y80936D01*
X455813Y80894D01*
X455868Y80848D01*
X455921Y80800D01*
X455970Y80749D01*
X456017Y80695D01*
X456061Y80639D01*
X456102Y80580D01*
X456140Y80520D01*
X456175Y80457D01*
X456206Y80393D01*
X456234Y80327D01*
X456258Y80260D01*
X456279Y80192D01*
X456296Y80122D01*
X456309Y80052D01*
X456318Y79982D01*
X456324Y79910D01*
X456326Y79839D01*
X456325Y79839D02*
X456325Y78498D01*
X456325Y80107D02*
X458470Y81179D01*
X457129Y83920D02*
X457058Y83922D01*
X456986Y83928D01*
X456916Y83937D01*
X456846Y83950D01*
X456776Y83967D01*
X456708Y83988D01*
X456641Y84012D01*
X456575Y84040D01*
X456511Y84071D01*
X456448Y84106D01*
X456388Y84144D01*
X456329Y84185D01*
X456273Y84229D01*
X456219Y84276D01*
X456168Y84325D01*
X456120Y84378D01*
X456074Y84433D01*
X456032Y84490D01*
X455992Y84550D01*
X455956Y84611D01*
X455923Y84675D01*
X455894Y84740D01*
X455868Y84806D01*
X455845Y84874D01*
X455826Y84943D01*
X455811Y85013D01*
X455800Y85083D01*
X455792Y85154D01*
X455788Y85225D01*
X455788Y85297D01*
X455792Y85368D01*
X455800Y85439D01*
X455811Y85509D01*
X455826Y85579D01*
X455845Y85648D01*
X455868Y85716D01*
X455894Y85782D01*
X455923Y85847D01*
X455956Y85911D01*
X455992Y85972D01*
X456032Y86032D01*
X456074Y86089D01*
X456120Y86144D01*
X456168Y86197D01*
X456219Y86246D01*
X456273Y86293D01*
X456329Y86337D01*
X456388Y86378D01*
X456448Y86416D01*
X456511Y86451D01*
X456575Y86482D01*
X456641Y86510D01*
X456708Y86534D01*
X456776Y86555D01*
X456846Y86572D01*
X456916Y86585D01*
X456986Y86594D01*
X457058Y86600D01*
X457129Y86602D01*
X457200Y86600D01*
X457272Y86594D01*
X457342Y86585D01*
X457412Y86572D01*
X457482Y86555D01*
X457550Y86534D01*
X457617Y86510D01*
X457683Y86482D01*
X457747Y86451D01*
X457810Y86416D01*
X457870Y86378D01*
X457929Y86337D01*
X457985Y86293D01*
X458039Y86246D01*
X458090Y86197D01*
X458138Y86144D01*
X458184Y86089D01*
X458226Y86032D01*
X458266Y85972D01*
X458302Y85911D01*
X458335Y85847D01*
X458364Y85782D01*
X458390Y85716D01*
X458413Y85648D01*
X458432Y85579D01*
X458447Y85509D01*
X458458Y85439D01*
X458466Y85368D01*
X458470Y85297D01*
X458470Y85225D01*
X458466Y85154D01*
X458458Y85083D01*
X458447Y85013D01*
X458432Y84943D01*
X458413Y84874D01*
X458390Y84806D01*
X458364Y84740D01*
X458335Y84675D01*
X458302Y84611D01*
X458266Y84550D01*
X458226Y84490D01*
X458184Y84433D01*
X458138Y84378D01*
X458090Y84325D01*
X458039Y84276D01*
X457985Y84229D01*
X457929Y84185D01*
X457870Y84144D01*
X457810Y84106D01*
X457747Y84071D01*
X457683Y84040D01*
X457617Y84012D01*
X457550Y83988D01*
X457482Y83967D01*
X457412Y83950D01*
X457342Y83937D01*
X457272Y83928D01*
X457200Y83922D01*
X457129Y83920D01*
X454716Y84189D02*
X454651Y84191D01*
X454587Y84197D01*
X454523Y84207D01*
X454459Y84220D01*
X454397Y84238D01*
X454336Y84259D01*
X454276Y84283D01*
X454218Y84312D01*
X454161Y84344D01*
X454107Y84379D01*
X454055Y84417D01*
X454005Y84459D01*
X453958Y84503D01*
X453914Y84550D01*
X453872Y84600D01*
X453834Y84652D01*
X453799Y84706D01*
X453767Y84763D01*
X453738Y84821D01*
X453714Y84881D01*
X453693Y84942D01*
X453675Y85004D01*
X453662Y85068D01*
X453652Y85132D01*
X453646Y85196D01*
X453644Y85261D01*
X453646Y85326D01*
X453652Y85390D01*
X453662Y85454D01*
X453675Y85518D01*
X453693Y85580D01*
X453714Y85641D01*
X453738Y85701D01*
X453767Y85759D01*
X453799Y85816D01*
X453834Y85870D01*
X453872Y85922D01*
X453914Y85972D01*
X453958Y86019D01*
X454005Y86063D01*
X454055Y86105D01*
X454107Y86143D01*
X454161Y86178D01*
X454218Y86210D01*
X454276Y86239D01*
X454336Y86263D01*
X454397Y86284D01*
X454459Y86302D01*
X454523Y86315D01*
X454587Y86325D01*
X454651Y86331D01*
X454716Y86333D01*
X454781Y86331D01*
X454845Y86325D01*
X454909Y86315D01*
X454973Y86302D01*
X455035Y86284D01*
X455096Y86263D01*
X455156Y86239D01*
X455214Y86210D01*
X455271Y86178D01*
X455325Y86143D01*
X455377Y86105D01*
X455427Y86063D01*
X455474Y86019D01*
X455518Y85972D01*
X455560Y85922D01*
X455598Y85870D01*
X455633Y85816D01*
X455665Y85759D01*
X455694Y85701D01*
X455718Y85641D01*
X455739Y85580D01*
X455757Y85518D01*
X455770Y85454D01*
X455780Y85390D01*
X455786Y85326D01*
X455788Y85261D01*
X455786Y85196D01*
X455780Y85132D01*
X455770Y85068D01*
X455757Y85004D01*
X455739Y84942D01*
X455718Y84881D01*
X455694Y84821D01*
X455665Y84763D01*
X455633Y84706D01*
X455598Y84652D01*
X455560Y84600D01*
X455518Y84550D01*
X455474Y84503D01*
X455427Y84459D01*
X455377Y84417D01*
X455325Y84379D01*
X455271Y84344D01*
X455214Y84312D01*
X455156Y84283D01*
X455096Y84259D01*
X455035Y84238D01*
X454973Y84220D01*
X454909Y84207D01*
X454845Y84197D01*
X454781Y84191D01*
X454716Y84189D01*
X33225Y73025D02*
X33227Y73223D01*
X33235Y73420D01*
X33247Y73617D01*
X33264Y73814D01*
X33286Y74010D01*
X33312Y74206D01*
X33344Y74401D01*
X33380Y74595D01*
X33421Y74789D01*
X33466Y74981D01*
X33517Y75172D01*
X33572Y75362D01*
X33631Y75550D01*
X33696Y75737D01*
X33764Y75922D01*
X33838Y76106D01*
X33916Y76287D01*
X33998Y76467D01*
X34085Y76644D01*
X34176Y76820D01*
X34271Y76993D01*
X34370Y77164D01*
X34474Y77332D01*
X34582Y77497D01*
X34693Y77660D01*
X34809Y77820D01*
X34929Y77978D01*
X35052Y78132D01*
X35179Y78283D01*
X35310Y78431D01*
X35445Y78576D01*
X35583Y78717D01*
X35724Y78855D01*
X35869Y78990D01*
X36017Y79121D01*
X36168Y79248D01*
X36322Y79371D01*
X36480Y79491D01*
X36640Y79607D01*
X36803Y79718D01*
X36968Y79826D01*
X37136Y79930D01*
X37307Y80029D01*
X37480Y80124D01*
X37656Y80215D01*
X37833Y80302D01*
X38013Y80384D01*
X38194Y80462D01*
X38378Y80536D01*
X38563Y80604D01*
X38750Y80669D01*
X38938Y80728D01*
X39128Y80783D01*
X39319Y80834D01*
X39511Y80879D01*
X39705Y80920D01*
X39899Y80956D01*
X40094Y80988D01*
X40290Y81014D01*
X40486Y81036D01*
X40683Y81053D01*
X40880Y81065D01*
X41077Y81073D01*
X41275Y81075D01*
X41473Y81073D01*
X41670Y81065D01*
X41867Y81053D01*
X42064Y81036D01*
X42260Y81014D01*
X42456Y80988D01*
X42651Y80956D01*
X42845Y80920D01*
X43039Y80879D01*
X43231Y80834D01*
X43422Y80783D01*
X43612Y80728D01*
X43800Y80669D01*
X43987Y80604D01*
X44172Y80536D01*
X44356Y80462D01*
X44537Y80384D01*
X44717Y80302D01*
X44894Y80215D01*
X45070Y80124D01*
X45243Y80029D01*
X45414Y79930D01*
X45582Y79826D01*
X45747Y79718D01*
X45910Y79607D01*
X46070Y79491D01*
X46228Y79371D01*
X46382Y79248D01*
X46533Y79121D01*
X46681Y78990D01*
X46826Y78855D01*
X46967Y78717D01*
X47105Y78576D01*
X47240Y78431D01*
X47371Y78283D01*
X47498Y78132D01*
X47621Y77978D01*
X47741Y77820D01*
X47857Y77660D01*
X47968Y77497D01*
X48076Y77332D01*
X48180Y77164D01*
X48279Y76993D01*
X48374Y76820D01*
X48465Y76644D01*
X48552Y76467D01*
X48634Y76287D01*
X48712Y76106D01*
X48786Y75922D01*
X48854Y75737D01*
X48919Y75550D01*
X48978Y75362D01*
X49033Y75172D01*
X49084Y74981D01*
X49129Y74789D01*
X49170Y74595D01*
X49206Y74401D01*
X49238Y74206D01*
X49264Y74010D01*
X49286Y73814D01*
X49303Y73617D01*
X49315Y73420D01*
X49323Y73223D01*
X49325Y73025D01*
X49323Y72827D01*
X49315Y72630D01*
X49303Y72433D01*
X49286Y72236D01*
X49264Y72040D01*
X49238Y71844D01*
X49206Y71649D01*
X49170Y71455D01*
X49129Y71261D01*
X49084Y71069D01*
X49033Y70878D01*
X48978Y70688D01*
X48919Y70500D01*
X48854Y70313D01*
X48786Y70128D01*
X48712Y69944D01*
X48634Y69763D01*
X48552Y69583D01*
X48465Y69406D01*
X48374Y69230D01*
X48279Y69057D01*
X48180Y68886D01*
X48076Y68718D01*
X47968Y68553D01*
X47857Y68390D01*
X47741Y68230D01*
X47621Y68072D01*
X47498Y67918D01*
X47371Y67767D01*
X47240Y67619D01*
X47105Y67474D01*
X46967Y67333D01*
X46826Y67195D01*
X46681Y67060D01*
X46533Y66929D01*
X46382Y66802D01*
X46228Y66679D01*
X46070Y66559D01*
X45910Y66443D01*
X45747Y66332D01*
X45582Y66224D01*
X45414Y66120D01*
X45243Y66021D01*
X45070Y65926D01*
X44894Y65835D01*
X44717Y65748D01*
X44537Y65666D01*
X44356Y65588D01*
X44172Y65514D01*
X43987Y65446D01*
X43800Y65381D01*
X43612Y65322D01*
X43422Y65267D01*
X43231Y65216D01*
X43039Y65171D01*
X42845Y65130D01*
X42651Y65094D01*
X42456Y65062D01*
X42260Y65036D01*
X42064Y65014D01*
X41867Y64997D01*
X41670Y64985D01*
X41473Y64977D01*
X41275Y64975D01*
X41077Y64977D01*
X40880Y64985D01*
X40683Y64997D01*
X40486Y65014D01*
X40290Y65036D01*
X40094Y65062D01*
X39899Y65094D01*
X39705Y65130D01*
X39511Y65171D01*
X39319Y65216D01*
X39128Y65267D01*
X38938Y65322D01*
X38750Y65381D01*
X38563Y65446D01*
X38378Y65514D01*
X38194Y65588D01*
X38013Y65666D01*
X37833Y65748D01*
X37656Y65835D01*
X37480Y65926D01*
X37307Y66021D01*
X37136Y66120D01*
X36968Y66224D01*
X36803Y66332D01*
X36640Y66443D01*
X36480Y66559D01*
X36322Y66679D01*
X36168Y66802D01*
X36017Y66929D01*
X35869Y67060D01*
X35724Y67195D01*
X35583Y67333D01*
X35445Y67474D01*
X35310Y67619D01*
X35179Y67767D01*
X35052Y67918D01*
X34929Y68072D01*
X34809Y68230D01*
X34693Y68390D01*
X34582Y68553D01*
X34474Y68718D01*
X34370Y68886D01*
X34271Y69057D01*
X34176Y69230D01*
X34085Y69406D01*
X33998Y69583D01*
X33916Y69763D01*
X33838Y69944D01*
X33764Y70128D01*
X33696Y70313D01*
X33631Y70500D01*
X33572Y70688D01*
X33517Y70878D01*
X33466Y71069D01*
X33421Y71261D01*
X33380Y71455D01*
X33344Y71649D01*
X33312Y71844D01*
X33286Y72040D01*
X33264Y72236D01*
X33247Y72433D01*
X33235Y72630D01*
X33227Y72827D01*
X33225Y73025D01*
D14*
X27895Y59025D02*
X54655Y59025D01*
X54655Y87025D02*
X27895Y87025D01*
X20275Y74325D02*
X20275Y71725D01*
X62275Y71725D02*
X62275Y74325D01*
D13*
X39963Y89972D02*
X39961Y89907D01*
X39955Y89843D01*
X39945Y89779D01*
X39932Y89715D01*
X39914Y89653D01*
X39893Y89592D01*
X39869Y89532D01*
X39840Y89474D01*
X39808Y89417D01*
X39773Y89363D01*
X39735Y89311D01*
X39693Y89261D01*
X39649Y89214D01*
X39602Y89170D01*
X39552Y89128D01*
X39500Y89090D01*
X39446Y89055D01*
X39389Y89023D01*
X39331Y88994D01*
X39271Y88970D01*
X39210Y88949D01*
X39148Y88931D01*
X39084Y88918D01*
X39020Y88908D01*
X38956Y88902D01*
X38891Y88900D01*
X38797Y88902D01*
X38703Y88908D01*
X38609Y88918D01*
X38516Y88931D01*
X38424Y88949D01*
X38332Y88970D01*
X38241Y88995D01*
X38151Y89024D01*
X38063Y89057D01*
X37976Y89093D01*
X37891Y89133D01*
X37807Y89176D01*
X37726Y89223D01*
X37646Y89273D01*
X37568Y89326D01*
X37493Y89383D01*
X37420Y89442D01*
X37350Y89505D01*
X37282Y89570D01*
X37417Y92654D02*
X37419Y92719D01*
X37425Y92783D01*
X37435Y92847D01*
X37448Y92911D01*
X37466Y92973D01*
X37487Y93034D01*
X37511Y93094D01*
X37540Y93152D01*
X37572Y93209D01*
X37607Y93263D01*
X37645Y93315D01*
X37687Y93365D01*
X37731Y93412D01*
X37778Y93456D01*
X37828Y93498D01*
X37880Y93536D01*
X37934Y93571D01*
X37991Y93603D01*
X38049Y93632D01*
X38109Y93656D01*
X38170Y93677D01*
X38232Y93695D01*
X38296Y93708D01*
X38360Y93718D01*
X38424Y93724D01*
X38489Y93726D01*
X38575Y93724D01*
X38661Y93719D01*
X38747Y93709D01*
X38832Y93696D01*
X38917Y93680D01*
X39001Y93660D01*
X39084Y93636D01*
X39166Y93609D01*
X39246Y93578D01*
X39326Y93544D01*
X39403Y93506D01*
X39479Y93465D01*
X39553Y93421D01*
X39625Y93374D01*
X39696Y93324D01*
X37953Y91716D02*
X37900Y91749D01*
X37849Y91786D01*
X37800Y91825D01*
X37753Y91867D01*
X37709Y91912D01*
X37668Y91959D01*
X37629Y92008D01*
X37593Y92060D01*
X37560Y92114D01*
X37531Y92169D01*
X37505Y92226D01*
X37482Y92285D01*
X37462Y92344D01*
X37446Y92405D01*
X37433Y92466D01*
X37424Y92529D01*
X37419Y92591D01*
X37417Y92654D01*
X39428Y90910D02*
X39481Y90877D01*
X39532Y90840D01*
X39581Y90801D01*
X39628Y90759D01*
X39672Y90714D01*
X39713Y90667D01*
X39752Y90618D01*
X39788Y90566D01*
X39821Y90512D01*
X39850Y90457D01*
X39876Y90400D01*
X39899Y90341D01*
X39919Y90282D01*
X39935Y90221D01*
X39948Y90160D01*
X39957Y90097D01*
X39962Y90035D01*
X39964Y89972D01*
X39428Y90911D02*
X37953Y91715D01*
X42586Y92654D02*
X43927Y93726D01*
X43927Y88900D01*
X45267Y88900D02*
X42586Y88900D01*
X217375Y301625D02*
X217377Y301823D01*
X217385Y302020D01*
X217397Y302217D01*
X217414Y302414D01*
X217436Y302610D01*
X217462Y302806D01*
X217494Y303001D01*
X217530Y303195D01*
X217571Y303389D01*
X217616Y303581D01*
X217667Y303772D01*
X217722Y303962D01*
X217781Y304150D01*
X217846Y304337D01*
X217914Y304522D01*
X217988Y304706D01*
X218066Y304887D01*
X218148Y305067D01*
X218235Y305244D01*
X218326Y305420D01*
X218421Y305593D01*
X218520Y305764D01*
X218624Y305932D01*
X218732Y306097D01*
X218843Y306260D01*
X218959Y306420D01*
X219079Y306578D01*
X219202Y306732D01*
X219329Y306883D01*
X219460Y307031D01*
X219595Y307176D01*
X219733Y307317D01*
X219874Y307455D01*
X220019Y307590D01*
X220167Y307721D01*
X220318Y307848D01*
X220472Y307971D01*
X220630Y308091D01*
X220790Y308207D01*
X220953Y308318D01*
X221118Y308426D01*
X221286Y308530D01*
X221457Y308629D01*
X221630Y308724D01*
X221806Y308815D01*
X221983Y308902D01*
X222163Y308984D01*
X222344Y309062D01*
X222528Y309136D01*
X222713Y309204D01*
X222900Y309269D01*
X223088Y309328D01*
X223278Y309383D01*
X223469Y309434D01*
X223661Y309479D01*
X223855Y309520D01*
X224049Y309556D01*
X224244Y309588D01*
X224440Y309614D01*
X224636Y309636D01*
X224833Y309653D01*
X225030Y309665D01*
X225227Y309673D01*
X225425Y309675D01*
X225623Y309673D01*
X225820Y309665D01*
X226017Y309653D01*
X226214Y309636D01*
X226410Y309614D01*
X226606Y309588D01*
X226801Y309556D01*
X226995Y309520D01*
X227189Y309479D01*
X227381Y309434D01*
X227572Y309383D01*
X227762Y309328D01*
X227950Y309269D01*
X228137Y309204D01*
X228322Y309136D01*
X228506Y309062D01*
X228687Y308984D01*
X228867Y308902D01*
X229044Y308815D01*
X229220Y308724D01*
X229393Y308629D01*
X229564Y308530D01*
X229732Y308426D01*
X229897Y308318D01*
X230060Y308207D01*
X230220Y308091D01*
X230378Y307971D01*
X230532Y307848D01*
X230683Y307721D01*
X230831Y307590D01*
X230976Y307455D01*
X231117Y307317D01*
X231255Y307176D01*
X231390Y307031D01*
X231521Y306883D01*
X231648Y306732D01*
X231771Y306578D01*
X231891Y306420D01*
X232007Y306260D01*
X232118Y306097D01*
X232226Y305932D01*
X232330Y305764D01*
X232429Y305593D01*
X232524Y305420D01*
X232615Y305244D01*
X232702Y305067D01*
X232784Y304887D01*
X232862Y304706D01*
X232936Y304522D01*
X233004Y304337D01*
X233069Y304150D01*
X233128Y303962D01*
X233183Y303772D01*
X233234Y303581D01*
X233279Y303389D01*
X233320Y303195D01*
X233356Y303001D01*
X233388Y302806D01*
X233414Y302610D01*
X233436Y302414D01*
X233453Y302217D01*
X233465Y302020D01*
X233473Y301823D01*
X233475Y301625D01*
X233473Y301427D01*
X233465Y301230D01*
X233453Y301033D01*
X233436Y300836D01*
X233414Y300640D01*
X233388Y300444D01*
X233356Y300249D01*
X233320Y300055D01*
X233279Y299861D01*
X233234Y299669D01*
X233183Y299478D01*
X233128Y299288D01*
X233069Y299100D01*
X233004Y298913D01*
X232936Y298728D01*
X232862Y298544D01*
X232784Y298363D01*
X232702Y298183D01*
X232615Y298006D01*
X232524Y297830D01*
X232429Y297657D01*
X232330Y297486D01*
X232226Y297318D01*
X232118Y297153D01*
X232007Y296990D01*
X231891Y296830D01*
X231771Y296672D01*
X231648Y296518D01*
X231521Y296367D01*
X231390Y296219D01*
X231255Y296074D01*
X231117Y295933D01*
X230976Y295795D01*
X230831Y295660D01*
X230683Y295529D01*
X230532Y295402D01*
X230378Y295279D01*
X230220Y295159D01*
X230060Y295043D01*
X229897Y294932D01*
X229732Y294824D01*
X229564Y294720D01*
X229393Y294621D01*
X229220Y294526D01*
X229044Y294435D01*
X228867Y294348D01*
X228687Y294266D01*
X228506Y294188D01*
X228322Y294114D01*
X228137Y294046D01*
X227950Y293981D01*
X227762Y293922D01*
X227572Y293867D01*
X227381Y293816D01*
X227189Y293771D01*
X226995Y293730D01*
X226801Y293694D01*
X226606Y293662D01*
X226410Y293636D01*
X226214Y293614D01*
X226017Y293597D01*
X225820Y293585D01*
X225623Y293577D01*
X225425Y293575D01*
X225227Y293577D01*
X225030Y293585D01*
X224833Y293597D01*
X224636Y293614D01*
X224440Y293636D01*
X224244Y293662D01*
X224049Y293694D01*
X223855Y293730D01*
X223661Y293771D01*
X223469Y293816D01*
X223278Y293867D01*
X223088Y293922D01*
X222900Y293981D01*
X222713Y294046D01*
X222528Y294114D01*
X222344Y294188D01*
X222163Y294266D01*
X221983Y294348D01*
X221806Y294435D01*
X221630Y294526D01*
X221457Y294621D01*
X221286Y294720D01*
X221118Y294824D01*
X220953Y294932D01*
X220790Y295043D01*
X220630Y295159D01*
X220472Y295279D01*
X220318Y295402D01*
X220167Y295529D01*
X220019Y295660D01*
X219874Y295795D01*
X219733Y295933D01*
X219595Y296074D01*
X219460Y296219D01*
X219329Y296367D01*
X219202Y296518D01*
X219079Y296672D01*
X218959Y296830D01*
X218843Y296990D01*
X218732Y297153D01*
X218624Y297318D01*
X218520Y297486D01*
X218421Y297657D01*
X218326Y297830D01*
X218235Y298006D01*
X218148Y298183D01*
X218066Y298363D01*
X217988Y298544D01*
X217914Y298728D01*
X217846Y298913D01*
X217781Y299100D01*
X217722Y299288D01*
X217667Y299478D01*
X217616Y299669D01*
X217571Y299861D01*
X217530Y300055D01*
X217494Y300249D01*
X217462Y300444D01*
X217436Y300640D01*
X217414Y300836D01*
X217397Y301033D01*
X217385Y301230D01*
X217377Y301427D01*
X217375Y301625D01*
D14*
X212045Y287625D02*
X238805Y287625D01*
X238805Y315625D02*
X212045Y315625D01*
X204425Y302925D02*
X204425Y300325D01*
X246425Y300325D02*
X246425Y302925D01*
D13*
X224113Y318572D02*
X224111Y318507D01*
X224105Y318443D01*
X224095Y318379D01*
X224082Y318315D01*
X224064Y318253D01*
X224043Y318192D01*
X224019Y318132D01*
X223990Y318074D01*
X223958Y318017D01*
X223923Y317963D01*
X223885Y317911D01*
X223843Y317861D01*
X223799Y317814D01*
X223752Y317770D01*
X223702Y317728D01*
X223650Y317690D01*
X223596Y317655D01*
X223539Y317623D01*
X223481Y317594D01*
X223421Y317570D01*
X223360Y317549D01*
X223298Y317531D01*
X223234Y317518D01*
X223170Y317508D01*
X223106Y317502D01*
X223041Y317500D01*
X222947Y317502D01*
X222853Y317508D01*
X222759Y317518D01*
X222666Y317531D01*
X222574Y317549D01*
X222482Y317570D01*
X222391Y317595D01*
X222301Y317624D01*
X222213Y317657D01*
X222126Y317693D01*
X222041Y317733D01*
X221957Y317776D01*
X221876Y317823D01*
X221796Y317873D01*
X221718Y317926D01*
X221643Y317983D01*
X221570Y318042D01*
X221500Y318105D01*
X221432Y318170D01*
X221567Y321254D02*
X221569Y321319D01*
X221575Y321383D01*
X221585Y321447D01*
X221598Y321511D01*
X221616Y321573D01*
X221637Y321634D01*
X221661Y321694D01*
X221690Y321752D01*
X221722Y321809D01*
X221757Y321863D01*
X221795Y321915D01*
X221837Y321965D01*
X221881Y322012D01*
X221928Y322056D01*
X221978Y322098D01*
X222030Y322136D01*
X222084Y322171D01*
X222141Y322203D01*
X222199Y322232D01*
X222259Y322256D01*
X222320Y322277D01*
X222382Y322295D01*
X222446Y322308D01*
X222510Y322318D01*
X222574Y322324D01*
X222639Y322326D01*
X222725Y322324D01*
X222811Y322319D01*
X222897Y322309D01*
X222982Y322296D01*
X223067Y322280D01*
X223151Y322260D01*
X223234Y322236D01*
X223316Y322209D01*
X223396Y322178D01*
X223476Y322144D01*
X223553Y322106D01*
X223629Y322065D01*
X223703Y322021D01*
X223775Y321974D01*
X223846Y321924D01*
X222103Y320316D02*
X222050Y320349D01*
X221999Y320386D01*
X221950Y320425D01*
X221903Y320467D01*
X221859Y320512D01*
X221818Y320559D01*
X221779Y320608D01*
X221743Y320660D01*
X221710Y320714D01*
X221681Y320769D01*
X221655Y320826D01*
X221632Y320885D01*
X221612Y320944D01*
X221596Y321005D01*
X221583Y321066D01*
X221574Y321129D01*
X221569Y321191D01*
X221567Y321254D01*
X223578Y319510D02*
X223631Y319477D01*
X223682Y319440D01*
X223731Y319401D01*
X223778Y319359D01*
X223822Y319314D01*
X223863Y319267D01*
X223902Y319218D01*
X223938Y319166D01*
X223971Y319112D01*
X224000Y319057D01*
X224026Y319000D01*
X224049Y318941D01*
X224069Y318882D01*
X224085Y318821D01*
X224098Y318760D01*
X224107Y318697D01*
X224112Y318635D01*
X224114Y318572D01*
X223578Y319511D02*
X222103Y320315D01*
X228211Y322326D02*
X228279Y322324D01*
X228346Y322318D01*
X228413Y322309D01*
X228480Y322296D01*
X228545Y322279D01*
X228610Y322258D01*
X228673Y322234D01*
X228735Y322206D01*
X228795Y322175D01*
X228853Y322141D01*
X228909Y322103D01*
X228964Y322063D01*
X229015Y322019D01*
X229064Y321972D01*
X229111Y321923D01*
X229155Y321872D01*
X229195Y321817D01*
X229233Y321761D01*
X229267Y321703D01*
X229298Y321643D01*
X229326Y321581D01*
X229350Y321518D01*
X229371Y321453D01*
X229388Y321388D01*
X229401Y321321D01*
X229410Y321254D01*
X229416Y321187D01*
X229418Y321119D01*
X228211Y322326D02*
X228133Y322324D01*
X228055Y322318D01*
X227978Y322308D01*
X227901Y322295D01*
X227825Y322277D01*
X227750Y322256D01*
X227676Y322231D01*
X227604Y322202D01*
X227533Y322170D01*
X227464Y322134D01*
X227396Y322095D01*
X227331Y322052D01*
X227268Y322006D01*
X227207Y321957D01*
X227149Y321905D01*
X227094Y321850D01*
X227041Y321793D01*
X226992Y321733D01*
X226945Y321670D01*
X226902Y321606D01*
X226862Y321539D01*
X226825Y321470D01*
X226792Y321399D01*
X226762Y321327D01*
X226736Y321254D01*
X229015Y320181D02*
X229064Y320230D01*
X229111Y320282D01*
X229154Y320337D01*
X229195Y320394D01*
X229233Y320453D01*
X229267Y320514D01*
X229298Y320577D01*
X229326Y320641D01*
X229350Y320707D01*
X229370Y320773D01*
X229387Y320841D01*
X229400Y320910D01*
X229409Y320979D01*
X229415Y321049D01*
X229417Y321119D01*
X229015Y320181D02*
X226736Y317500D01*
X229417Y317500D01*
D11*
X494030Y133350D02*
X494032Y133421D01*
X494038Y133492D01*
X494048Y133563D01*
X494062Y133633D01*
X494080Y133702D01*
X494101Y133769D01*
X494127Y133836D01*
X494156Y133901D01*
X494188Y133964D01*
X494225Y134026D01*
X494264Y134085D01*
X494307Y134142D01*
X494353Y134196D01*
X494402Y134248D01*
X494454Y134297D01*
X494508Y134343D01*
X494565Y134386D01*
X494624Y134425D01*
X494686Y134462D01*
X494749Y134494D01*
X494814Y134523D01*
X494881Y134549D01*
X494948Y134570D01*
X495017Y134588D01*
X495087Y134602D01*
X495158Y134612D01*
X495229Y134618D01*
X495300Y134620D01*
X495371Y134618D01*
X495442Y134612D01*
X495513Y134602D01*
X495583Y134588D01*
X495652Y134570D01*
X495719Y134549D01*
X495786Y134523D01*
X495851Y134494D01*
X495914Y134462D01*
X495976Y134425D01*
X496035Y134386D01*
X496092Y134343D01*
X496146Y134297D01*
X496198Y134248D01*
X496247Y134196D01*
X496293Y134142D01*
X496336Y134085D01*
X496375Y134026D01*
X496412Y133964D01*
X496444Y133901D01*
X496473Y133836D01*
X496499Y133769D01*
X496520Y133702D01*
X496538Y133633D01*
X496552Y133563D01*
X496562Y133492D01*
X496568Y133421D01*
X496570Y133350D01*
X496568Y133279D01*
X496562Y133208D01*
X496552Y133137D01*
X496538Y133067D01*
X496520Y132998D01*
X496499Y132931D01*
X496473Y132864D01*
X496444Y132799D01*
X496412Y132736D01*
X496375Y132674D01*
X496336Y132615D01*
X496293Y132558D01*
X496247Y132504D01*
X496198Y132452D01*
X496146Y132403D01*
X496092Y132357D01*
X496035Y132314D01*
X495976Y132275D01*
X495914Y132238D01*
X495851Y132206D01*
X495786Y132177D01*
X495719Y132151D01*
X495652Y132130D01*
X495583Y132112D01*
X495513Y132098D01*
X495442Y132088D01*
X495371Y132082D01*
X495300Y132080D01*
X495229Y132082D01*
X495158Y132088D01*
X495087Y132098D01*
X495017Y132112D01*
X494948Y132130D01*
X494881Y132151D01*
X494814Y132177D01*
X494749Y132206D01*
X494686Y132238D01*
X494624Y132275D01*
X494565Y132314D01*
X494508Y132357D01*
X494454Y132403D01*
X494402Y132452D01*
X494353Y132504D01*
X494307Y132558D01*
X494264Y132615D01*
X494225Y132674D01*
X494188Y132736D01*
X494156Y132799D01*
X494127Y132864D01*
X494101Y132931D01*
X494080Y132998D01*
X494062Y133067D01*
X494048Y133137D01*
X494038Y133208D01*
X494032Y133279D01*
X494030Y133350D01*
D14*
X424688Y135763D02*
X424688Y181737D01*
X489712Y181737D02*
X489712Y135763D01*
X424688Y135763D01*
X424688Y181737D02*
X489712Y181737D01*
D12*
X463790Y132842D02*
X463790Y124404D01*
X463789Y124404D02*
X463791Y124291D01*
X463797Y124178D01*
X463807Y124065D01*
X463821Y123952D01*
X463838Y123840D01*
X463860Y123729D01*
X463885Y123619D01*
X463915Y123509D01*
X463948Y123401D01*
X463985Y123294D01*
X464025Y123188D01*
X464070Y123084D01*
X464118Y122981D01*
X464169Y122880D01*
X464224Y122781D01*
X464282Y122684D01*
X464344Y122589D01*
X464409Y122496D01*
X464477Y122406D01*
X464548Y122318D01*
X464623Y122232D01*
X464700Y122149D01*
X464780Y122069D01*
X464863Y121992D01*
X464949Y121917D01*
X465037Y121846D01*
X465127Y121778D01*
X465220Y121713D01*
X465315Y121651D01*
X465412Y121593D01*
X465511Y121538D01*
X465612Y121487D01*
X465715Y121439D01*
X465819Y121394D01*
X465925Y121354D01*
X466032Y121317D01*
X466140Y121284D01*
X466250Y121254D01*
X466360Y121229D01*
X466471Y121207D01*
X466583Y121190D01*
X466696Y121176D01*
X466809Y121166D01*
X466922Y121160D01*
X467035Y121158D01*
X467148Y121160D01*
X467261Y121166D01*
X467374Y121176D01*
X467487Y121190D01*
X467599Y121207D01*
X467710Y121229D01*
X467820Y121254D01*
X467930Y121284D01*
X468038Y121317D01*
X468145Y121354D01*
X468251Y121394D01*
X468355Y121439D01*
X468458Y121487D01*
X468559Y121538D01*
X468658Y121593D01*
X468755Y121651D01*
X468850Y121713D01*
X468943Y121778D01*
X469033Y121846D01*
X469121Y121917D01*
X469207Y121992D01*
X469290Y122069D01*
X469370Y122149D01*
X469447Y122232D01*
X469522Y122318D01*
X469593Y122406D01*
X469661Y122496D01*
X469726Y122589D01*
X469788Y122684D01*
X469846Y122781D01*
X469901Y122880D01*
X469952Y122981D01*
X470000Y123084D01*
X470045Y123188D01*
X470085Y123294D01*
X470122Y123401D01*
X470155Y123509D01*
X470185Y123619D01*
X470210Y123729D01*
X470232Y123840D01*
X470249Y123952D01*
X470263Y124065D01*
X470273Y124178D01*
X470279Y124291D01*
X470281Y124404D01*
X470281Y132842D01*
X475601Y130246D02*
X478846Y132842D01*
X478846Y121158D01*
X475601Y121158D02*
X482092Y121158D01*
D14*
X423394Y98425D02*
X414806Y98425D01*
X414806Y73025D02*
X423394Y73025D01*
X412012Y83041D02*
X412012Y88409D01*
D20*
X429260Y69723D03*
D21*
X409025Y64262D02*
X406273Y64262D01*
X409025Y64262D02*
X409089Y64264D01*
X409153Y64270D01*
X409216Y64279D01*
X409278Y64293D01*
X409340Y64310D01*
X409400Y64331D01*
X409459Y64355D01*
X409517Y64383D01*
X409572Y64415D01*
X409626Y64449D01*
X409677Y64487D01*
X409727Y64528D01*
X409773Y64572D01*
X409817Y64618D01*
X409858Y64668D01*
X409896Y64719D01*
X409930Y64773D01*
X409962Y64828D01*
X409990Y64886D01*
X410014Y64945D01*
X410035Y65005D01*
X410052Y65067D01*
X410066Y65129D01*
X410075Y65192D01*
X410081Y65256D01*
X410083Y65320D01*
X410081Y65384D01*
X410075Y65448D01*
X410066Y65511D01*
X410052Y65573D01*
X410035Y65635D01*
X410014Y65695D01*
X409990Y65754D01*
X409962Y65812D01*
X409930Y65867D01*
X409896Y65921D01*
X409858Y65972D01*
X409817Y66022D01*
X409773Y66068D01*
X409727Y66112D01*
X409677Y66153D01*
X409626Y66191D01*
X409572Y66225D01*
X409517Y66257D01*
X409459Y66285D01*
X409400Y66309D01*
X409340Y66330D01*
X409278Y66347D01*
X409216Y66361D01*
X409153Y66370D01*
X409089Y66376D01*
X409025Y66378D01*
X409025Y66379D02*
X406273Y66379D01*
X410083Y68042D02*
X410083Y69100D01*
X410081Y69164D01*
X410075Y69228D01*
X410066Y69291D01*
X410052Y69353D01*
X410035Y69415D01*
X410014Y69475D01*
X409990Y69534D01*
X409962Y69592D01*
X409930Y69647D01*
X409896Y69701D01*
X409858Y69752D01*
X409817Y69802D01*
X409773Y69848D01*
X409727Y69892D01*
X409677Y69933D01*
X409626Y69971D01*
X409572Y70005D01*
X409517Y70037D01*
X409459Y70065D01*
X409400Y70089D01*
X409340Y70110D01*
X409278Y70127D01*
X409216Y70141D01*
X409153Y70150D01*
X409089Y70156D01*
X409025Y70158D01*
X408961Y70156D01*
X408897Y70150D01*
X408834Y70141D01*
X408772Y70127D01*
X408710Y70110D01*
X408650Y70089D01*
X408591Y70065D01*
X408533Y70037D01*
X408478Y70005D01*
X408424Y69971D01*
X408373Y69933D01*
X408323Y69892D01*
X408277Y69848D01*
X408233Y69802D01*
X408192Y69752D01*
X408154Y69701D01*
X408120Y69647D01*
X408088Y69592D01*
X408060Y69534D01*
X408036Y69475D01*
X408015Y69415D01*
X407998Y69353D01*
X407984Y69291D01*
X407975Y69228D01*
X407969Y69164D01*
X407967Y69100D01*
X406273Y69312D02*
X406273Y68042D01*
X406273Y69312D02*
X406275Y69369D01*
X406281Y69425D01*
X406290Y69481D01*
X406303Y69536D01*
X406320Y69590D01*
X406340Y69643D01*
X406364Y69694D01*
X406391Y69744D01*
X406422Y69791D01*
X406455Y69837D01*
X406492Y69880D01*
X406531Y69921D01*
X406573Y69959D01*
X406618Y69994D01*
X406664Y70026D01*
X406713Y70055D01*
X406763Y70080D01*
X406816Y70102D01*
X406869Y70121D01*
X406924Y70136D01*
X406979Y70147D01*
X407035Y70155D01*
X407092Y70159D01*
X407148Y70159D01*
X407205Y70155D01*
X407261Y70147D01*
X407316Y70136D01*
X407371Y70121D01*
X407424Y70102D01*
X407477Y70080D01*
X407527Y70055D01*
X407576Y70026D01*
X407622Y69994D01*
X407667Y69959D01*
X407709Y69921D01*
X407748Y69880D01*
X407785Y69837D01*
X407818Y69791D01*
X407849Y69744D01*
X407876Y69694D01*
X407900Y69643D01*
X407920Y69590D01*
X407937Y69536D01*
X407950Y69481D01*
X407959Y69425D01*
X407965Y69369D01*
X407967Y69312D01*
X407966Y69312D02*
X407966Y68465D01*
D13*
X90319Y124225D02*
X90321Y124304D01*
X90327Y124382D01*
X90337Y124461D01*
X90351Y124538D01*
X90369Y124615D01*
X90390Y124691D01*
X90416Y124765D01*
X90445Y124839D01*
X90478Y124910D01*
X90515Y124980D01*
X90555Y125048D01*
X90598Y125114D01*
X90645Y125177D01*
X90694Y125239D01*
X90747Y125297D01*
X90803Y125353D01*
X90861Y125406D01*
X90923Y125455D01*
X90986Y125502D01*
X91052Y125545D01*
X91120Y125585D01*
X91190Y125622D01*
X91261Y125655D01*
X91335Y125684D01*
X91409Y125710D01*
X91485Y125731D01*
X91562Y125749D01*
X91639Y125763D01*
X91718Y125773D01*
X91796Y125779D01*
X91875Y125781D01*
X91954Y125779D01*
X92032Y125773D01*
X92111Y125763D01*
X92188Y125749D01*
X92265Y125731D01*
X92341Y125710D01*
X92415Y125684D01*
X92489Y125655D01*
X92560Y125622D01*
X92630Y125585D01*
X92698Y125545D01*
X92764Y125502D01*
X92827Y125455D01*
X92889Y125406D01*
X92947Y125353D01*
X93003Y125297D01*
X93056Y125239D01*
X93105Y125177D01*
X93152Y125114D01*
X93195Y125048D01*
X93235Y124980D01*
X93272Y124910D01*
X93305Y124839D01*
X93334Y124765D01*
X93360Y124691D01*
X93381Y124615D01*
X93399Y124538D01*
X93413Y124461D01*
X93423Y124382D01*
X93429Y124304D01*
X93431Y124225D01*
X93429Y124146D01*
X93423Y124068D01*
X93413Y123989D01*
X93399Y123912D01*
X93381Y123835D01*
X93360Y123759D01*
X93334Y123685D01*
X93305Y123611D01*
X93272Y123540D01*
X93235Y123470D01*
X93195Y123402D01*
X93152Y123336D01*
X93105Y123273D01*
X93056Y123211D01*
X93003Y123153D01*
X92947Y123097D01*
X92889Y123044D01*
X92827Y122995D01*
X92764Y122948D01*
X92698Y122905D01*
X92630Y122865D01*
X92560Y122828D01*
X92489Y122795D01*
X92415Y122766D01*
X92341Y122740D01*
X92265Y122719D01*
X92188Y122701D01*
X92111Y122687D01*
X92032Y122677D01*
X91954Y122671D01*
X91875Y122669D01*
X91796Y122671D01*
X91718Y122677D01*
X91639Y122687D01*
X91562Y122701D01*
X91485Y122719D01*
X91409Y122740D01*
X91335Y122766D01*
X91261Y122795D01*
X91190Y122828D01*
X91120Y122865D01*
X91052Y122905D01*
X90986Y122948D01*
X90923Y122995D01*
X90861Y123044D01*
X90803Y123097D01*
X90747Y123153D01*
X90694Y123211D01*
X90645Y123273D01*
X90598Y123336D01*
X90555Y123402D01*
X90515Y123470D01*
X90478Y123540D01*
X90445Y123611D01*
X90416Y123685D01*
X90390Y123759D01*
X90369Y123835D01*
X90351Y123912D01*
X90337Y123989D01*
X90327Y124068D01*
X90321Y124146D01*
X90319Y124225D01*
D21*
X69542Y142536D02*
X69542Y145288D01*
X69542Y142536D02*
X69544Y142472D01*
X69550Y142408D01*
X69559Y142345D01*
X69573Y142283D01*
X69590Y142221D01*
X69611Y142161D01*
X69635Y142102D01*
X69663Y142044D01*
X69695Y141989D01*
X69729Y141935D01*
X69767Y141884D01*
X69808Y141834D01*
X69852Y141788D01*
X69898Y141744D01*
X69948Y141703D01*
X69999Y141665D01*
X70053Y141631D01*
X70108Y141599D01*
X70166Y141571D01*
X70225Y141547D01*
X70285Y141526D01*
X70347Y141509D01*
X70409Y141495D01*
X70472Y141486D01*
X70536Y141480D01*
X70600Y141478D01*
X70664Y141480D01*
X70728Y141486D01*
X70791Y141495D01*
X70853Y141509D01*
X70915Y141526D01*
X70975Y141547D01*
X71034Y141571D01*
X71092Y141599D01*
X71147Y141631D01*
X71201Y141665D01*
X71252Y141703D01*
X71302Y141744D01*
X71348Y141788D01*
X71392Y141834D01*
X71433Y141884D01*
X71471Y141935D01*
X71505Y141989D01*
X71537Y142044D01*
X71565Y142102D01*
X71589Y142161D01*
X71610Y142221D01*
X71627Y142283D01*
X71641Y142345D01*
X71650Y142408D01*
X71656Y142472D01*
X71658Y142536D01*
X71659Y142536D02*
X71659Y145288D01*
X74168Y145288D02*
X73321Y142325D01*
X75438Y142325D01*
X74803Y143171D02*
X74803Y141478D01*
D17*
X591600Y253115D02*
X627600Y253115D01*
X627600Y159635D01*
X591600Y159635D01*
X591600Y253115D01*
X588100Y251225D02*
X574600Y251225D01*
D12*
X600915Y212217D02*
X600915Y200533D01*
X600915Y205077D02*
X607406Y212217D01*
X603511Y207673D02*
X607406Y200533D01*
X611794Y209621D02*
X615040Y212217D01*
X615040Y200533D01*
X618285Y200533D02*
X611794Y200533D01*
D13*
X542048Y227330D02*
X542048Y232156D01*
X543389Y232156D01*
X543460Y232154D01*
X543532Y232148D01*
X543602Y232139D01*
X543672Y232126D01*
X543742Y232109D01*
X543810Y232088D01*
X543877Y232064D01*
X543943Y232036D01*
X544007Y232005D01*
X544070Y231970D01*
X544130Y231932D01*
X544189Y231891D01*
X544245Y231847D01*
X544299Y231800D01*
X544350Y231751D01*
X544398Y231698D01*
X544444Y231643D01*
X544486Y231586D01*
X544526Y231526D01*
X544562Y231465D01*
X544595Y231401D01*
X544624Y231336D01*
X544650Y231270D01*
X544673Y231202D01*
X544692Y231133D01*
X544707Y231063D01*
X544718Y230993D01*
X544726Y230922D01*
X544730Y230851D01*
X544730Y230779D01*
X544726Y230708D01*
X544718Y230637D01*
X544707Y230567D01*
X544692Y230497D01*
X544673Y230428D01*
X544650Y230360D01*
X544624Y230294D01*
X544595Y230229D01*
X544562Y230165D01*
X544526Y230104D01*
X544486Y230044D01*
X544444Y229987D01*
X544398Y229932D01*
X544350Y229879D01*
X544299Y229830D01*
X544245Y229783D01*
X544189Y229739D01*
X544130Y229698D01*
X544070Y229660D01*
X544007Y229625D01*
X543943Y229594D01*
X543877Y229566D01*
X543810Y229542D01*
X543742Y229521D01*
X543672Y229504D01*
X543602Y229491D01*
X543532Y229482D01*
X543460Y229476D01*
X543389Y229474D01*
X543389Y229475D02*
X542048Y229475D01*
X543657Y229475D02*
X544729Y227330D01*
X547471Y230011D02*
X549079Y230011D01*
X549144Y230009D01*
X549208Y230003D01*
X549272Y229993D01*
X549336Y229980D01*
X549398Y229962D01*
X549459Y229941D01*
X549519Y229917D01*
X549577Y229888D01*
X549634Y229856D01*
X549688Y229821D01*
X549740Y229783D01*
X549790Y229741D01*
X549837Y229697D01*
X549881Y229650D01*
X549923Y229600D01*
X549961Y229548D01*
X549996Y229494D01*
X550028Y229437D01*
X550057Y229379D01*
X550081Y229319D01*
X550102Y229258D01*
X550120Y229196D01*
X550133Y229132D01*
X550143Y229068D01*
X550149Y229004D01*
X550151Y228939D01*
X550152Y228939D02*
X550152Y228671D01*
X550150Y228600D01*
X550144Y228528D01*
X550135Y228458D01*
X550122Y228388D01*
X550105Y228318D01*
X550084Y228250D01*
X550060Y228183D01*
X550032Y228117D01*
X550001Y228053D01*
X549966Y227990D01*
X549928Y227930D01*
X549887Y227871D01*
X549843Y227815D01*
X549796Y227761D01*
X549747Y227710D01*
X549694Y227662D01*
X549639Y227616D01*
X549582Y227574D01*
X549522Y227534D01*
X549461Y227498D01*
X549397Y227465D01*
X549332Y227436D01*
X549266Y227410D01*
X549198Y227387D01*
X549129Y227368D01*
X549059Y227353D01*
X548989Y227342D01*
X548918Y227334D01*
X548847Y227330D01*
X548775Y227330D01*
X548704Y227334D01*
X548633Y227342D01*
X548563Y227353D01*
X548493Y227368D01*
X548424Y227387D01*
X548356Y227410D01*
X548290Y227436D01*
X548225Y227465D01*
X548161Y227498D01*
X548100Y227534D01*
X548040Y227574D01*
X547983Y227616D01*
X547928Y227662D01*
X547875Y227710D01*
X547826Y227761D01*
X547779Y227815D01*
X547735Y227871D01*
X547694Y227930D01*
X547656Y227990D01*
X547621Y228053D01*
X547590Y228117D01*
X547562Y228183D01*
X547538Y228250D01*
X547517Y228318D01*
X547500Y228388D01*
X547487Y228458D01*
X547478Y228528D01*
X547472Y228600D01*
X547470Y228671D01*
X547471Y228671D02*
X547471Y230011D01*
X547473Y230102D01*
X547479Y230193D01*
X547488Y230283D01*
X547502Y230374D01*
X547519Y230463D01*
X547540Y230551D01*
X547565Y230639D01*
X547594Y230726D01*
X547626Y230811D01*
X547661Y230895D01*
X547701Y230977D01*
X547743Y231057D01*
X547789Y231136D01*
X547839Y231212D01*
X547891Y231286D01*
X547947Y231359D01*
X548006Y231428D01*
X548067Y231495D01*
X548132Y231560D01*
X548199Y231621D01*
X548268Y231680D01*
X548340Y231736D01*
X548415Y231788D01*
X548491Y231838D01*
X548570Y231884D01*
X548650Y231926D01*
X548732Y231966D01*
X548816Y232001D01*
X548901Y232033D01*
X548988Y232062D01*
X549075Y232087D01*
X549164Y232108D01*
X549253Y232125D01*
X549344Y232139D01*
X549434Y232148D01*
X549525Y232154D01*
X549616Y232156D01*
X542048Y190881D02*
X542048Y186055D01*
X542048Y190881D02*
X543389Y190881D01*
X543460Y190879D01*
X543532Y190873D01*
X543602Y190864D01*
X543672Y190851D01*
X543742Y190834D01*
X543810Y190813D01*
X543877Y190789D01*
X543943Y190761D01*
X544007Y190730D01*
X544070Y190695D01*
X544130Y190657D01*
X544189Y190616D01*
X544245Y190572D01*
X544299Y190525D01*
X544350Y190476D01*
X544398Y190423D01*
X544444Y190368D01*
X544486Y190311D01*
X544526Y190251D01*
X544562Y190190D01*
X544595Y190126D01*
X544624Y190061D01*
X544650Y189995D01*
X544673Y189927D01*
X544692Y189858D01*
X544707Y189788D01*
X544718Y189718D01*
X544726Y189647D01*
X544730Y189576D01*
X544730Y189504D01*
X544726Y189433D01*
X544718Y189362D01*
X544707Y189292D01*
X544692Y189222D01*
X544673Y189153D01*
X544650Y189085D01*
X544624Y189019D01*
X544595Y188954D01*
X544562Y188890D01*
X544526Y188829D01*
X544486Y188769D01*
X544444Y188712D01*
X544398Y188657D01*
X544350Y188604D01*
X544299Y188555D01*
X544245Y188508D01*
X544189Y188464D01*
X544130Y188423D01*
X544070Y188385D01*
X544007Y188350D01*
X543943Y188319D01*
X543877Y188291D01*
X543810Y188267D01*
X543742Y188246D01*
X543672Y188229D01*
X543602Y188216D01*
X543532Y188207D01*
X543460Y188201D01*
X543389Y188199D01*
X543389Y188200D02*
X542048Y188200D01*
X543657Y188200D02*
X544729Y186055D01*
X548543Y188200D02*
X550152Y188200D01*
X548543Y188200D02*
X548478Y188202D01*
X548414Y188208D01*
X548350Y188218D01*
X548286Y188231D01*
X548224Y188249D01*
X548163Y188270D01*
X548103Y188294D01*
X548045Y188323D01*
X547988Y188355D01*
X547934Y188390D01*
X547882Y188428D01*
X547832Y188470D01*
X547785Y188514D01*
X547741Y188561D01*
X547699Y188611D01*
X547661Y188663D01*
X547626Y188717D01*
X547594Y188774D01*
X547565Y188832D01*
X547541Y188892D01*
X547520Y188953D01*
X547502Y189015D01*
X547489Y189079D01*
X547479Y189143D01*
X547473Y189207D01*
X547471Y189272D01*
X547471Y189540D01*
X547470Y189540D02*
X547472Y189611D01*
X547478Y189683D01*
X547487Y189753D01*
X547500Y189823D01*
X547517Y189893D01*
X547538Y189961D01*
X547562Y190028D01*
X547590Y190094D01*
X547621Y190158D01*
X547656Y190221D01*
X547694Y190281D01*
X547735Y190340D01*
X547779Y190396D01*
X547826Y190450D01*
X547875Y190501D01*
X547928Y190549D01*
X547983Y190595D01*
X548040Y190637D01*
X548100Y190677D01*
X548161Y190713D01*
X548225Y190746D01*
X548290Y190775D01*
X548356Y190801D01*
X548424Y190824D01*
X548493Y190843D01*
X548563Y190858D01*
X548633Y190869D01*
X548704Y190877D01*
X548775Y190881D01*
X548847Y190881D01*
X548918Y190877D01*
X548989Y190869D01*
X549059Y190858D01*
X549129Y190843D01*
X549198Y190824D01*
X549266Y190801D01*
X549332Y190775D01*
X549397Y190746D01*
X549461Y190713D01*
X549522Y190677D01*
X549582Y190637D01*
X549639Y190595D01*
X549694Y190549D01*
X549747Y190501D01*
X549796Y190450D01*
X549843Y190396D01*
X549887Y190340D01*
X549928Y190281D01*
X549966Y190221D01*
X550001Y190158D01*
X550032Y190094D01*
X550060Y190028D01*
X550084Y189961D01*
X550105Y189893D01*
X550122Y189823D01*
X550135Y189753D01*
X550144Y189683D01*
X550150Y189611D01*
X550152Y189540D01*
X550152Y188200D01*
X550150Y188109D01*
X550144Y188018D01*
X550135Y187928D01*
X550121Y187837D01*
X550104Y187748D01*
X550083Y187660D01*
X550058Y187572D01*
X550029Y187485D01*
X549997Y187400D01*
X549962Y187316D01*
X549922Y187234D01*
X549880Y187154D01*
X549834Y187075D01*
X549784Y186999D01*
X549732Y186925D01*
X549676Y186852D01*
X549617Y186783D01*
X549556Y186716D01*
X549491Y186651D01*
X549424Y186590D01*
X549355Y186531D01*
X549282Y186475D01*
X549208Y186423D01*
X549132Y186373D01*
X549053Y186327D01*
X548973Y186285D01*
X548891Y186245D01*
X548807Y186210D01*
X548722Y186178D01*
X548635Y186149D01*
X548547Y186124D01*
X548459Y186103D01*
X548370Y186086D01*
X548279Y186072D01*
X548189Y186063D01*
X548098Y186057D01*
X548007Y186055D01*
D17*
X594775Y129290D02*
X630775Y129290D01*
X630775Y35810D01*
X594775Y35810D01*
X594775Y129290D01*
X591275Y127400D02*
X577775Y127400D01*
D12*
X604090Y88392D02*
X604090Y76708D01*
X604090Y81252D02*
X610581Y88392D01*
X606686Y83848D02*
X610581Y76708D01*
X621460Y85471D02*
X621458Y85578D01*
X621452Y85684D01*
X621442Y85790D01*
X621429Y85896D01*
X621411Y86002D01*
X621390Y86106D01*
X621365Y86210D01*
X621336Y86313D01*
X621304Y86414D01*
X621267Y86514D01*
X621227Y86613D01*
X621184Y86711D01*
X621137Y86807D01*
X621086Y86901D01*
X621032Y86993D01*
X620975Y87083D01*
X620915Y87171D01*
X620851Y87256D01*
X620784Y87339D01*
X620714Y87420D01*
X620642Y87498D01*
X620566Y87574D01*
X620488Y87646D01*
X620407Y87716D01*
X620324Y87783D01*
X620239Y87847D01*
X620151Y87907D01*
X620061Y87964D01*
X619969Y88018D01*
X619875Y88069D01*
X619779Y88116D01*
X619681Y88159D01*
X619582Y88199D01*
X619482Y88236D01*
X619381Y88268D01*
X619278Y88297D01*
X619174Y88322D01*
X619070Y88343D01*
X618964Y88361D01*
X618858Y88374D01*
X618752Y88384D01*
X618646Y88390D01*
X618539Y88392D01*
X618418Y88390D01*
X618297Y88384D01*
X618177Y88374D01*
X618056Y88361D01*
X617937Y88343D01*
X617817Y88322D01*
X617699Y88297D01*
X617582Y88268D01*
X617465Y88235D01*
X617350Y88199D01*
X617236Y88158D01*
X617123Y88115D01*
X617011Y88067D01*
X616902Y88016D01*
X616794Y87961D01*
X616687Y87903D01*
X616583Y87842D01*
X616481Y87777D01*
X616381Y87709D01*
X616283Y87638D01*
X616187Y87564D01*
X616094Y87487D01*
X616004Y87406D01*
X615916Y87323D01*
X615831Y87237D01*
X615748Y87148D01*
X615669Y87057D01*
X615592Y86963D01*
X615519Y86867D01*
X615449Y86769D01*
X615382Y86668D01*
X615318Y86565D01*
X615258Y86460D01*
X615201Y86353D01*
X615147Y86245D01*
X615097Y86135D01*
X615051Y86023D01*
X615008Y85910D01*
X614969Y85795D01*
X620487Y83199D02*
X620566Y83276D01*
X620642Y83357D01*
X620715Y83440D01*
X620785Y83525D01*
X620852Y83613D01*
X620916Y83703D01*
X620976Y83795D01*
X621033Y83890D01*
X621087Y83986D01*
X621138Y84084D01*
X621185Y84184D01*
X621229Y84286D01*
X621269Y84389D01*
X621305Y84493D01*
X621337Y84599D01*
X621366Y84705D01*
X621391Y84813D01*
X621413Y84921D01*
X621430Y85031D01*
X621444Y85140D01*
X621453Y85250D01*
X621459Y85361D01*
X621461Y85471D01*
X620487Y83199D02*
X614969Y76708D01*
X621460Y76708D01*
D13*
X539305Y103505D02*
X539305Y108331D01*
X540646Y108331D01*
X540717Y108329D01*
X540789Y108323D01*
X540859Y108314D01*
X540929Y108301D01*
X540999Y108284D01*
X541067Y108263D01*
X541134Y108239D01*
X541200Y108211D01*
X541264Y108180D01*
X541327Y108145D01*
X541387Y108107D01*
X541446Y108066D01*
X541502Y108022D01*
X541556Y107975D01*
X541607Y107926D01*
X541655Y107873D01*
X541701Y107818D01*
X541743Y107761D01*
X541783Y107701D01*
X541819Y107640D01*
X541852Y107576D01*
X541881Y107511D01*
X541907Y107445D01*
X541930Y107377D01*
X541949Y107308D01*
X541964Y107238D01*
X541975Y107168D01*
X541983Y107097D01*
X541987Y107026D01*
X541987Y106954D01*
X541983Y106883D01*
X541975Y106812D01*
X541964Y106742D01*
X541949Y106672D01*
X541930Y106603D01*
X541907Y106535D01*
X541881Y106469D01*
X541852Y106404D01*
X541819Y106340D01*
X541783Y106279D01*
X541743Y106219D01*
X541701Y106162D01*
X541655Y106107D01*
X541607Y106054D01*
X541556Y106005D01*
X541502Y105958D01*
X541446Y105914D01*
X541387Y105873D01*
X541327Y105835D01*
X541264Y105800D01*
X541200Y105769D01*
X541134Y105741D01*
X541067Y105717D01*
X540999Y105696D01*
X540929Y105679D01*
X540859Y105666D01*
X540789Y105657D01*
X540717Y105651D01*
X540646Y105649D01*
X540646Y105650D02*
X539305Y105650D01*
X540914Y105650D02*
X541986Y103505D01*
X544728Y107259D02*
X546068Y108331D01*
X546068Y103505D01*
X544728Y103505D02*
X547409Y103505D01*
X550214Y105918D02*
X550216Y106038D01*
X550221Y106158D01*
X550230Y106278D01*
X550243Y106398D01*
X550259Y106517D01*
X550279Y106636D01*
X550303Y106754D01*
X550330Y106871D01*
X550360Y106987D01*
X550394Y107102D01*
X550432Y107217D01*
X550473Y107330D01*
X550517Y107441D01*
X550565Y107552D01*
X550616Y107661D01*
X550617Y107661D02*
X550638Y107718D01*
X550664Y107774D01*
X550692Y107829D01*
X550724Y107881D01*
X550760Y107932D01*
X550798Y107980D01*
X550839Y108026D01*
X550883Y108069D01*
X550929Y108109D01*
X550978Y108146D01*
X551030Y108180D01*
X551083Y108211D01*
X551138Y108239D01*
X551194Y108263D01*
X551252Y108284D01*
X551311Y108301D01*
X551371Y108314D01*
X551432Y108323D01*
X551494Y108329D01*
X551555Y108331D01*
X551616Y108329D01*
X551678Y108323D01*
X551739Y108314D01*
X551799Y108301D01*
X551858Y108284D01*
X551916Y108263D01*
X551972Y108239D01*
X552027Y108211D01*
X552080Y108180D01*
X552132Y108146D01*
X552181Y108109D01*
X552227Y108069D01*
X552271Y108026D01*
X552312Y107980D01*
X552350Y107932D01*
X552386Y107881D01*
X552418Y107829D01*
X552446Y107774D01*
X552472Y107718D01*
X552493Y107661D01*
X552544Y107552D01*
X552592Y107441D01*
X552636Y107330D01*
X552677Y107217D01*
X552715Y107102D01*
X552749Y106987D01*
X552779Y106871D01*
X552806Y106754D01*
X552830Y106636D01*
X552850Y106517D01*
X552866Y106398D01*
X552879Y106278D01*
X552888Y106158D01*
X552893Y106038D01*
X552895Y105918D01*
X550214Y105918D02*
X550216Y105798D01*
X550221Y105678D01*
X550230Y105558D01*
X550243Y105438D01*
X550259Y105319D01*
X550279Y105200D01*
X550303Y105082D01*
X550330Y104965D01*
X550360Y104849D01*
X550394Y104734D01*
X550432Y104619D01*
X550473Y104506D01*
X550517Y104395D01*
X550565Y104284D01*
X550616Y104175D01*
X550617Y104175D02*
X550638Y104118D01*
X550664Y104062D01*
X550692Y104007D01*
X550724Y103955D01*
X550760Y103904D01*
X550798Y103856D01*
X550839Y103810D01*
X550883Y103767D01*
X550929Y103727D01*
X550978Y103690D01*
X551030Y103656D01*
X551083Y103625D01*
X551138Y103597D01*
X551194Y103573D01*
X551252Y103552D01*
X551311Y103535D01*
X551371Y103522D01*
X551432Y103513D01*
X551494Y103507D01*
X551555Y103505D01*
X552493Y104175D02*
X552544Y104284D01*
X552592Y104395D01*
X552636Y104506D01*
X552677Y104619D01*
X552715Y104734D01*
X552749Y104849D01*
X552779Y104965D01*
X552806Y105082D01*
X552830Y105200D01*
X552850Y105319D01*
X552866Y105438D01*
X552879Y105558D01*
X552888Y105678D01*
X552893Y105798D01*
X552895Y105918D01*
X552493Y104175D02*
X552472Y104118D01*
X552446Y104062D01*
X552418Y104007D01*
X552386Y103955D01*
X552350Y103904D01*
X552312Y103856D01*
X552271Y103810D01*
X552227Y103767D01*
X552180Y103727D01*
X552132Y103690D01*
X552080Y103656D01*
X552027Y103625D01*
X551972Y103597D01*
X551916Y103573D01*
X551858Y103552D01*
X551799Y103535D01*
X551739Y103522D01*
X551678Y103513D01*
X551616Y103507D01*
X551555Y103505D01*
X550482Y104577D02*
X552627Y107259D01*
X539305Y57531D02*
X539305Y52705D01*
X539305Y57531D02*
X540646Y57531D01*
X540717Y57529D01*
X540789Y57523D01*
X540859Y57514D01*
X540929Y57501D01*
X540999Y57484D01*
X541067Y57463D01*
X541134Y57439D01*
X541200Y57411D01*
X541264Y57380D01*
X541327Y57345D01*
X541387Y57307D01*
X541446Y57266D01*
X541502Y57222D01*
X541556Y57175D01*
X541607Y57126D01*
X541655Y57073D01*
X541701Y57018D01*
X541743Y56961D01*
X541783Y56901D01*
X541819Y56840D01*
X541852Y56776D01*
X541881Y56711D01*
X541907Y56645D01*
X541930Y56577D01*
X541949Y56508D01*
X541964Y56438D01*
X541975Y56368D01*
X541983Y56297D01*
X541987Y56226D01*
X541987Y56154D01*
X541983Y56083D01*
X541975Y56012D01*
X541964Y55942D01*
X541949Y55872D01*
X541930Y55803D01*
X541907Y55735D01*
X541881Y55669D01*
X541852Y55604D01*
X541819Y55540D01*
X541783Y55479D01*
X541743Y55419D01*
X541701Y55362D01*
X541655Y55307D01*
X541607Y55254D01*
X541556Y55205D01*
X541502Y55158D01*
X541446Y55114D01*
X541387Y55073D01*
X541327Y55035D01*
X541264Y55000D01*
X541200Y54969D01*
X541134Y54941D01*
X541067Y54917D01*
X540999Y54896D01*
X540929Y54879D01*
X540859Y54866D01*
X540789Y54857D01*
X540717Y54851D01*
X540646Y54849D01*
X540646Y54850D02*
X539305Y54850D01*
X540914Y54850D02*
X541986Y52705D01*
X544728Y56459D02*
X546068Y57531D01*
X546068Y52705D01*
X544728Y52705D02*
X547409Y52705D01*
X550214Y56459D02*
X551555Y57531D01*
X551555Y52705D01*
X552895Y52705D02*
X550214Y52705D01*
D17*
X553335Y286800D02*
X553335Y322800D01*
X646815Y322800D01*
X646815Y286800D01*
X553335Y286800D01*
X555225Y283300D02*
X555225Y269800D01*
D12*
X594233Y296115D02*
X605917Y296115D01*
X601373Y296115D02*
X594233Y302606D01*
X598777Y298711D02*
X605917Y302606D01*
X605917Y306994D02*
X605917Y310240D01*
X605915Y310353D01*
X605909Y310466D01*
X605899Y310579D01*
X605885Y310692D01*
X605868Y310804D01*
X605846Y310915D01*
X605821Y311025D01*
X605791Y311135D01*
X605758Y311243D01*
X605721Y311350D01*
X605681Y311456D01*
X605636Y311560D01*
X605588Y311663D01*
X605537Y311764D01*
X605482Y311863D01*
X605424Y311960D01*
X605362Y312055D01*
X605297Y312148D01*
X605229Y312238D01*
X605158Y312326D01*
X605083Y312412D01*
X605006Y312495D01*
X604926Y312575D01*
X604843Y312652D01*
X604757Y312727D01*
X604669Y312798D01*
X604579Y312866D01*
X604486Y312931D01*
X604391Y312993D01*
X604294Y313051D01*
X604195Y313106D01*
X604094Y313157D01*
X603991Y313205D01*
X603887Y313250D01*
X603781Y313290D01*
X603674Y313327D01*
X603566Y313360D01*
X603456Y313390D01*
X603346Y313415D01*
X603235Y313437D01*
X603123Y313454D01*
X603010Y313468D01*
X602897Y313478D01*
X602784Y313484D01*
X602671Y313486D01*
X602558Y313484D01*
X602445Y313478D01*
X602332Y313468D01*
X602219Y313454D01*
X602107Y313437D01*
X601996Y313415D01*
X601886Y313390D01*
X601776Y313360D01*
X601668Y313327D01*
X601561Y313290D01*
X601455Y313250D01*
X601351Y313205D01*
X601248Y313157D01*
X601147Y313106D01*
X601048Y313051D01*
X600951Y312993D01*
X600856Y312931D01*
X600763Y312866D01*
X600673Y312798D01*
X600585Y312727D01*
X600499Y312652D01*
X600416Y312575D01*
X600336Y312495D01*
X600259Y312412D01*
X600184Y312326D01*
X600113Y312238D01*
X600045Y312148D01*
X599980Y312055D01*
X599918Y311960D01*
X599860Y311863D01*
X599805Y311764D01*
X599754Y311663D01*
X599706Y311560D01*
X599661Y311456D01*
X599621Y311350D01*
X599584Y311243D01*
X599551Y311135D01*
X599521Y311025D01*
X599496Y310915D01*
X599474Y310804D01*
X599457Y310692D01*
X599443Y310579D01*
X599433Y310466D01*
X599427Y310353D01*
X599425Y310240D01*
X594233Y310889D02*
X594233Y306994D01*
X594233Y310889D02*
X594235Y310990D01*
X594241Y311090D01*
X594251Y311190D01*
X594264Y311290D01*
X594282Y311389D01*
X594303Y311488D01*
X594328Y311585D01*
X594357Y311682D01*
X594390Y311777D01*
X594426Y311871D01*
X594466Y311963D01*
X594509Y312054D01*
X594556Y312143D01*
X594606Y312230D01*
X594660Y312316D01*
X594717Y312399D01*
X594777Y312479D01*
X594840Y312558D01*
X594907Y312634D01*
X594976Y312707D01*
X595048Y312777D01*
X595122Y312845D01*
X595199Y312910D01*
X595279Y312971D01*
X595361Y313030D01*
X595445Y313085D01*
X595531Y313137D01*
X595619Y313186D01*
X595709Y313231D01*
X595801Y313273D01*
X595894Y313311D01*
X595989Y313345D01*
X596084Y313376D01*
X596181Y313403D01*
X596279Y313426D01*
X596378Y313446D01*
X596478Y313461D01*
X596578Y313473D01*
X596678Y313481D01*
X596779Y313485D01*
X596879Y313485D01*
X596980Y313481D01*
X597080Y313473D01*
X597180Y313461D01*
X597280Y313446D01*
X597379Y313426D01*
X597477Y313403D01*
X597574Y313376D01*
X597669Y313345D01*
X597764Y313311D01*
X597857Y313273D01*
X597949Y313231D01*
X598039Y313186D01*
X598127Y313137D01*
X598213Y313085D01*
X598297Y313030D01*
X598379Y312971D01*
X598459Y312910D01*
X598536Y312845D01*
X598610Y312777D01*
X598682Y312707D01*
X598751Y312634D01*
X598818Y312558D01*
X598881Y312479D01*
X598941Y312399D01*
X598998Y312316D01*
X599052Y312230D01*
X599102Y312143D01*
X599149Y312054D01*
X599192Y311963D01*
X599232Y311871D01*
X599268Y311777D01*
X599301Y311682D01*
X599330Y311585D01*
X599355Y311488D01*
X599376Y311389D01*
X599394Y311290D01*
X599407Y311190D01*
X599417Y311090D01*
X599423Y310990D01*
X599425Y310889D01*
X599426Y310889D02*
X599426Y308293D01*
D13*
X518795Y298005D02*
X513969Y298005D01*
X513969Y299346D01*
X513971Y299417D01*
X513977Y299489D01*
X513986Y299559D01*
X513999Y299629D01*
X514016Y299699D01*
X514037Y299767D01*
X514061Y299834D01*
X514089Y299900D01*
X514120Y299964D01*
X514155Y300027D01*
X514193Y300087D01*
X514234Y300146D01*
X514278Y300202D01*
X514325Y300256D01*
X514374Y300307D01*
X514427Y300355D01*
X514482Y300401D01*
X514539Y300443D01*
X514599Y300483D01*
X514660Y300519D01*
X514724Y300552D01*
X514789Y300581D01*
X514855Y300607D01*
X514923Y300630D01*
X514992Y300649D01*
X515062Y300664D01*
X515132Y300675D01*
X515203Y300683D01*
X515274Y300687D01*
X515346Y300687D01*
X515417Y300683D01*
X515488Y300675D01*
X515558Y300664D01*
X515628Y300649D01*
X515697Y300630D01*
X515765Y300607D01*
X515831Y300581D01*
X515896Y300552D01*
X515960Y300519D01*
X516021Y300483D01*
X516081Y300443D01*
X516138Y300401D01*
X516193Y300355D01*
X516246Y300307D01*
X516295Y300256D01*
X516342Y300202D01*
X516386Y300146D01*
X516427Y300087D01*
X516465Y300027D01*
X516500Y299964D01*
X516531Y299900D01*
X516559Y299834D01*
X516583Y299767D01*
X516604Y299699D01*
X516621Y299629D01*
X516634Y299559D01*
X516643Y299489D01*
X516649Y299417D01*
X516651Y299346D01*
X516650Y299346D02*
X516650Y298005D01*
X516650Y299614D02*
X518795Y300686D01*
X515041Y303428D02*
X513969Y304768D01*
X518795Y304768D01*
X518795Y303428D02*
X518795Y306109D01*
X513969Y310389D02*
X513971Y310457D01*
X513977Y310524D01*
X513986Y310591D01*
X513999Y310658D01*
X514016Y310723D01*
X514037Y310788D01*
X514061Y310851D01*
X514089Y310913D01*
X514120Y310973D01*
X514154Y311031D01*
X514192Y311087D01*
X514232Y311142D01*
X514276Y311193D01*
X514323Y311242D01*
X514372Y311289D01*
X514423Y311333D01*
X514478Y311373D01*
X514534Y311411D01*
X514592Y311445D01*
X514652Y311476D01*
X514714Y311504D01*
X514777Y311528D01*
X514842Y311549D01*
X514907Y311566D01*
X514974Y311579D01*
X515041Y311588D01*
X515108Y311594D01*
X515176Y311596D01*
X513969Y310388D02*
X513971Y310310D01*
X513977Y310232D01*
X513987Y310155D01*
X514000Y310078D01*
X514018Y310002D01*
X514039Y309927D01*
X514064Y309853D01*
X514093Y309781D01*
X514125Y309710D01*
X514161Y309641D01*
X514200Y309573D01*
X514243Y309508D01*
X514289Y309445D01*
X514338Y309384D01*
X514390Y309326D01*
X514445Y309271D01*
X514502Y309218D01*
X514562Y309169D01*
X514625Y309122D01*
X514690Y309079D01*
X514756Y309039D01*
X514825Y309002D01*
X514896Y308969D01*
X514968Y308939D01*
X515042Y308913D01*
X516114Y311193D02*
X516065Y311242D01*
X516013Y311289D01*
X515958Y311332D01*
X515901Y311373D01*
X515842Y311411D01*
X515781Y311445D01*
X515718Y311476D01*
X515654Y311504D01*
X515588Y311528D01*
X515522Y311548D01*
X515454Y311565D01*
X515385Y311578D01*
X515316Y311587D01*
X515246Y311593D01*
X515176Y311595D01*
X516114Y311193D02*
X518795Y308914D01*
X518795Y311595D01*
D12*
X351917Y222758D02*
X340233Y222758D01*
X340233Y226004D01*
X340235Y226117D01*
X340241Y226230D01*
X340251Y226343D01*
X340265Y226456D01*
X340282Y226568D01*
X340304Y226679D01*
X340329Y226789D01*
X340359Y226899D01*
X340392Y227007D01*
X340429Y227114D01*
X340469Y227220D01*
X340514Y227324D01*
X340562Y227427D01*
X340613Y227528D01*
X340668Y227627D01*
X340726Y227724D01*
X340788Y227819D01*
X340853Y227912D01*
X340921Y228002D01*
X340992Y228090D01*
X341067Y228176D01*
X341144Y228259D01*
X341224Y228339D01*
X341307Y228416D01*
X341393Y228491D01*
X341481Y228562D01*
X341571Y228630D01*
X341664Y228695D01*
X341759Y228757D01*
X341856Y228815D01*
X341955Y228870D01*
X342056Y228921D01*
X342159Y228969D01*
X342263Y229014D01*
X342369Y229054D01*
X342476Y229091D01*
X342584Y229124D01*
X342694Y229154D01*
X342804Y229179D01*
X342915Y229201D01*
X343027Y229218D01*
X343140Y229232D01*
X343253Y229242D01*
X343366Y229248D01*
X343479Y229250D01*
X343592Y229248D01*
X343705Y229242D01*
X343818Y229232D01*
X343931Y229218D01*
X344043Y229201D01*
X344154Y229179D01*
X344264Y229154D01*
X344374Y229124D01*
X344482Y229091D01*
X344589Y229054D01*
X344695Y229014D01*
X344799Y228969D01*
X344902Y228921D01*
X345003Y228870D01*
X345102Y228815D01*
X345199Y228757D01*
X345294Y228695D01*
X345387Y228630D01*
X345477Y228562D01*
X345565Y228491D01*
X345651Y228416D01*
X345734Y228339D01*
X345814Y228259D01*
X345891Y228176D01*
X345966Y228090D01*
X346037Y228002D01*
X346105Y227912D01*
X346170Y227819D01*
X346232Y227724D01*
X346290Y227627D01*
X346345Y227528D01*
X346396Y227427D01*
X346444Y227324D01*
X346489Y227220D01*
X346529Y227114D01*
X346566Y227007D01*
X346599Y226899D01*
X346629Y226789D01*
X346654Y226679D01*
X346676Y226568D01*
X346693Y226456D01*
X346707Y226343D01*
X346717Y226230D01*
X346723Y226117D01*
X346725Y226004D01*
X346724Y226004D02*
X346724Y222758D01*
X346724Y226653D02*
X351917Y229249D01*
X342829Y234114D02*
X340233Y237360D01*
X351917Y237360D01*
X351917Y240605D02*
X351917Y234114D01*
X351917Y245544D02*
X351917Y248790D01*
X351915Y248903D01*
X351909Y249016D01*
X351899Y249129D01*
X351885Y249242D01*
X351868Y249354D01*
X351846Y249465D01*
X351821Y249575D01*
X351791Y249685D01*
X351758Y249793D01*
X351721Y249900D01*
X351681Y250006D01*
X351636Y250110D01*
X351588Y250213D01*
X351537Y250314D01*
X351482Y250413D01*
X351424Y250510D01*
X351362Y250605D01*
X351297Y250698D01*
X351229Y250788D01*
X351158Y250876D01*
X351083Y250962D01*
X351006Y251045D01*
X350926Y251125D01*
X350843Y251202D01*
X350757Y251277D01*
X350669Y251348D01*
X350579Y251416D01*
X350486Y251481D01*
X350391Y251543D01*
X350294Y251601D01*
X350195Y251656D01*
X350094Y251707D01*
X349991Y251755D01*
X349887Y251800D01*
X349781Y251840D01*
X349674Y251877D01*
X349566Y251910D01*
X349456Y251940D01*
X349346Y251965D01*
X349235Y251987D01*
X349123Y252004D01*
X349010Y252018D01*
X348897Y252028D01*
X348784Y252034D01*
X348671Y252036D01*
X348558Y252034D01*
X348445Y252028D01*
X348332Y252018D01*
X348219Y252004D01*
X348107Y251987D01*
X347996Y251965D01*
X347886Y251940D01*
X347776Y251910D01*
X347668Y251877D01*
X347561Y251840D01*
X347455Y251800D01*
X347351Y251755D01*
X347248Y251707D01*
X347147Y251656D01*
X347048Y251601D01*
X346951Y251543D01*
X346856Y251481D01*
X346763Y251416D01*
X346673Y251348D01*
X346585Y251277D01*
X346499Y251202D01*
X346416Y251125D01*
X346336Y251045D01*
X346259Y250962D01*
X346184Y250876D01*
X346113Y250788D01*
X346045Y250698D01*
X345980Y250605D01*
X345918Y250510D01*
X345860Y250413D01*
X345805Y250314D01*
X345754Y250213D01*
X345706Y250110D01*
X345661Y250006D01*
X345621Y249900D01*
X345584Y249793D01*
X345551Y249685D01*
X345521Y249575D01*
X345496Y249465D01*
X345474Y249354D01*
X345457Y249242D01*
X345443Y249129D01*
X345433Y249016D01*
X345427Y248903D01*
X345425Y248790D01*
X340233Y249439D02*
X340233Y245544D01*
X340233Y249439D02*
X340235Y249540D01*
X340241Y249640D01*
X340251Y249740D01*
X340264Y249840D01*
X340282Y249939D01*
X340303Y250038D01*
X340328Y250135D01*
X340357Y250232D01*
X340390Y250327D01*
X340426Y250421D01*
X340466Y250513D01*
X340509Y250604D01*
X340556Y250693D01*
X340606Y250780D01*
X340660Y250866D01*
X340717Y250949D01*
X340777Y251029D01*
X340840Y251108D01*
X340907Y251184D01*
X340976Y251257D01*
X341048Y251327D01*
X341122Y251395D01*
X341199Y251460D01*
X341279Y251521D01*
X341361Y251580D01*
X341445Y251635D01*
X341531Y251687D01*
X341619Y251736D01*
X341709Y251781D01*
X341801Y251823D01*
X341894Y251861D01*
X341989Y251895D01*
X342084Y251926D01*
X342181Y251953D01*
X342279Y251976D01*
X342378Y251996D01*
X342478Y252011D01*
X342578Y252023D01*
X342678Y252031D01*
X342779Y252035D01*
X342879Y252035D01*
X342980Y252031D01*
X343080Y252023D01*
X343180Y252011D01*
X343280Y251996D01*
X343379Y251976D01*
X343477Y251953D01*
X343574Y251926D01*
X343669Y251895D01*
X343764Y251861D01*
X343857Y251823D01*
X343949Y251781D01*
X344039Y251736D01*
X344127Y251687D01*
X344213Y251635D01*
X344297Y251580D01*
X344379Y251521D01*
X344459Y251460D01*
X344536Y251395D01*
X344610Y251327D01*
X344682Y251257D01*
X344751Y251184D01*
X344818Y251108D01*
X344881Y251029D01*
X344941Y250949D01*
X344998Y250866D01*
X345052Y250780D01*
X345102Y250693D01*
X345149Y250604D01*
X345192Y250513D01*
X345232Y250421D01*
X345268Y250327D01*
X345301Y250232D01*
X345330Y250135D01*
X345355Y250038D01*
X345376Y249939D01*
X345394Y249840D01*
X345407Y249740D01*
X345417Y249640D01*
X345423Y249540D01*
X345425Y249439D01*
X345426Y249439D02*
X345426Y246843D01*
M02*
